<svg width="30" height="31" viewBox="0 0 30 31" fill="none" xmlns="http://www.w3.org/2000/svg">
<path d="M29.8242 28.2305C29.9414 28.3477 30 28.5234 30 28.6992C30 28.9336 29.9414 29.1094 29.8242 29.2266L28.4766 30.5156C28.3008 30.6914 28.125 30.75 27.9492 30.75C27.7148 30.75 27.5977 30.6914 27.4805 30.5156L20.332 23.4258C20.2148 23.3086 20.1562 23.1328 20.1562 22.957V22.1367C19.043 23.0742 17.8125 23.8359 16.4648 24.3633C15.0586 24.8906 13.6523 25.125 12.1875 25.125C9.96094 25.125 7.91016 24.5977 6.03516 23.4844C4.16016 22.4297 2.69531 20.9648 1.64062 19.0898C0.527344 17.2148 0 15.1641 0 12.9375C0 10.7109 0.527344 8.71875 1.64062 6.84375C2.69531 4.96875 4.16016 3.50391 6.03516 2.39062C7.91016 1.33594 9.96094 0.75 12.1875 0.75C14.4141 0.75 16.4062 1.33594 18.2812 2.39062C20.1562 3.50391 21.6211 4.96875 22.7344 6.84375C23.7891 8.71875 24.375 10.7109 24.375 12.9375C24.375 14.4609 24.082 15.8672 23.5547 17.2148C23.0273 18.6211 22.3242 19.8516 21.3867 20.9062H22.207C22.3828 20.9062 22.5586 20.9648 22.6758 21.082L29.8242 28.2305ZM12.1875 22.3125C13.8281 22.3125 15.4102 21.9023 16.875 21.082C18.2812 20.2617 19.4531 19.0898 20.2734 17.625C21.0938 16.2188 21.5625 14.6367 21.5625 12.9375C21.5625 11.2969 21.0938 9.71484 20.2734 8.25C19.4531 6.84375 18.2812 5.67188 16.875 4.85156C15.4102 4.03125 13.8281 3.5625 12.1875 3.5625C10.4883 3.5625 8.90625 4.03125 7.5 4.85156C6.03516 5.67188 4.86328 6.84375 4.04297 8.25C3.22266 9.71484 2.8125 11.2969 2.8125 12.9375C2.8125 14.6367 3.22266 16.2188 4.04297 17.625C4.86328 19.0898 6.03516 20.2617 7.5 21.082C8.90625 21.9023 10.4883 22.3125 12.1875 22.3125Z" fill="white"/>
</svg>
