<svg width="38" height="31" viewBox="0 0 38 31" fill="none" xmlns="http://www.w3.org/2000/svg">
<path d="M29.1367 8.54297C30.7773 8.95312 32.2422 9.65625 33.5312 10.7109C34.8203 11.7656 35.875 13.0547 36.6367 14.5781C37.3398 16.1016 37.75 17.7422 37.75 19.5C37.75 21.5508 37.2227 23.4258 36.2266 25.125C35.1719 26.8828 33.8242 28.2305 32.125 29.2266C30.3672 30.2812 28.4922 30.75 26.5 30.75H3.0625C2.24219 30.75 1.59766 30.5156 1.07031 29.9297C0.484375 29.4023 0.25 28.7578 0.25 27.9375V12.4688C0.25 12.1758 0.308594 11.8828 0.425781 11.5898L3.35547 2.68359C3.53125 2.09766 3.88281 1.62891 4.35156 1.27734C4.82031 0.925781 5.40625 0.75 6.05078 0.75H24.4492C25.0352 0.75 25.6211 0.925781 26.0898 1.27734C26.5586 1.62891 26.9102 2.09766 27.1445 2.68359L29.1367 8.54297ZM16.6562 3.5625V11.5312H18.5898C19.5273 10.5938 20.6406 9.83203 21.9297 9.24609C23.2188 8.66016 24.5664 8.36719 26.0312 8.25L24.4492 3.5625H16.6562ZM6.05078 3.5625L3.35547 11.5312H13.8438V3.5625H6.05078ZM3.0625 27.9375H19.0586C17.8867 26.8828 16.9492 25.6523 16.2461 24.1875C15.543 22.7227 15.25 21.1406 15.25 19.5C15.25 17.7422 15.6602 15.9844 16.5391 14.3438H3.0625V27.9375ZM26.5 27.9375C28.0234 27.9375 29.4297 27.5859 30.7188 26.8242C32.0078 26.0625 33.0039 25.0078 33.7656 23.7188C34.5273 22.4297 34.9375 21.0234 34.9375 19.5C34.9375 17.9766 34.5273 16.5703 33.7656 15.2812C33.0039 13.9922 32.0078 12.9961 30.7188 12.2344C29.4297 11.4727 28.0234 11.0625 26.5 11.0625C24.9766 11.0625 23.5703 11.4727 22.2812 12.2344C20.9922 12.9961 19.9375 13.9922 19.1758 15.2812C18.4141 16.5703 18.0625 17.9766 18.0625 19.5C18.0625 21.0234 18.4141 22.4297 19.1758 23.7188C19.9375 25.0078 20.9922 26.0625 22.2812 26.8242C23.5703 27.5859 24.9766 27.9375 26.5 27.9375ZM30.3086 15.8672L31.3633 16.9805C31.4219 17.0977 31.4805 17.2148 31.4805 17.332C31.4805 17.4492 31.4219 17.5664 31.3633 17.625L25.8555 23.1328C25.7383 23.25 25.6211 23.25 25.5039 23.25C25.3867 23.25 25.2695 23.25 25.2109 23.1328L21.9883 19.9102C21.8711 19.793 21.8711 19.6758 21.8711 19.5586C21.8711 19.4414 21.8711 19.3828 21.9883 19.2656L23.1016 18.1523C23.1602 18.0938 23.2773 18.0352 23.3945 18.0352C23.5117 18.0352 23.6289 18.0938 23.7461 18.1523L25.5625 19.9688L29.6055 15.8672C29.7227 15.8086 29.8398 15.75 29.957 15.75C30.0742 15.75 30.1914 15.8086 30.3086 15.8672Z" fill="white"/>
</svg>
