<svg width="28" height="22" viewBox="0 0 28 22" fill="none" xmlns="http://www.w3.org/2000/svg">
<path d="M24.5469 0.613281C24.6641 0.496094 24.7812 0.4375 25.0156 0.4375C25.1914 0.4375 25.3672 0.496094 25.543 0.613281L27.1836 2.3125C27.3008 2.42969 27.418 2.60547 27.418 2.78125C27.418 3.01562 27.3008 3.19141 27.1836 3.30859L9.60547 20.8867C9.48828 21.0039 9.3125 21.0625 9.13672 21.0625C8.90234 21.0625 8.72656 21.0039 8.60938 20.8867L0.816406 13.0352C0.640625 12.918 0.582031 12.8008 0.582031 12.5664C0.582031 12.3906 0.640625 12.2148 0.816406 12.0391L2.45703 10.3984C2.57422 10.2812 2.75 10.1641 2.98438 10.1641C3.16016 10.1641 3.33594 10.2812 3.45312 10.3984L9.13672 16.082L24.5469 0.613281Z" fill="white"/>
</svg>
