<svg width="34" height="35" viewBox="0 0 34 35" fill="none" xmlns="http://www.w3.org/2000/svg">
<path d="M32.9609 20.5234C33.2422 20.7344 33.5234 21.0156 33.6641 21.3672C33.8047 21.7891 33.8047 22.1406 33.7344 22.4922C32.8906 25.1641 31.5547 27.4844 29.6562 29.4531C29.375 29.7344 29.0234 29.9453 28.6719 30.0156C28.25 30.0859 27.8984 30.0156 27.6172 29.8047L25.2969 28.4688C24.3828 29.1719 23.3984 29.7344 22.3438 30.1562V32.8281C22.3438 33.25 22.2031 33.6016 21.9922 33.8828C21.7109 34.1641 21.4297 34.375 21.0078 34.4453C18.3359 35.1484 15.6641 35.1484 12.9922 34.4453C12.5703 34.375 12.2188 34.1641 12.0078 33.8828C11.7266 33.6016 11.6562 33.25 11.6562 32.8281V30.1562C10.5312 29.7344 9.54688 29.1719 8.70312 28.4688L6.38281 29.8047C6.03125 30.0156 5.67969 30.0859 5.32812 30.0156C4.90625 29.9453 4.625 29.7344 4.34375 29.4531C2.375 27.4844 1.03906 25.1641 0.265625 22.4922C0.125 22.1406 0.195312 21.7891 0.335938 21.3672C0.476562 21.0156 0.6875 20.7344 1.03906 20.5234L3.35938 19.1875C3.21875 18.0625 3.21875 16.9375 3.35938 15.8125L1.03906 14.4766C0.6875 14.3359 0.476562 14.0547 0.335938 13.6328C0.195312 13.2812 0.125 12.9297 0.265625 12.5078C1.03906 9.90625 2.375 7.58594 4.34375 5.54688C4.625 5.26562 4.90625 5.125 5.32812 5.05469C5.67969 4.98438 6.03125 5.05469 6.38281 5.19531L8.70312 6.53125C9.54688 5.82812 10.5312 5.26562 11.6562 4.84375V2.17188C11.6562 1.82031 11.7266 1.46875 12.0078 1.1875C12.2188 0.90625 12.5703 0.695312 12.9922 0.554688C15.6641 -0.078125 18.3359 -0.078125 21.0078 0.554688C21.4297 0.695312 21.7109 0.90625 21.9922 1.1875C22.2031 1.46875 22.3438 1.82031 22.3438 2.17188V4.84375C23.3984 5.26562 24.3828 5.82812 25.2969 6.53125L27.6172 5.19531C27.8984 5.05469 28.25 4.98438 28.6719 5.05469C29.0234 5.125 29.375 5.26562 29.6562 5.54688C31.5547 7.58594 32.8906 9.90625 33.7344 12.5078C33.8047 12.9297 33.8047 13.2812 33.6641 13.6328C33.5234 14.0547 33.2422 14.3359 32.9609 14.4766L30.6406 15.8125C30.7812 16.9375 30.7812 18.0625 30.6406 19.1875L32.9609 20.5234ZM28.3203 27.625C29.7266 26.0781 30.7109 24.25 31.4141 22.2812L28.1797 20.3828C28.3906 19.1172 28.5312 18.2031 28.5312 17.5C28.5312 16.8672 28.3906 15.8828 28.1797 14.6172L31.4141 12.7188C30.7109 10.75 29.7266 8.99219 28.3203 7.375L25.0859 9.27344C24.1016 8.42969 23.2578 7.86719 22.6953 7.51562C22.1328 7.23438 21.2188 6.8125 20.0938 6.39062V2.59375C17.9844 2.17188 15.9453 2.17188 13.9062 2.59375V6.39062C12.7109 6.8125 11.7969 7.23438 11.2344 7.51562C10.6719 7.86719 9.89844 8.42969 8.91406 9.27344L5.67969 7.375C4.27344 8.99219 3.21875 10.75 2.58594 12.7188L5.82031 14.6172C5.53906 15.8828 5.46875 16.8672 5.46875 17.5C5.46875 18.2031 5.53906 19.1172 5.82031 20.3828L2.58594 22.2812C3.21875 24.25 4.27344 26.0781 5.67969 27.625L8.91406 25.7266C9.89844 26.5703 10.6719 27.2031 11.2344 27.4844C11.7969 27.8359 12.7109 28.1875 13.9062 28.6094V32.4062C15.9453 32.8281 17.9844 32.8281 20.0938 32.4062V28.6094C21.2188 28.1875 22.1328 27.8359 22.6953 27.4844C23.2578 27.1328 24.1016 26.5703 25.0859 25.7266L28.3203 27.625ZM17 10.75C18.8281 10.75 20.4453 11.4531 21.7812 12.7188C23.0469 14.0547 23.75 15.6719 23.75 17.5C23.75 19.3984 23.0469 21.0156 21.7812 22.2812C20.4453 23.6172 18.8281 24.25 17 24.25C15.1016 24.25 13.4844 23.6172 12.2188 22.2812C10.8828 21.0156 10.25 19.3984 10.25 17.5C10.25 15.6719 10.8828 14.0547 12.2188 12.7188C13.4844 11.4531 15.1016 10.75 17 10.75ZM17 22C18.1953 22 19.25 21.5781 20.1641 20.6641C21.0078 19.8203 21.5 18.7656 21.5 17.5C21.5 16.3047 21.0078 15.25 20.1641 14.3359C19.25 13.4922 18.1953 13 17 13C15.7344 13 14.6797 13.4922 13.8359 14.3359C12.9219 15.25 12.5 16.3047 12.5 17.5C12.5 18.7656 12.9219 19.8203 13.8359 20.6641C14.6797 21.5781 15.7344 22 17 22Z" fill="white"/>
</svg>
