<svg width="34" height="31" viewBox="0 0 34 31" fill="none" xmlns="http://www.w3.org/2000/svg">
<path d="M32.4688 19.0312C31.6484 18.3281 30.6914 18.0156 29.5977 18.0938C28.7383 18.1328 27.9766 18.4062 27.3125 18.9141L23.7383 21.6094H23.5625C23.5625 20.4766 23.1719 19.5391 22.3906 18.7969C21.6094 18.0156 20.6523 17.625 19.5195 17.625H11.082C9.36328 17.625 7.82031 18.1328 6.45312 19.1484L4.8125 20.4375H1.0625C0.789062 20.4375 0.554688 20.5352 0.359375 20.7305C0.203125 20.8867 0.125 21.1016 0.125 21.375V22.3125C0.125 22.5859 0.203125 22.8203 0.359375 23.0156C0.554688 23.1719 0.789062 23.25 1.0625 23.25H5.75L8.15234 21.375C9.01172 20.75 9.98828 20.4375 11.082 20.4375H19.5195C20.0273 20.4375 20.3789 20.6328 20.5742 21.0234C20.8086 21.4141 20.8086 21.8047 20.5742 22.1953C20.3789 22.5859 20.0078 22.7812 19.4609 22.7812H15.9453C15.7109 22.7812 15.5156 22.8594 15.3594 23.0156C15.2031 23.1719 15.125 23.3672 15.125 23.6016C15.125 23.8359 15.2031 24.0312 15.3594 24.1875C15.5156 24.3438 15.7109 24.4219 15.9453 24.4219H23.7969C24.3828 24.4219 24.9102 24.2461 25.3789 23.8945L29.0117 21.1992C29.2461 21.0039 29.5195 20.9062 29.832 20.9062C30.1445 20.9062 30.418 21.0234 30.6523 21.2578C30.9258 21.4531 31.0625 21.7461 31.0625 22.1367C31.0625 22.4883 30.9063 22.7617 30.5938 22.957L24.6758 27.4102C24.207 27.7617 23.6797 27.9375 23.0938 27.9375H1.0625C0.789062 27.9375 0.554688 28.0156 0.359375 28.1719C0.203125 28.3672 0.125 28.6016 0.125 28.875V29.8125C0.125 30.0859 0.203125 30.3008 0.359375 30.457C0.554688 30.6523 0.789062 30.75 1.0625 30.75H23.1523C24.3242 30.75 25.3984 30.3789 26.375 29.6367L32.293 25.2422C32.7617 24.8516 33.1328 24.4023 33.4062 23.8945C33.6797 23.3477 33.8164 22.7812 33.8164 22.1953C33.8555 21.5703 33.7578 20.9844 33.5234 20.4375C33.2891 19.8906 32.9375 19.4219 32.4688 19.0312ZM6.74609 15.75H27.3711C27.6055 15.75 27.8008 15.6719 27.957 15.5156C28.1523 15.3203 28.25 15.0859 28.25 14.8125V1.6875C28.2891 1.41406 28.2109 1.19922 28.0156 1.04297C27.8203 0.847656 27.5859 0.75 27.3125 0.75H6.74609C6.47266 0.75 6.23828 0.847656 6.04297 1.04297C5.84766 1.19922 5.75 1.41406 5.75 1.6875V14.8125C5.78906 15.0859 5.88672 15.3203 6.04297 15.5156C6.23828 15.6719 6.45312 15.75 6.6875 15.75H6.74609ZM8.62109 3.5625H13.3086V10.125L17.0586 8.25L20.8086 10.125V3.5625H25.4961V12.9375H8.62109V3.5625Z" fill="white"/>
</svg>
