<svg width="50" height="50" viewBox="0 0 50 50" fill="none" xmlns="http://www.w3.org/2000/svg">
<g clip-path="url(#clip0)">
<path d="M27.5954 25.5006L41.3587 11.7373C42.2138 10.883 42.2138 9.4967 41.3587 8.64233C40.5036 7.78723 39.1188 7.78723 38.2637 8.64233L24.5004 22.4056L10.7363 8.64233C9.88122 7.78723 8.49643 7.78723 7.64132 8.64233C6.78623 9.4967 6.78623 10.883 7.64132 11.7373L21.4054 25.5006L7.64132 39.264C6.78623 40.1183 6.78623 41.5046 7.64132 42.3589C8.06887 42.7858 8.62921 42.9995 9.18882 42.9995C9.74843 42.9995 10.3088 42.7858 10.7363 42.3582L24.5004 28.5949L38.2637 42.3582C38.6912 42.7858 39.2516 42.9995 39.8112 42.9995C40.3708 42.9995 40.9311 42.7858 41.3587 42.3582C42.2138 41.5038 42.2138 40.1176 41.3587 39.2632L27.5954 25.5006Z" fill="#2F303E"/>
</g>
<defs>
<clipPath id="clip0">
<rect width="35" height="35" fill="white" transform="translate(7 8)"/>
</clipPath>
</defs>
</svg>
