<svg width="50" height="39" viewBox="0 0 50 39" fill="none" xmlns="http://www.w3.org/2000/svg">
<path d="M47.9803 17.7904H2.01973C0.904297 17.7904 0 18.4842 0 19.3401C0 20.1961 0.904297 20.8899 2.01973 20.8899H47.9803C49.0958 20.8899 50 20.1961 50 19.3401C50 18.4843 49.0958 17.7904 47.9803 17.7904Z" fill="#2F303E"/>
<path d="M47.9803 6.03514H2.01973C0.904297 6.03514 0 6.72901 0 7.58489C0 8.44076 0.904297 9.13463 2.01973 9.13463H47.9803C49.0958 9.13463 50 8.44076 50 7.58489C50 6.72901 49.0958 6.03514 47.9803 6.03514Z" fill="#2F303E"/>
<path d="M47.9803 29.5457H2.01973C0.904297 29.5457 0 30.2395 0 31.0954C0 31.9513 0.904297 32.6451 2.01973 32.6451H47.9803C49.0958 32.6451 50 31.9513 50 31.0954C50 30.2395 49.0958 29.5457 47.9803 29.5457Z" fill="#2F303E"/>
</svg>
