<svg width="1102" height="205" viewBox="0 0 1102 205" fill="none" xmlns="http://www.w3.org/2000/svg">
<path d="M25.2579 176.805C8.41929 160.695 0 135.801 0 102.124C0 68.3555 8.41929 43.4162 25.2579 27.3058C42.1875 11.1044 67.5363 3.00364 101.305 3.00364H131.75C152.412 3.00364 170.661 8.37378 186.499 19.1141C202.427 29.8543 210.391 44.554 210.391 63.2129C210.391 68.5831 208.798 72.4514 205.613 74.8179C202.427 77.0934 199.332 78.2311 196.329 78.2311H180.082C171.708 78.2311 165.2 73.2251 160.558 63.2129C153.823 48.8319 142.627 41.6413 126.972 41.6413H102.67C82.7366 41.6413 69.2202 45.9193 62.1207 54.4751C55.0212 63.0309 51.4714 78.8682 51.4714 101.987C51.4714 125.106 55.0212 140.989 62.1207 149.636C69.2202 158.192 82.7366 162.469 102.67 162.469H129.839C145.494 162.469 156.644 155.279 163.289 140.898C167.931 130.795 174.484 125.743 182.949 125.743H199.196C200.834 125.743 202.563 126.107 204.384 126.835C206.295 127.473 208.207 129.065 210.118 131.614C212.121 134.071 213.122 137.166 213.122 140.898C213.122 159.557 205.203 174.257 189.366 184.997C173.528 195.646 155.279 200.971 134.618 200.971H101.305C67.5363 200.971 42.1875 192.915 25.2579 176.805Z" fill="#0745A1"/>
<path d="M231.357 186.772V16.7931C231.357 13.2433 232.631 10.2397 235.179 7.78215C237.728 5.32463 240.777 4.09587 244.327 4.09587H401.745C405.294 4.09587 408.298 5.37014 410.756 7.91868C413.304 10.4672 414.578 13.5164 414.578 17.0661V29.8998C414.578 33.4496 413.304 36.4987 410.756 39.0473C408.298 41.5048 405.294 42.7336 401.745 42.7336H282.828V82.4635H385.225C388.774 82.4635 391.778 83.7378 394.236 86.2863C396.784 88.7438 398.058 91.7475 398.058 95.2972V108.131C398.058 111.681 396.784 114.73 394.236 117.278C391.778 119.736 388.774 120.965 385.225 120.965H282.828V161.241H401.472C405.021 161.241 407.98 162.469 410.346 164.927C412.804 167.385 414.032 170.388 414.032 173.938V187.045C414.032 190.594 412.758 193.644 410.21 196.192C407.661 198.65 404.612 199.878 401.062 199.878H244.327C240.777 199.878 237.728 198.65 235.179 196.192C232.631 193.644 231.357 190.503 231.357 186.772Z" fill="#0745A1"/>
<path d="M439.7 187.045V17.0661C439.7 13.5164 440.929 10.4672 443.386 7.91868C445.844 5.37014 448.847 4.09587 452.397 4.09587H556.569C611.544 4.09587 639.032 29.4903 639.032 80.279C639.123 130.977 611.635 156.326 556.569 156.326H491.171V187.045C491.171 190.594 489.897 193.644 487.348 196.192C484.891 198.65 481.887 199.878 478.337 199.878H452.67C449.12 199.878 446.071 198.65 443.523 196.192C440.974 193.644 439.7 190.594 439.7 187.045ZM491.171 117.688H541.004C556.296 117.688 567.9 115.139 575.819 110.042C583.738 104.854 587.697 94.9332 587.697 80.279C587.697 65.5339 583.738 55.6128 575.819 50.5157C567.9 45.3276 556.296 42.7336 541.004 42.7336H491.171V117.688Z" fill="#0745A1"/>
<path d="M678.216 176.805C661.377 160.695 652.958 135.801 652.958 102.124C652.958 68.3555 661.377 43.4162 678.216 27.3058C695.146 11.1044 720.494 3.00364 754.263 3.00364H784.708C805.37 3.00364 823.619 8.37378 839.457 19.1141C855.385 29.8543 863.349 44.554 863.349 63.2129C863.349 68.5831 861.756 72.4514 858.571 74.8179C855.385 77.0934 852.29 78.2311 849.287 78.2311H833.04C824.666 78.2311 818.158 73.2251 813.516 63.2129C806.781 48.8319 795.585 41.6413 779.93 41.6413H755.628C735.695 41.6413 722.178 45.9193 715.079 54.4751C707.979 63.0309 704.429 78.8682 704.429 101.987C704.429 125.106 707.979 140.989 715.079 149.636C722.178 158.192 735.695 162.469 755.628 162.469H782.797C798.452 162.469 809.602 155.279 816.247 140.898C820.889 130.795 827.442 125.743 835.907 125.743H852.154C853.792 125.743 855.522 126.107 857.342 126.835C859.253 127.473 861.165 129.065 863.076 131.614C865.079 134.071 866.08 137.166 866.08 140.898C866.08 159.557 858.161 174.257 842.324 184.997C826.486 195.646 808.237 200.971 787.576 200.971H754.263C720.494 200.971 695.146 192.915 678.216 176.805Z" fill="#0745A1"/>
<path d="M909.496 179.672C890.837 163.289 881.508 137.394 881.508 101.987C881.508 66.5806 890.837 40.7311 909.496 24.4387C928.155 8.14623 955.461 0 991.413 0C1027.46 0 1054.76 8.14623 1073.33 24.4387C1091.99 40.7311 1101.32 66.5806 1101.32 101.987C1101.32 137.394 1091.99 163.289 1073.33 179.672C1054.76 195.965 1027.46 204.111 991.413 204.111C955.461 204.111 928.155 195.965 909.496 179.672ZM946.768 53.2463C937.575 64.1686 932.979 80.4611 932.979 102.124C932.979 123.695 937.575 139.942 946.768 150.865C956.052 161.696 970.934 167.111 991.413 167.111C1011.98 167.111 1026.87 161.696 1036.06 150.865C1045.25 139.942 1049.85 123.695 1049.85 102.124C1049.85 80.4611 1045.25 64.1686 1036.06 53.2463C1026.87 42.324 1011.98 36.8628 991.413 36.8628C970.934 36.8628 956.052 42.324 946.768 53.2463Z" fill="#0745A1"/>
</svg>
