<svg width="147" height="45" viewBox="0 0 147 45" fill="none" xmlns="http://www.w3.org/2000/svg">
<path d="M3.44434 23.9468C1.21615 21.8149 0.102051 18.5208 0.102051 14.0645C0.102051 9.59601 1.21615 6.29591 3.44434 4.16411C5.68457 2.02021 9.0389 0.948212 13.5073 0.948212H17.5361C20.2702 0.948212 22.6851 1.65891 24.7808 3.08011C26.8885 4.50131 27.9424 6.44651 27.9424 8.91551C27.9424 9.62611 27.7316 10.138 27.3101 10.4512C26.8885 10.7523 26.479 10.9028 26.0815 10.9028H23.9316C22.8236 10.9028 21.9624 10.2404 21.3481 8.91551C20.4569 7.01251 18.9754 6.06101 16.9038 6.06101H13.688C11.0503 6.06101 9.2617 6.62711 8.32227 7.75931C7.38281 8.89141 6.91309 10.9871 6.91309 14.0464C6.91309 17.1056 7.38281 19.2074 8.32227 20.3516C9.2617 21.4837 11.0503 22.0498 13.688 22.0498H17.2832C19.3548 22.0498 20.8302 21.0983 21.7095 19.1953C22.3237 17.8584 23.1909 17.1899 24.311 17.1899H26.4609C26.6777 17.1899 26.9066 17.2381 27.1475 17.3345C27.4004 17.4188 27.6533 17.6296 27.9062 17.9668C28.1712 18.292 28.3037 18.7015 28.3037 19.1953C28.3037 21.6644 27.2559 23.6095 25.1602 25.0308C23.0645 26.4399 20.6496 27.1445 17.9155 27.1445H13.5073C9.0389 27.1445 5.68457 26.0786 3.44434 23.9468ZM31.8267 25.2656V2.77291C31.8267 2.30321 31.9953 1.90581 32.3325 1.58061C32.6698 1.25541 33.0732 1.09281 33.543 1.09281H54.3735C54.8433 1.09281 55.2407 1.26141 55.5659 1.59861C55.9032 1.93591 56.0718 2.33941 56.0718 2.80911V4.50731C56.0718 4.97711 55.9032 5.38051 55.5659 5.71781C55.2407 6.04301 54.8433 6.20561 54.3735 6.20561H38.6377V11.4629H52.1875C52.6572 11.4629 53.0547 11.6315 53.3799 11.9688C53.7171 12.2939 53.8857 12.6914 53.8857 13.1611V14.8594C53.8857 15.3291 53.7171 15.7326 53.3799 16.0698C53.0547 16.395 52.6572 16.5576 52.1875 16.5576H38.6377V21.8872H54.3374C54.8071 21.8872 55.1986 22.0498 55.5117 22.375C55.8369 22.7002 55.9995 23.0977 55.9995 23.5674V25.3018C55.9995 25.7715 55.8309 26.175 55.4937 26.5122C55.1564 26.8374 54.7529 27 54.2832 27H33.543C33.0732 27 32.6698 26.8374 32.3325 26.5122C31.9953 26.175 31.8267 25.7594 31.8267 25.2656ZM59.396 25.3018V2.80911C59.396 2.33941 59.5586 1.93591 59.8838 1.59861C60.209 1.26141 60.6064 1.09281 61.0762 1.09281H74.8608C82.1356 1.09281 85.7729 4.45311 85.7729 11.1738C85.785 17.8825 82.1476 21.2368 74.8608 21.2368H66.207V25.3018C66.207 25.7715 66.0384 26.175 65.7012 26.5122C65.376 26.8374 64.9785 27 64.5088 27H61.1123C60.6426 27 60.2391 26.8374 59.9019 26.5122C59.5646 26.175 59.396 25.7715 59.396 25.3018ZM66.207 16.124H72.8013C74.8247 16.124 76.3604 15.7868 77.4082 15.1123C78.4561 14.4258 78.98 13.113 78.98 11.1738C78.98 9.22271 78.4561 7.90981 77.4082 7.23541C76.3604 6.54881 74.8247 6.20561 72.8013 6.20561H66.207V16.124ZM90.958 23.9468C88.7298 21.8149 87.6157 18.5208 87.6157 14.0645C87.6157 9.59601 88.7298 6.29591 90.958 4.16411C93.1982 2.02021 96.5526 0.948212 101.021 0.948212H105.05C107.784 0.948212 110.199 1.65891 112.294 3.08011C114.402 4.50131 115.456 6.44651 115.456 8.91551C115.456 9.62611 115.245 10.138 114.824 10.4512C114.402 10.7523 113.993 10.9028 113.595 10.9028H111.445C110.337 10.9028 109.476 10.2404 108.862 8.91551C107.971 7.01251 106.489 6.06101 104.417 6.06101H101.202C98.564 6.06101 96.7754 6.62711 95.8359 7.75931C94.8965 8.89141 94.4268 10.9871 94.4268 14.0464C94.4268 17.1056 94.8965 19.2074 95.8359 20.3516C96.7754 21.4837 98.564 22.0498 101.202 22.0498H104.797C106.868 22.0498 108.344 21.0983 109.223 19.1953C109.837 17.8584 110.705 17.1899 111.825 17.1899H113.975C114.191 17.1899 114.42 17.2381 114.661 17.3345C114.914 17.4188 115.167 17.6296 115.42 17.9668C115.685 18.292 115.817 18.7015 115.817 19.1953C115.817 21.6644 114.77 23.6095 112.674 25.0308C110.578 26.4399 108.163 27.1445 105.429 27.1445H101.021C96.5526 27.1445 93.1982 26.0786 90.958 23.9468ZM121.562 24.3262C119.093 22.1582 117.859 18.7316 117.859 14.0464C117.859 9.36121 119.093 5.94061 121.562 3.78471C124.032 1.62871 127.645 0.550812 132.402 0.550812C137.172 0.550812 140.785 1.62871 143.242 3.78471C145.711 5.94061 146.946 9.36121 146.946 14.0464C146.946 18.7316 145.711 22.1582 143.242 24.3262C140.785 26.4821 137.172 27.5601 132.402 27.5601C127.645 27.5601 124.032 26.4821 121.562 24.3262ZM126.495 7.59671C125.278 9.04201 124.67 11.1979 124.67 14.0645C124.67 16.9189 125.278 19.0688 126.495 20.5142C127.723 21.9474 129.692 22.6641 132.402 22.6641C135.124 22.6641 137.094 21.9474 138.31 20.5142C139.527 19.0688 140.135 16.9189 140.135 14.0645C140.135 11.1979 139.527 9.04201 138.31 7.59671C137.094 6.15141 135.124 5.42871 132.402 5.42871C129.692 5.42871 127.723 6.15141 126.495 7.59671Z" fill="#0745A1"/>
<path d="M7.20117 41.6484C6.58008 41.9766 5.80664 42.1406 4.88086 42.1406C3.68555 42.1406 2.72852 41.7559 2.00977 40.9863C1.29102 40.2168 0.931641 39.207 0.931641 37.957C0.931641 36.6133 1.33594 35.5273 2.14453 34.6992C2.95312 33.8711 3.97852 33.457 5.2207 33.457C6.01758 33.457 6.67773 33.5723 7.20117 33.8027V34.8516C6.59961 34.5156 5.93555 34.3477 5.20898 34.3477C4.24414 34.3477 3.46094 34.6699 2.85938 35.3145C2.26172 35.959 1.96289 36.8203 1.96289 37.8984C1.96289 38.9219 2.24219 39.7383 2.80078 40.3477C3.36328 40.9531 4.09961 41.2559 5.00977 41.2559C5.85352 41.2559 6.58398 41.0684 7.20117 40.6934V41.6484ZM13.6055 39.2402H9.3691C9.3848 39.9082 9.5645 40.4238 9.9082 40.7871C10.252 41.1504 10.7246 41.332 11.3262 41.332C12.002 41.332 12.623 41.1094 13.1895 40.6641V41.5664C12.6621 41.9492 11.9648 42.1406 11.0977 42.1406C10.25 42.1406 9.584 41.8691 9.0996 41.3262C8.61523 40.7793 8.37305 40.0117 8.37305 39.0234C8.37305 38.0898 8.63672 37.3301 9.1641 36.7441C9.6953 36.1543 10.3535 35.8594 11.1387 35.8594C11.9238 35.8594 12.5312 36.1133 12.9609 36.6211C13.3906 37.1289 13.6055 37.834 13.6055 38.7363V39.2402ZM12.6211 38.4258C12.6172 37.8711 12.4824 37.4395 12.2168 37.1309C11.9551 36.8223 11.5898 36.668 11.1211 36.668C10.668 36.668 10.2832 36.8301 9.9668 37.1543C9.6504 37.4785 9.4551 37.9023 9.3809 38.4258H12.6211ZM16.0488 41.1328H16.0254V44.7598H15.0645V36H16.0254V37.0547H16.0488C16.5215 36.2578 17.2129 35.8594 18.123 35.8594C18.8965 35.8594 19.5 36.1289 19.9336 36.668C20.3672 37.2031 20.584 37.9219 20.584 38.8242C20.584 39.8281 20.3398 40.6328 19.8516 41.2383C19.3633 41.8398 18.6953 42.1406 17.8477 42.1406C17.0703 42.1406 16.4707 41.8047 16.0488 41.1328ZM16.0254 38.7129V39.5508C16.0254 40.0469 16.1855 40.4688 16.5059 40.8164C16.8301 41.1602 17.2402 41.332 17.7363 41.332C18.3184 41.332 18.7734 41.1094 19.1016 40.6641C19.4336 40.2188 19.5996 39.5996 19.5996 38.8066C19.5996 38.1387 19.4453 37.6152 19.1367 37.2363C18.8281 36.8574 18.4102 36.668 17.8828 36.668C17.3242 36.668 16.875 36.8633 16.5352 37.2539C16.1953 37.6406 16.0254 38.127 16.0254 38.7129ZM22.1191 42V36H24.7324C25.3223 36 25.7871 36.1309 26.127 36.3926C26.4707 36.6543 26.6426 37.0117 26.6426 37.4648C26.6426 38.2422 26.2598 38.7148 25.4941 38.8828C26.4121 39 26.8711 39.4629 26.8711 40.2715C26.8711 40.7598 26.6816 41.1699 26.3027 41.502C25.9277 41.834 25.4609 42 24.9023 42H22.1191ZM23.0801 36.8203V38.5078H24.5215C25.2949 38.5078 25.6816 38.207 25.6816 37.6055C25.6816 37.082 25.334 36.8203 24.6387 36.8203H23.0801ZM23.0801 39.3281V41.1797H24.7441C25.5215 41.1797 25.9102 40.8652 25.9102 40.2363C25.9102 39.6309 25.4746 39.3281 24.6035 39.3281H23.0801ZM33.5098 42H32.6426V37.2129C32.5566 37.3809 32.4258 37.6172 32.25 37.9219L29.4785 42H28.4824V36H29.3613V40.7285C29.4082 40.6152 29.5098 40.4219 29.666 40.1484L32.5137 36H33.5098V42ZM39.5449 41.7246C39.084 42.002 38.5371 42.1406 37.9043 42.1406C37.0488 42.1406 36.3574 41.8633 35.8301 41.3086C35.3066 40.75 35.0449 40.0273 35.0449 39.1406C35.0449 38.1523 35.3281 37.3594 35.8945 36.7617C36.4609 36.1602 37.2168 35.8594 38.1621 35.8594C38.6895 35.8594 39.1543 35.957 39.5566 36.1523V37.1367C39.1113 36.8242 38.6348 36.668 38.127 36.668C37.5137 36.668 37.0098 36.8887 36.6152 37.3301C36.2246 37.7676 36.0293 38.3438 36.0293 39.0586C36.0293 39.7617 36.2129 40.3164 36.5801 40.7227C36.9512 41.1289 37.4473 41.332 38.0684 41.332C38.5918 41.332 39.084 41.1582 39.5449 40.8105V41.7246ZM45.9785 42H45.0176V39.2754H41.959V42H40.998V36H41.959V38.4609H45.0176V36H45.9785V42ZM54.4863 42H53.5371V36H54.4863V42ZM47.9238 42V36H48.8848V38.3027H50.502C51.1152 38.3027 51.6016 38.4629 51.9609 38.7832C52.3242 39.1035 52.5059 39.5508 52.5059 40.125C52.5059 40.7031 52.3242 41.1602 51.9609 41.4961C51.5977 41.832 51.1387 42 50.584 42H47.9238ZM48.8848 39.1289V41.1797H50.3262C51.123 41.1797 51.5215 40.8281 51.5215 40.125C51.5215 39.4609 51.1191 39.1289 50.3145 39.1289H48.8848ZM61.4707 42H60.6035V37.2129C60.5176 37.3809 60.3867 37.6172 60.2109 37.9219L57.4395 42H56.4434V36H57.3223V40.7285C57.3691 40.6152 57.4707 40.4219 57.627 40.1484L60.4746 36H61.4707V42ZM61.1191 33.082C61.0605 33.6328 60.8379 34.0684 60.4512 34.3887C60.0684 34.7051 59.5879 34.8633 59.0098 34.8633C58.416 34.8633 57.9316 34.7051 57.5566 34.3887C57.1855 34.0684 56.9824 33.6328 56.9473 33.082H57.8965C57.9512 33.8164 58.3262 34.1836 59.0215 34.1836C59.334 34.1836 59.5918 34.0879 59.7949 33.8965C59.998 33.7012 60.123 33.4297 60.1699 33.082H61.1191ZM72.5742 44.1855H71.748V42H66.709V36H67.6699V41.1855H70.7285V36H71.6895V41.1855H72.5742V44.1855ZM78.7383 39.2402H74.502C74.5176 39.9082 74.6973 40.4238 75.041 40.7871C75.3848 41.1504 75.8574 41.332 76.459 41.332C77.1348 41.332 77.7559 41.1094 78.3223 40.6641V41.5664C77.7949 41.9492 77.0977 42.1406 76.2305 42.1406C75.3828 42.1406 74.7168 41.8691 74.2324 41.3262C73.748 40.7793 73.5059 40.0117 73.5059 39.0234C73.5059 38.0898 73.7695 37.3301 74.2969 36.7441C74.8281 36.1543 75.4863 35.8594 76.2715 35.8594C77.0566 35.8594 77.6641 36.1133 78.0938 36.6211C78.5234 37.1289 78.7383 37.834 78.7383 38.7363V39.2402ZM77.7539 38.4258C77.75 37.8711 77.6152 37.4395 77.3496 37.1309C77.0879 36.8223 76.7227 36.668 76.2539 36.668C75.8008 36.668 75.416 36.8301 75.0996 37.1543C74.7832 37.4785 74.5879 37.9023 74.5137 38.4258H77.7539ZM85.1777 42H84.2168V39.2754H81.1582V42H80.1973V36H81.1582V38.4609H84.2168V36H85.1777V42ZM90.8906 36.8203H89.0918V42H88.1309V36.8203H86.3262V36H90.8906V36.8203ZM93.0293 41.1328H93.0059V44.7598H92.0449V36H93.0059V37.0547H93.0293C93.502 36.2578 94.1934 35.8594 95.1035 35.8594C95.877 35.8594 96.4805 36.1289 96.9141 36.668C97.3477 37.2031 97.5645 37.9219 97.5645 38.8242C97.5645 39.8281 97.3203 40.6328 96.832 41.2383C96.3438 41.8398 95.6758 42.1406 94.8281 42.1406C94.0508 42.1406 93.4512 41.8047 93.0293 41.1328ZM93.0059 38.7129V39.5508C93.0059 40.0469 93.166 40.4688 93.4863 40.8164C93.8105 41.1602 94.2207 41.332 94.7168 41.332C95.2988 41.332 95.7539 41.1094 96.082 40.6641C96.4141 40.2188 96.5801 39.5996 96.5801 38.8066C96.5801 38.1387 96.4258 37.6152 96.1172 37.2363C95.8086 36.8574 95.3906 36.668 94.8633 36.668C94.3047 36.668 93.8555 36.8633 93.5156 37.2539C93.1758 37.6406 93.0059 38.127 93.0059 38.7129ZM106.482 41.7246C106.021 42.002 105.475 42.1406 104.842 42.1406C103.986 42.1406 103.295 41.8633 102.768 41.3086C102.244 40.75 101.982 40.0273 101.982 39.1406C101.982 38.1523 102.266 37.3594 102.832 36.7617C103.398 36.1602 104.154 35.8594 105.1 35.8594C105.627 35.8594 106.092 35.957 106.494 36.1523V37.1367C106.049 36.8242 105.572 36.668 105.064 36.668C104.451 36.668 103.947 36.8887 103.553 37.3301C103.162 37.7676 102.967 38.3438 102.967 39.0586C102.967 39.7617 103.15 40.3164 103.518 40.7227C103.889 41.1289 104.385 41.332 105.006 41.332C105.529 41.332 106.021 41.1582 106.482 40.8105V41.7246ZM116.039 42H111.287V41.1562H113.186V34.6289L111.24 35.209V34.2949L114.146 33.4102V41.1562H116.039V42ZM117.732 41.8594V40.9336C118.201 41.1992 118.697 41.332 119.221 41.332C119.982 41.332 120.574 41.0254 120.996 40.4121C121.422 39.7988 121.635 38.9277 121.635 37.7988C121.627 37.8027 121.619 37.8027 121.611 37.7988C121.252 38.5215 120.627 38.8828 119.736 38.8828C119.018 38.8828 118.428 38.6387 117.967 38.1504C117.506 37.6621 117.275 37.0332 117.275 36.2637C117.275 35.4434 117.527 34.7715 118.031 34.248C118.539 33.7207 119.188 33.457 119.977 33.457C120.805 33.457 121.449 33.7852 121.91 34.4414C122.375 35.0938 122.607 36.0449 122.607 37.2949C122.607 38.8457 122.307 40.041 121.705 40.8809C121.104 41.7207 120.268 42.1406 119.197 42.1406C118.635 42.1406 118.146 42.0469 117.732 41.8594ZM119.889 34.2715C119.424 34.2715 119.035 34.4473 118.723 34.7988C118.414 35.1465 118.26 35.5898 118.26 36.1289C118.26 36.7188 118.412 37.1836 118.717 37.5234C119.021 37.8594 119.434 38.0273 119.953 38.0273C120.406 38.0273 120.789 37.873 121.102 37.5645C121.418 37.2559 121.576 36.8789 121.576 36.4336C121.576 35.7969 121.42 35.2773 121.107 34.875C120.795 34.4727 120.389 34.2715 119.889 34.2715ZM124.201 41.8594V40.9336C124.67 41.1992 125.166 41.332 125.689 41.332C126.451 41.332 127.043 41.0254 127.465 40.4121C127.891 39.7988 128.104 38.9277 128.104 37.7988C128.096 37.8027 128.088 37.8027 128.08 37.7988C127.721 38.5215 127.096 38.8828 126.205 38.8828C125.486 38.8828 124.896 38.6387 124.436 38.1504C123.975 37.6621 123.744 37.0332 123.744 36.2637C123.744 35.4434 123.996 34.7715 124.5 34.248C125.008 33.7207 125.656 33.457 126.445 33.457C127.273 33.457 127.918 33.7852 128.379 34.4414C128.844 35.0938 129.076 36.0449 129.076 37.2949C129.076 38.8457 128.775 40.041 128.174 40.8809C127.572 41.7207 126.736 42.1406 125.666 42.1406C125.104 42.1406 124.615 42.0469 124.201 41.8594ZM126.357 34.2715C125.893 34.2715 125.504 34.4473 125.191 34.7988C124.883 35.1465 124.729 35.5898 124.729 36.1289C124.729 36.7188 124.881 37.1836 125.186 37.5234C125.49 37.8594 125.902 38.0273 126.422 38.0273C126.875 38.0273 127.258 37.873 127.57 37.5645C127.887 37.2559 128.045 36.8789 128.045 36.4336C128.045 35.7969 127.889 35.2773 127.576 34.875C127.264 34.4727 126.857 34.2715 126.357 34.2715ZM135.287 42H130.225V41.1445L132.674 38.6895C133.299 38.0645 133.744 37.5449 134.01 37.1309C134.279 36.7129 134.414 36.2676 134.414 35.7949C134.414 35.3105 134.275 34.9355 133.998 34.6699C133.721 34.4043 133.326 34.2715 132.814 34.2715C132.064 34.2715 131.346 34.5918 130.658 35.2324V34.2246C131.314 33.7129 132.078 33.457 132.949 33.457C133.699 33.457 134.289 33.6602 134.719 34.0664C135.148 34.4727 135.363 35.0176 135.363 35.7012C135.363 36.2402 135.215 36.7676 134.918 37.2832C134.621 37.7949 134.088 38.4316 133.318 39.1934L131.379 41.1094V41.1328H135.287V42ZM143.73 36.8203H141.357V42H140.396V36H143.73V36.8203ZM145.324 42.1289C145.145 42.1289 144.99 42.0645 144.861 41.9355C144.736 41.8066 144.674 41.6523 144.674 41.4727C144.674 41.293 144.736 41.1387 144.861 41.0098C144.99 40.877 145.145 40.8105 145.324 40.8105C145.508 40.8105 145.664 40.877 145.793 41.0098C145.922 41.1387 145.986 41.293 145.986 41.4727C145.986 41.6523 145.922 41.8066 145.793 41.9355C145.664 42.0645 145.508 42.1289 145.324 42.1289Z" fill="#181818"/>
</svg>
