<svg width="150" height="150" viewBox="0 0 150 150" fill="none" xmlns="http://www.w3.org/2000/svg">
<path d="M75.0001 0C74.2235 0 73.4503 0.0137695 72.6795 0.0383788C72.0441 0.0588866 71.4872 0.469042 71.2698 1.0664L57.0502 40.1472C56.6793 41.1667 57.4343 42.2451 58.5194 42.2451H69.6485C77.5985 42.2451 81.8823 48.3632 79.16 55.8412L60.6115 106.816C60.3868 107.433 59.7994 107.845 59.142 107.845L46.5807 107.842C45.4955 107.842 44.7405 106.763 45.112 105.744L63.8893 54.2003C64.2608 53.1805 63.5058 52.1018 62.4203 52.1018H53.8023C53.1452 52.1018 52.5584 52.5125 52.3334 53.1301L32.7765 106.813C32.5515 107.431 31.9647 107.842 31.3076 107.842L18.7395 107.84C17.6543 107.84 16.8993 106.762 17.2705 105.742L53.6816 5.70761C54.1281 4.48066 52.963 3.28095 51.7217 3.68583C21.6967 13.4801 0 41.7049 0 75.0002C0 109.928 23.8776 139.276 56.1994 147.619C56.9828 147.821 57.7926 147.402 58.0694 146.642L95.6967 43.2743C95.9214 42.6568 96.5085 42.2457 97.1659 42.2457H125.335C133.292 42.2457 137.575 48.3638 134.855 55.8418L118.226 101.517C116.96 104.995 112.895 107.841 109.193 107.841H89.1936C88.5362 107.841 87.9494 108.252 87.7244 108.87L73.5218 147.902C73.1527 148.916 73.8983 150 74.9776 150C74.9849 150 74.9925 150 74.9998 150C116.421 150 150 116.421 150 75.0002C150 33.5783 116.422 0 75.0001 0Z" fill="white"/>
<path d="M108.343 53.087L92.7444 95.8429C92.3723 96.8626 93.1283 97.9414 94.2146 97.9414H102.837C103.495 97.9414 104.082 97.5307 104.307 96.9135L119.905 54.1576C120.277 53.1379 119.522 52.0591 118.435 52.0591H109.813C109.155 52.0591 108.568 52.4698 108.343 53.087Z" fill="white"/>
</svg>
