<svg width="10" height="7" viewBox="0 0 10 7" fill="none" xmlns="http://www.w3.org/2000/svg">
<path d="M4.45312 6.07031H4.42383C4.48242 6.12891 4.57031 6.1582 4.6875 6.1582C4.77539 6.1582 4.86328 6.12891 4.95117 6.07031L9.28711 1.76367C9.3457 1.70508 9.375 1.61719 9.375 1.5293C9.375 1.44141 9.3457 1.35352 9.28711 1.26562L8.70117 0.679688C8.61328 0.621094 8.52539 0.591797 8.4375 0.591797C8.32031 0.591797 8.26172 0.621094 8.20312 0.679688L4.6875 4.16602L1.17188 0.679688C1.11328 0.621094 1.02539 0.591797 0.9375 0.591797C0.820312 0.591797 0.732422 0.621094 0.673828 0.679688L0.0878906 1.26562C0.0292969 1.35352 0 1.44141 0 1.5293C0 1.61719 0.0292969 1.70508 0.117188 1.76367L4.45312 6.07031Z" fill="black"/>
</svg>
