<svg width="18" height="21" viewBox="0 0 18 21" fill="none" xmlns="http://www.w3.org/2000/svg">
<path d="M17.2031 3.07812L15.1719 1.04688C14.8073 0.682292 14.3646 0.5 13.8438 0.5H7.125C6.60417 0.5 6.16146 0.682292 5.79688 1.04688C5.43229 1.41146 5.25 1.85417 5.25 2.375V4.25H2.125C1.60417 4.25 1.16146 4.43229 0.796875 4.79688C0.432292 5.16146 0.25 5.60417 0.25 6.125V18.625C0.25 19.1458 0.432292 19.5885 0.796875 19.9531C1.16146 20.3177 1.60417 20.5 2.125 20.5H10.875C11.3958 20.5 11.8385 20.3177 12.2031 19.9531C12.5677 19.5885 12.75 19.1458 12.75 18.625V16.75H15.875C16.3958 16.75 16.8385 16.5677 17.2031 16.2031C17.5677 15.8385 17.75 15.3958 17.75 14.875V4.40625C17.75 3.88542 17.5677 3.44271 17.2031 3.07812ZM14 1.75C14.1042 1.80208 14.1953 1.86719 14.2734 1.94531L16.3047 3.97656C16.3828 4.05469 16.4479 4.14583 16.5 4.25H14V1.75ZM11.5 18.625C11.5 18.8073 11.4349 18.9505 11.3047 19.0547C11.2005 19.1849 11.0573 19.25 10.875 19.25H2.125C1.94271 19.25 1.78646 19.1849 1.65625 19.0547C1.55208 18.9505 1.5 18.8073 1.5 18.625V6.125C1.5 5.94271 1.55208 5.79948 1.65625 5.69531C1.78646 5.5651 1.94271 5.5 2.125 5.5H5.25V14.875C5.25 15.3958 5.43229 15.8385 5.79688 16.2031C6.16146 16.5677 6.60417 16.75 7.125 16.75H11.5V18.625ZM16.5 14.875C16.5 15.0573 16.4349 15.2135 16.3047 15.3438C16.2005 15.4479 16.0573 15.5 15.875 15.5H7.125C6.94271 15.5 6.78646 15.4479 6.65625 15.3438C6.55208 15.2135 6.5 15.0573 6.5 14.875V2.375C6.5 2.19271 6.55208 2.04948 6.65625 1.94531C6.78646 1.8151 6.94271 1.75 7.125 1.75H12.75V4.5625C12.75 4.82292 12.8411 5.04427 13.0234 5.22656C13.2057 5.40885 13.4271 5.5 13.6875 5.5H16.5V14.875Z" fill="#517DBD"/>
</svg>
