<svg width="16" height="18" viewBox="0 0 16 18" fill="none" xmlns="http://www.w3.org/2000/svg">
<path d="M15.4727 8.3457C15.6055 7.61523 15.5059 6.91797 15.1738 6.25391C15.207 5.85547 15.1738 5.49023 15.0742 5.0918C14.9746 4.69336 14.8086 4.32812 14.6094 4.0293C14.5762 3.0332 14.2773 2.30273 13.6797 1.77148C13.0156 1.17383 12.0859 0.875 10.8574 0.875H10.127C9.19727 0.875 8.33398 0.974609 7.57031 1.17383C7.10547 1.27344 6.57422 1.47266 5.91016 1.73828C5.51172 1.87109 5.21289 2.00391 5.04688 2.07031C4.74805 2.13672 4.48242 2.20312 4.2168 2.20312C4.15039 1.9707 4.01758 1.77148 3.81836 1.63867C3.61914 1.47266 3.41992 1.40625 3.1875 1.40625H1.0625C0.763672 1.40625 0.498047 1.50586 0.298828 1.70508C0.0996094 1.9043 0 2.16992 0 2.46875V10.4375C0 10.7031 0.0996094 10.9688 0.298828 11.168C0.498047 11.3672 0.763672 11.5 1.0625 11.5H4.34961C4.54883 11.6992 4.94727 12.1309 5.47852 12.8281C6.00977 13.5254 6.375 13.9902 6.64062 14.2559C6.70703 14.3223 6.80664 14.6543 6.93945 15.2188C7.13867 16.0156 7.33789 16.5801 7.53711 16.9453C7.86914 17.543 8.36719 17.875 8.99805 17.875C9.99414 17.875 10.7578 17.5762 11.3223 17.0449C11.8867 16.4473 12.1855 15.5508 12.1855 14.3887C12.1855 13.8574 12.0859 13.3594 11.8867 12.8613H13.082C13.8789 12.8613 14.543 12.5625 15.1074 11.998C15.6387 11.4004 15.9375 10.7363 15.9375 10.0059C15.9375 9.4082 15.7715 8.87695 15.4727 8.3457ZM13.4473 6.55273C13.7793 6.88477 13.9453 7.25 13.9453 7.68164C13.9453 8.11328 13.8457 8.47852 13.6133 8.74414C13.7461 8.74414 13.9121 8.87695 14.0781 9.14258C14.2441 9.4082 14.3438 9.67383 14.3438 10.0059C14.3438 10.3047 14.2109 10.6035 13.9785 10.8691C13.7129 11.1348 13.4141 11.2676 13.082 11.2676H9.62891C9.62891 11.5332 9.66211 11.7988 9.79492 12.0977C9.82812 12.2305 9.92773 12.4629 10.0938 12.7949C10.2266 13.0938 10.3594 13.3262 10.4258 13.5254C10.5254 13.791 10.5918 14.0898 10.5918 14.3887C10.5918 14.9531 10.5254 15.3848 10.3926 15.6504C10.127 16.0488 9.66211 16.2812 8.99805 16.2812C8.86523 16.1484 8.76562 15.9492 8.69922 15.7168C8.63281 15.584 8.59961 15.3516 8.5332 15.0195C8.43359 14.5547 8.36719 14.2227 8.30078 14.0234C8.16797 13.6582 7.96875 13.3594 7.73633 13.127C7.53711 12.9277 7.23828 12.5293 6.77344 11.9316C6.27539 11.2676 5.91016 10.8027 5.67773 10.5703C5.24609 10.1055 4.88086 9.90625 4.61523 9.90625H4.25V3.73047C4.61523 3.73047 5.01367 3.66406 5.47852 3.56445C5.74414 3.49805 6.14258 3.36523 6.67383 3.16602C7.33789 2.93359 7.83594 2.76758 8.20117 2.70117C8.79883 2.53516 9.36328 2.46875 9.96094 2.46875H11.1895C11.8203 2.46875 12.2852 2.63477 12.6172 2.9668C12.9492 3.29883 13.082 3.86328 12.9824 4.66016C13.248 4.79297 13.4141 5.05859 13.5469 5.45703C13.6465 5.85547 13.6133 6.2207 13.4473 6.55273ZM2.92188 3.53125C2.92188 3.73047 2.82227 3.92969 2.68945 4.0957C2.52344 4.22852 2.32422 4.32812 2.125 4.32812C1.89258 4.32812 1.69336 4.22852 1.56055 4.0957C1.39453 3.92969 1.32812 3.73047 1.32812 3.53125C1.32812 3.29883 1.39453 3.09961 1.56055 2.9668C1.69336 2.80078 1.89258 2.73438 2.125 2.73438C2.32422 2.73438 2.52344 2.80078 2.68945 2.9668C2.82227 3.09961 2.92188 3.29883 2.92188 3.53125Z" fill="#E85454"/>
</svg>
