<svg width="24" height="25" viewBox="0 0 24 25" fill="none" xmlns="http://www.w3.org/2000/svg">
<path d="M16.7239 0.47229H7.09611C3.1833 0.47229 0 3.63051 0 7.5125V17.0645C0 20.9464 3.1833 24.1047 7.09611 24.1047H16.7239C20.6367 24.1047 23.82 20.9464 23.82 17.0645V7.5125C23.82 3.63051 20.6367 0.47229 16.7239 0.47229ZM21.4237 17.0645C21.4237 19.6396 19.3195 21.7273 16.7239 21.7273H7.09611C4.50049 21.7273 2.39629 19.6396 2.39629 17.0645V7.5125C2.39629 4.93729 4.50049 2.84971 7.09611 2.84971H16.7239C19.3195 2.84971 21.4237 4.93729 21.4237 7.5125V17.0645Z" fill="url(#paint0_linear)"/>
<path d="M11.9097 6.17633C8.51271 6.17633 5.74902 8.91825 5.74902 12.2885C5.74902 15.6587 8.51271 18.4006 11.9097 18.4006C15.3067 18.4006 18.0704 15.6587 18.0704 12.2885C18.0704 8.9182 15.3067 6.17633 11.9097 6.17633ZM11.9097 16.0233C9.83068 16.0233 8.14531 14.3512 8.14531 12.2885C8.14531 10.2258 9.83072 8.55375 11.9097 8.55375C13.9888 8.55375 15.6741 10.2258 15.6741 12.2885C15.6741 14.3511 13.9887 16.0233 11.9097 16.0233Z" fill="url(#paint1_linear)"/>
<path d="M18.0827 7.68683C18.898 7.68683 19.5589 7.03111 19.5589 6.22223C19.5589 5.41335 18.898 4.75763 18.0827 4.75763C17.2674 4.75763 16.6064 5.41335 16.6064 6.22223C16.6064 7.03111 17.2674 7.68683 18.0827 7.68683Z" fill="url(#paint2_linear)"/>
<defs>
<linearGradient id="paint0_linear" x1="11.91" y1="24.0359" x2="11.91" y2="0.655847" gradientUnits="userSpaceOnUse">
<stop stop-color="#E09B3D"/>
<stop offset="0.3" stop-color="#C74C4D"/>
<stop offset="0.6" stop-color="#C21975"/>
<stop offset="1" stop-color="#7024C4"/>
</linearGradient>
<linearGradient id="paint1_linear" x1="11.9097" y1="24.0359" x2="11.9097" y2="0.655874" gradientUnits="userSpaceOnUse">
<stop stop-color="#E09B3D"/>
<stop offset="0.3" stop-color="#C74C4D"/>
<stop offset="0.6" stop-color="#C21975"/>
<stop offset="1" stop-color="#7024C4"/>
</linearGradient>
<linearGradient id="paint2_linear" x1="18.0827" y1="24.0359" x2="18.0827" y2="0.655886" gradientUnits="userSpaceOnUse">
<stop stop-color="#E09B3D"/>
<stop offset="0.3" stop-color="#C74C4D"/>
<stop offset="0.6" stop-color="#C21975"/>
<stop offset="1" stop-color="#7024C4"/>
</linearGradient>
</defs>
</svg>
