<svg width="16" height="18" viewBox="0 0 16 18" fill="none" xmlns="http://www.w3.org/2000/svg">
<path d="M15.4727 9.6543C15.6055 10.3848 15.5059 11.082 15.1738 11.7461C15.207 12.1445 15.1738 12.5098 15.0742 12.9082C14.9746 13.3066 14.8086 13.6719 14.6094 13.9707C14.5762 14.9668 14.2773 15.6973 13.6797 16.2285C13.0156 16.8262 12.0859 17.125 10.8574 17.125H10.127C9.19727 17.125 8.33398 17.0254 7.57031 16.8262C7.10547 16.7266 6.57422 16.5273 5.91016 16.2617C5.51172 16.1289 5.21289 15.9961 5.04688 15.9297C4.74805 15.8633 4.48242 15.7969 4.2168 15.7969C4.15039 16.0293 4.01758 16.2285 3.81836 16.3613C3.61914 16.5273 3.41992 16.5938 3.1875 16.5938H1.0625C0.763672 16.5938 0.498047 16.4941 0.298828 16.2949C0.0996094 16.0957 0 15.8301 0 15.5312V7.5625C0 7.29688 0.0996094 7.03125 0.298828 6.83203C0.498047 6.63281 0.763672 6.5 1.0625 6.5H4.34961C4.54883 6.30078 4.94727 5.86914 5.47852 5.17188C6.00977 4.47461 6.375 4.00977 6.64062 3.74414C6.70703 3.67773 6.80664 3.3457 6.93945 2.78125C7.13867 1.98438 7.33789 1.41992 7.53711 1.05469C7.86914 0.457031 8.36719 0.125 8.99805 0.125C9.99414 0.125 10.7578 0.423828 11.3223 0.955078C11.8867 1.55273 12.1855 2.44922 12.1855 3.61133C12.1855 4.14258 12.0859 4.64062 11.8867 5.13867H13.082C13.8789 5.13867 14.543 5.4375 15.1074 6.00195C15.6387 6.59961 15.9375 7.26367 15.9375 7.99414C15.9375 8.5918 15.7715 9.12305 15.4727 9.6543ZM13.4473 11.4473C13.7793 11.1152 13.9453 10.75 13.9453 10.3184C13.9453 9.88672 13.8457 9.52148 13.6133 9.25586C13.7461 9.25586 13.9121 9.12305 14.0781 8.85742C14.2441 8.5918 14.3438 8.32617 14.3438 7.99414C14.3438 7.69531 14.2109 7.39648 13.9785 7.13086C13.7129 6.86523 13.4141 6.73242 13.082 6.73242H9.62891C9.62891 6.4668 9.66211 6.20117 9.79492 5.90234C9.82812 5.76953 9.92773 5.53711 10.0938 5.20508C10.2266 4.90625 10.3594 4.67383 10.4258 4.47461C10.5254 4.20898 10.5918 3.91016 10.5918 3.61133C10.5918 3.04688 10.5254 2.61523 10.3926 2.34961C10.127 1.95117 9.66211 1.71875 8.99805 1.71875C8.86523 1.85156 8.76562 2.05078 8.69922 2.2832C8.63281 2.41602 8.59961 2.64844 8.5332 2.98047C8.43359 3.44531 8.36719 3.77734 8.30078 3.97656C8.16797 4.3418 7.96875 4.64062 7.73633 4.87305C7.53711 5.07227 7.23828 5.4707 6.77344 6.06836C6.27539 6.73242 5.91016 7.19727 5.67773 7.42969C5.24609 7.89453 4.88086 8.09375 4.61523 8.09375H4.25V14.2695C4.61523 14.2695 5.01367 14.3359 5.47852 14.4355C5.74414 14.502 6.14258 14.6348 6.67383 14.834C7.33789 15.0664 7.83594 15.2324 8.20117 15.2988C8.79883 15.4648 9.36328 15.5312 9.96094 15.5312H11.1895C11.8203 15.5312 12.2852 15.3652 12.6172 15.0332C12.9492 14.7012 13.082 14.1367 12.9824 13.3398C13.248 13.207 13.4141 12.9414 13.5469 12.543C13.6465 12.1445 13.6133 11.7793 13.4473 11.4473ZM2.92188 14.4688C2.92188 14.2695 2.82227 14.0703 2.68945 13.9043C2.52344 13.7715 2.32422 13.6719 2.125 13.6719C1.89258 13.6719 1.69336 13.7715 1.56055 13.9043C1.39453 14.0703 1.32812 14.2695 1.32812 14.4688C1.32812 14.7012 1.39453 14.9004 1.56055 15.0332C1.69336 15.1992 1.89258 15.2656 2.125 15.2656C2.32422 15.2656 2.52344 15.1992 2.68945 15.0332C2.82227 14.9004 2.92188 14.7012 2.92188 14.4688Z" fill="#51A054"/>
</svg>
