<svg width="28" height="16" viewBox="0 0 28 16" fill="none" xmlns="http://www.w3.org/2000/svg">
<path fill-rule="evenodd" clip-rule="evenodd" d="M15.609 15.8863C15.609 15.8863 16.0976 15.8335 16.3478 15.5717C16.5769 15.3319 16.5689 14.8793 16.5689 14.8793C16.5689 14.8793 16.5385 12.7659 17.546 12.4539C18.5391 12.147 19.8141 14.4976 21.1673 15.4015C22.1894 16.0849 22.9653 15.9353 22.9653 15.9353L26.5812 15.8863C26.5812 15.8863 28.4719 15.7729 27.5755 14.3249C27.5014 14.2062 27.0526 13.2533 24.8878 11.296C22.6197 9.24711 22.9242 9.57849 25.6544 6.03387C27.3174 3.87538 27.982 2.55759 27.7742 1.99411C27.5769 1.45513 26.3535 1.59826 26.3535 1.59826L22.2834 1.62276C22.2834 1.62276 21.9815 1.58278 21.7578 1.71302C21.5393 1.84067 21.3976 2.13852 21.3976 2.13852C21.3976 2.13852 20.7542 3.80833 19.8949 5.22927C18.0823 8.22589 17.358 8.38449 17.0615 8.19881C16.3716 7.76428 16.5438 6.45551 16.5438 5.52584C16.5438 2.62077 16.9966 1.41 15.6633 1.09667C15.2211 0.992228 14.8953 0.923889 13.7633 0.912284C12.3109 0.8981 11.0822 0.917441 10.3857 1.24882C9.92231 1.46931 9.56482 1.96187 9.78328 1.99024C10.0521 2.02506 10.6611 2.15013 10.9842 2.57822C11.4012 3.13138 11.3867 4.3718 11.3867 4.3718C11.3867 4.3718 11.6263 7.79135 10.8266 8.21557C10.2785 8.50698 9.52642 7.91256 7.90979 5.19317C7.08227 3.80059 6.45733 2.26102 6.45733 2.26102C6.45733 2.26102 6.33684 1.97348 6.12103 1.81875C5.8602 1.63178 5.49609 1.57376 5.49609 1.57376L1.62861 1.59826C1.62861 1.59826 1.04736 1.61373 0.834192 1.86001C0.644857 2.07792 0.819628 2.53051 0.819628 2.53051C0.819628 2.53051 3.84768 9.43021 7.2769 12.9078C10.4215 16.0952 13.991 15.8863 13.991 15.8863H15.609Z" fill="#4D76A1"/>
</svg>
