<svg width="24" height="24" viewBox="0 0 24 24" fill="none" xmlns="http://www.w3.org/2000/svg">
<path d="M12.003 0H11.997C5.3805 0 0 5.382 0 12C0 14.625 0.846 17.058 2.2845 19.0335L0.789 23.4915L5.4015 22.017C7.299 23.274 9.5625 24 12.003 24C18.6195 24 24 18.6165 24 12C24 5.3835 18.6195 0 12.003 0Z" fill="#4CAF50"/>
<path d="M18.9848 16.9456C18.6953 17.7631 17.5463 18.4411 16.6298 18.6391C16.0028 18.7726 15.1838 18.8791 12.4268 17.7361C8.90034 16.2751 6.62934 12.6916 6.45234 12.4591C6.28284 12.2266 5.02734 10.5616 5.02734 8.83956C5.02734 7.11756 5.90184 6.27906 6.25434 5.91906C6.54384 5.62356 7.02234 5.48856 7.48134 5.48856C7.62984 5.48856 7.76334 5.49606 7.88334 5.50206C8.23584 5.51706 8.41284 5.53806 8.64534 6.09456C8.93484 6.79206 9.63984 8.51406 9.72384 8.69106C9.80934 8.86806 9.89485 9.10806 9.77484 9.34056C9.66234 9.58056 9.56334 9.68706 9.38634 9.89106C9.20934 10.0951 9.04134 10.2511 8.86434 10.4701C8.70234 10.6606 8.51934 10.8646 8.72334 11.2171C8.92734 11.5621 9.63234 12.7126 10.6703 13.6366C12.0098 14.8291 13.0958 15.2101 13.4843 15.3721C13.7738 15.4921 14.1188 15.4636 14.3303 15.2386C14.5988 14.9491 14.9303 14.4691 15.2678 13.9966C15.5078 13.6576 15.8108 13.6156 16.1288 13.7356C16.4528 13.8481 18.1673 14.6956 18.5198 14.8711C18.8723 15.0481 19.1048 15.1321 19.1903 15.2806C19.2743 15.4291 19.2743 16.1266 18.9848 16.9456Z" fill="#FAFAFA"/>
</svg>
