<svg width="30" height="21" viewBox="0 0 30 21" fill="none" xmlns="http://www.w3.org/2000/svg">
<path d="M28.4165 3.56311C28.0819 2.33619 27.102 1.3688 25.8592 1.03848C23.5888 0.448608 14.507 0.448608 14.507 0.448608C14.507 0.448608 5.42518 0.448608 3.15473 1.03848C1.91196 1.3688 0.93208 2.33619 0.597487 3.56311C0 5.80461 0 10.4528 0 10.4528C0 10.4528 0 15.1245 0.597487 17.3424C0.93208 18.5693 1.91196 19.5367 3.15473 19.867C5.42518 20.4569 14.507 20.4569 14.507 20.4569C14.507 20.4569 23.5888 20.4569 25.8592 19.867C27.102 19.5367 28.0819 18.5693 28.4165 17.3424C29.014 15.1009 29.014 10.4528 29.014 10.4528C29.014 10.4528 29.014 5.80461 28.4165 3.56311Z" fill="#FF0000"/>
<path d="M11.5918 14.7706L19.144 10.4764L11.5918 6.15857V14.7706Z" fill="white"/>
</svg>
