<svg width="27" height="27" viewBox="0 0 27 27" fill="none" xmlns="http://www.w3.org/2000/svg">
<g clip-path="url(#clip0)">
<path d="M12.21 13.4099L0.259158 25.3608C-0.0728574 25.6928 -0.0728574 26.2307 0.259158 26.5627C0.424955 26.7289 0.642643 26.8116 0.859908 26.8116C1.0776 26.8116 1.29486 26.7289 1.46066 26.5627L13.5014 14.522L25.5421 26.5627C25.7083 26.7289 25.9256 26.8116 26.1429 26.8116C26.3601 26.8116 26.5778 26.7289 26.7436 26.5627C27.0756 26.2307 27.0756 25.6928 26.7436 25.3608L14.7932 13.4099L26.7516 1.45062C27.0837 1.1186 27.0837 0.580711 26.7516 0.248695C26.4196 -0.0828984 25.8817 -0.0828984 25.5501 0.248695L13.5018 12.2979L1.45222 0.249117C1.12021 -0.0824766 0.582736 -0.0824766 0.250721 0.249117C-0.0812949 0.581133 -0.0812949 1.11902 0.250721 1.45104L12.21 13.4099Z" fill="#2f303e" />
</g>
<defs>
<clipPath id="clip0">
<rect width="27" height="27" fill="white"/>
</clipPath>
</defs>
</svg>
