<svg width="70" height="82" viewBox="0 0 70 82" fill="none" xmlns="http://www.w3.org/2000/svg">
<path d="M69.7133 56.969C69.428 56.55 68.9641 56.2704 68.4433 56.2036C61.5932 55.3538 56.7653 49.3911 57.6601 42.8854C58.2921 38.29 61.6804 34.4632 66.3389 33.0832C67.285 32.7952 67.8062 31.8335 67.503 30.935C67.4558 30.7952 67.3898 30.6616 67.3067 30.5377C64.1632 25.1497 58.5737 21.4442 52.1646 20.4996C48.9349 20.646 45.752 21.2935 42.7426 22.4164C40.5812 23.2424 38.2988 23.7484 35.9756 23.9162C33.6523 23.7484 31.3699 23.2424 29.2085 22.4164C26.1991 21.2935 23.0162 20.646 19.7865 20.4996C13.0699 20.4996 0 29.5434 0 46.1244C0 61.8819 12.1021 81.9991 21.5854 81.9991C25.2038 82.0299 28.7787 81.2478 32.0183 79.7168C33.2384 79.0777 34.587 78.6911 35.9757 78.5824C37.3643 78.6911 38.713 79.0777 39.9331 79.7168C43.1728 81.2478 46.7477 82.0299 50.3661 81.9991C57.885 81.9991 66.3716 69.7402 69.926 58.38C70.0747 57.9029 69.9971 57.3875 69.7133 56.969Z" fill="#37474F"/>
<path d="M34.1668 20.4999C45.0897 20.4885 53.9416 12.082 53.9534 1.70838C53.9534 0.764902 53.1481 0 52.1547 0C41.2318 0.011371 32.38 8.41793 32.3682 18.7915C32.368 19.735 33.1734 20.4999 34.1668 20.4999Z" fill="#37474F"/>
</svg>
