<svg width="149" height="149" viewBox="0 0 149 149" fill="none" xmlns="http://www.w3.org/2000/svg">
<g clip-path="url(#clip0)">
<path d="M14.0063 69.2214L0.0482739 90.8328C-0.080064 91.0313 0.0625336 91.2932 0.298838 91.2932H9.40064C9.50163 91.2932 9.59591 91.242 9.65092 91.1573L23.0961 70.4547C23.2175 70.2679 23.0987 70.0188 22.8773 69.9955L14.288 69.0866C14.1762 69.0747 14.0671 69.1268 14.0063 69.2214Z" fill="#0964AF"/>
<path d="M16.4747 65.8935C16.241 65.8935 16.0981 65.6374 16.2206 65.4383C17.0497 64.0941 19.4765 60.1794 20.1688 59.2804C20.972 58.1795 22.0369 57.7101 23.1555 57.7101H36.166C36.3307 57.7101 36.4643 57.8437 36.4643 58.0084V63.4239C36.4643 63.7507 36.915 63.8418 37.0373 63.5386C37.3906 62.662 37.8996 61.6388 38.5442 60.973C39.7868 59.6832 41.445 57.8963 45.2311 57.6571C45.239 57.6565 45.2468 57.6562 45.2547 57.6562H72.8435C73.0083 57.6562 73.1418 57.7898 73.1418 57.9545V65.5946C73.1418 65.7593 73.0083 65.8929 72.8435 65.8929H16.4747V65.8935Z" fill="#0964AF"/>
<path d="M149 65.5749V57.9282C149 57.7635 148.867 57.6299 148.702 57.6299H119.162C119.154 57.6299 119.146 57.6302 119.138 57.6308C114.863 57.9017 111.645 60.5211 110.389 65.166C110.382 65.1913 110.379 65.2161 110.379 65.2423V65.5688C110.379 65.7335 110.512 65.8671 110.677 65.8671L148.702 65.8735C148.867 65.8732 149 65.7396 149 65.5749Z" fill="#0964AF"/>
<path d="M82.6404 65.867H74.8959C74.7312 65.867 74.5977 65.7334 74.5977 65.5687V57.9682C74.5977 57.8035 74.7312 57.6699 74.8959 57.6699H82.6404C82.8052 57.6699 82.9387 57.8035 82.9387 57.9682V65.5687C82.939 65.7334 82.8054 65.867 82.6404 65.867Z" fill="#0964AF"/>
<path d="M110.02 65.867H102.283C102.118 65.867 101.984 65.7334 101.984 65.5687V57.9682C101.984 57.8035 102.118 57.6699 102.283 57.6699H110.02C110.184 57.6699 110.318 57.8035 110.318 57.9682V65.5687C110.318 65.7334 110.184 65.867 110.02 65.867Z" fill="#0964AF"/>
<path d="M110.037 71.5119L102.439 71.0626C102.268 71.0524 102.123 71.1886 102.123 71.3606V80.5541C102.123 80.5541 102.099 83.2934 99.4224 83.2934H85.3559C85.3448 83.2934 85.3355 83.2931 85.3245 83.2919C85.1158 83.2695 82.9562 82.9788 82.9562 80.5794V70.0309C82.9562 69.8744 82.8351 69.7446 82.6791 69.7332L74.9992 69.1844C74.8264 69.1721 74.6797 69.3089 74.6797 69.4821V83.7139C74.6797 83.7346 74.6817 83.7555 74.6855 83.7759C76.0355 90.7431 82.4 91.2797 82.4 91.2797C82.4 91.2797 83.0138 91.3208 83.1465 91.3321C83.1547 91.3327 83.1608 91.333 83.1689 91.333H102.164C102.173 91.333 102.181 91.3327 102.191 91.3318C102.563 91.2978 110.317 90.4989 110.317 82.9532V71.8099C110.317 71.6519 110.194 71.5212 110.037 71.5119Z" fill="#0964AF"/>
<path d="M28.2944 91.2977H66.9765C66.9977 91.2977 67.0195 91.2956 67.0402 91.2913C73.8054 89.9299 74.5132 83.8445 74.5132 83.8445C74.8153 82.1289 74.6648 80.7236 74.6476 80.5767C74.6468 80.5685 74.6459 80.5618 74.6444 80.5537C74.4288 79.3116 72.0786 73.9398 66.9936 73.4715C64.1702 73.2116 40.6361 71.3593 37.2856 71.096C37.0868 71.0802 36.9277 71.2615 36.9725 71.4559C37.5333 73.8816 38.6726 75.1417 39.4426 75.8782C41.2484 77.5938 44.0805 78.1281 44.2988 78.167C44.3078 78.1685 44.3133 78.1694 44.3224 78.1703C45.2024 78.2512 65.1687 79.8861 65.1687 79.8861C65.8101 79.9195 67.0259 80.0802 67.0114 81.6543C67.0114 81.8443 66.8359 83.2325 65.2903 83.2325H36.4056C36.2409 83.2325 36.1073 83.0989 36.1073 82.9342V71.2746C36.1073 71.1181 35.9865 70.9883 35.8305 70.9769L28.3159 70.4324C28.1431 70.4199 27.9961 70.5567 27.9961 70.7301V91C27.9961 91.1641 28.1297 91.2977 28.2944 91.2977Z" fill="#0964AF"/>
<path d="M110.395 83.4796C110.396 83.3152 110.529 83.1819 110.694 83.1819H139.378C139.902 83.1819 140.669 82.8854 140.799 82.7605C141.085 82.4858 141.311 82.0132 141.311 81.558C141.311 79.9874 140.003 79.9193 139.346 79.8859C139.346 79.8859 119.147 78.2178 118.284 78.1485C118.276 78.1479 118.271 78.147 118.262 78.1456C118.055 78.1118 115.379 77.6468 113.57 75.9237C112.795 75.1961 111.782 74.4055 110.991 71.9682C110.926 71.7677 111.081 71.5625 111.292 71.5747C114.77 71.7782 138.305 73.1587 141.103 73.4177C146.21 73.9014 148.601 78.9005 148.817 80.5639C148.817 80.5639 149.036 82.0673 148.77 83.9132C148.77 83.9132 147.714 90.934 140.237 91.3688C140.229 91.3691 140.221 91.3693 140.214 91.3693H110.677C110.512 91.3693 110.378 91.2355 110.379 91.0702L110.395 83.4796Z" fill="#0964AF"/>
<path d="M6.05455 90.8331L19.7279 69.6623L14.2883 69.0866C14.1762 69.0747 14.0674 69.1271 14.0063 69.2214L0.0482739 90.8331C-0.080064 91.0316 0.0625336 91.2932 0.298838 91.2932H6.30511C6.06881 91.2935 5.92621 91.0318 6.05455 90.8331Z" fill="#004F9C"/>
<path d="M116.385 65.5356C116.385 65.5085 116.388 65.4826 116.395 65.4565C117.713 60.3951 121.092 57.8976 125.144 57.6308C125.152 57.6302 125.16 57.6299 125.168 57.6299H119.162C119.154 57.6299 119.146 57.6302 119.138 57.6308C114.863 57.9017 111.644 60.5211 110.389 65.166C110.382 65.1913 110.379 65.2161 110.379 65.2423V65.5688C110.379 65.7335 110.512 65.8671 110.677 65.8671L116.385 65.868V65.5356Z" fill="#004F9C"/>
<path d="M80.6039 65.569V57.9682C80.6039 57.8035 80.7375 57.6699 80.9022 57.6699H74.8959C74.7312 57.6699 74.5977 57.8035 74.5977 57.9682V65.569C74.5977 65.7337 74.7312 65.8673 74.8959 65.8673H80.9022C80.7375 65.8673 80.6039 65.7337 80.6039 65.569Z" fill="#004F9C"/>
<path d="M107.991 65.569V57.9682C107.991 57.8035 108.124 57.6699 108.289 57.6699H102.283C102.118 57.6699 101.984 57.8035 101.984 57.9682V65.569C101.984 65.7337 102.118 65.8673 102.283 65.8673H108.289C108.124 65.8673 107.991 65.7337 107.991 65.569Z" fill="#004F9C"/>
<path d="M108.129 80.5535V71.3988L102.439 71.0621C102.267 71.0519 102.123 71.1884 102.123 71.3601V80.5535C102.123 80.5535 102.098 83.2929 99.4219 83.2929H105.428C108.104 83.2929 108.129 80.5535 108.129 80.5535Z" fill="#004F9C"/>
<path d="M88.4063 91.2797C88.4063 91.2797 82.0418 90.7431 80.6918 83.7759C80.688 83.7555 80.686 83.7346 80.686 83.7139V69.5909L74.9992 69.1844C74.8264 69.1721 74.6797 69.3089 74.6797 69.4821V83.7139C74.6797 83.7346 74.6817 83.7555 74.6855 83.7759C76.0355 90.7431 82.4 91.2797 82.4 91.2797C82.4 91.2797 83.0138 91.3207 83.1465 91.3321C83.1546 91.3327 83.1608 91.333 83.1689 91.333H89.1752C89.167 91.333 89.1609 91.3327 89.1528 91.3321C89.0201 91.3207 88.4063 91.2797 88.4063 91.2797Z" fill="#004F9C"/>
<path d="M34.0024 90.9997V70.8445L28.3159 70.4324C28.1431 70.4199 27.9961 70.5567 27.9961 70.7301V91C27.9961 91.1647 28.1297 91.2983 28.2944 91.2983H34.3007C34.1359 91.298 34.0024 91.1644 34.0024 90.9997Z" fill="#004F9C"/>
<path d="M116.385 91.0712L116.402 83.4803C116.402 83.3159 116.536 83.1826 116.7 83.1826H110.694C110.529 83.1826 110.396 83.3159 110.395 83.4803L110.379 91.0712C110.379 91.2362 110.512 91.3701 110.677 91.3701H116.683C116.518 91.3701 116.385 91.2362 116.385 91.0712Z" fill="#004F9C"/>
<path d="M45.255 57.6299C45.2471 57.6299 45.2393 57.6302 45.2314 57.6308C44.1491 57.6991 43.2455 57.8967 42.4711 58.1703V58.2011C40.5373 58.8839 39.4315 60.0529 38.5447 60.9734C37.9001 61.6392 37.3911 62.6624 37.0379 63.5389C36.9156 63.8422 36.4651 63.7514 36.4648 63.4246L36.468 65.8938H42.9312C42.4545 63.7013 44.1692 61.4055 44.1762 61.3962C44.2961 61.2353 44.42 61.0822 44.551 60.9469C45.7936 59.6571 47.4518 57.8703 51.238 57.631C51.2458 57.6305 51.2537 57.6302 51.2615 57.6302L45.255 57.6299Z" fill="#004F9C"/>
<path d="M20.169 59.2539C19.4766 60.1529 17.0499 64.0679 16.2208 65.4118C16.098 65.6106 16.2411 65.867 16.4748 65.867H22.4811C22.2474 65.867 22.1045 65.6106 22.227 65.4118C23.0561 64.0676 25.4829 60.1529 26.1749 59.2539C26.9782 58.153 28.043 57.6836 29.1616 57.6836H23.156C22.037 57.6833 20.9725 58.153 20.169 59.2539Z" fill="#004F9C"/>
<path d="M39.4429 75.8786C41.2486 77.5942 44.0808 78.1282 44.2991 78.1675C44.3081 78.1689 44.3136 78.1698 44.3226 78.1707C44.6259 78.1986 47.195 78.4111 50.4328 78.6773C44.795 76.0818 43.8611 71.6147 43.8611 71.6147C40.6986 71.365 38.2151 71.1694 37.2856 71.0967C37.0868 71.0809 36.9276 71.262 36.9725 71.4564C37.5335 73.8817 38.6729 75.1421 39.4429 75.8786Z" fill="#004F9C"/>
<path d="M113.57 75.924C115.379 77.6471 118.055 78.1121 118.263 78.1459C118.271 78.1473 118.277 78.1482 118.285 78.1488C118.541 78.1694 120.498 78.3304 123.124 78.5472C118.202 75.8986 117.265 71.9266 117.265 71.9266C114.411 71.7575 112.187 71.6274 111.292 71.5747C111.081 71.5625 110.927 71.7677 110.992 71.9682C111.782 74.4057 112.796 75.1964 113.57 75.924Z" fill="#004F9C"/>
</g>
<defs>
<clipPath id="clip0">
<rect width="149" height="149" fill="white"/>
</clipPath>
</defs>
</svg>
