<svg width="157" height="37" viewBox="0 0 157 37" fill="none" xmlns="http://www.w3.org/2000/svg">
<path d="M25.8028 16.6559C25.5295 17.1231 26.0113 17.6803 26.4411 17.3937L37.3703 10.1064C37.6066 9.94878 37.6765 9.59724 37.5144 9.34968C34.138 4.19686 27.9815 0.679565 20.3875 0.679565C9.31997 0.67989 0.349121 8.77007 0.349121 18.7502C0.349121 28.7656 9.35569 36.8207 20.3875 36.8207C27.2699 36.8207 33.4322 33.8606 36.9542 28.9313C37.1673 28.6331 36.9982 28.3147 36.8501 27.7793C36.7384 27.3751 36.2667 27.2737 36.031 27.6051C34.679 29.5061 30.8337 34.0328 24.8711 34.0328C19.7632 34.0328 15.1733 30.9678 12.6704 26.3988C5.63132 13.5947 17.1326 -2.82896 30.5062 6.17742C30.7333 6.33044 30.7986 6.66443 30.6536 6.91232L25.8028 16.6559Z" fill="#E85454"/>
<path d="M38.3164 27.1001C38.3164 32.1444 43.0293 36.2332 48.8433 36.2332C53.7024 36.2332 57.7928 33.3768 59.005 29.493L60.6059 35.4541C60.7301 35.9164 61.112 36.2332 61.5455 36.2332H68.9387C69.4788 36.2332 69.8668 35.6546 69.7129 35.0779C69.0184 32.4735 64.1737 14.3029 63.4865 11.7258C63.4865 11.7258 61.0159 4.23572 53.2206 7.39369C49.2246 9.01264 46.815 10.1101 45.4156 10.7953C44.983 11.0072 45.1216 11.7258 45.5942 11.7258H53.362C53.8785 11.7258 54.334 12.1034 54.482 12.6544L56.7402 21.061C54.8111 19.1636 51.9882 17.967 48.843 17.967C43.0589 17.967 38.3164 22.0276 38.3164 27.1001ZM53.0249 21.3956C55.9318 21.3956 58.305 24.0153 58.305 27.2749C58.305 30.6285 55.7831 33.3267 52.7355 33.1457C49.7325 32.9674 47.3309 29.8913 47.8032 26.3935C48.1854 23.5646 50.3776 21.3956 53.0249 21.3956Z" fill="#E85454"/>
<path d="M87.3569 35.2015C87.3569 35.7714 87.7718 36.2334 88.2834 36.2334H95.9978C96.4569 36.2334 96.8293 35.8188 96.8293 35.3075C96.8293 32.6524 96.8293 14.291 96.8293 11.7643C96.7576 8.91949 94.6649 6.63776 92.093 6.63776C89.7662 6.63776 86.4524 8.93801 83.0495 11.0281C82.7225 11.2288 82.3037 11.0394 82.2164 10.6353C81.7203 8.33923 80.0172 6.63808 77.7969 6.63808C75.8486 6.63808 71.1672 9.46077 68.9048 10.9014C68.5516 11.1262 68.6957 11.7259 69.1029 11.7259H72.4567C72.7904 11.7259 73.0608 12.0271 73.0608 12.3985C73.0608 14.6185 73.0608 32.4571 73.0608 35.5628C73.0608 35.9329 73.3304 36.2331 73.6628 36.2331H81.6092C82.0225 36.2331 82.3574 35.8601 82.3574 35.4C82.3574 35.3906 82.3568 13.5678 82.3583 13.5583C83.388 10.6242 87.3569 11.3916 87.3569 14.738C87.3569 21.4582 87.3569 29.294 87.3569 35.2015Z" fill="#E85454"/>
<path d="M113.538 36.8203C121.071 36.8203 127.18 30.0209 127.18 21.6309C127.18 13.2418 121.072 6.44177 113.538 6.44177C104.231 6.44177 97.6757 16.6009 100.579 26.3899C102.373 32.4489 107.497 36.8203 113.538 36.8203ZM111.125 7.9652C112.919 7.9652 114.397 9.47368 114.591 11.4139C120.006 32.0226 119.67 30.6155 119.67 31.1028C119.67 33.2468 118.109 34.9846 116.183 34.9846C114.3 34.9846 112.765 33.3209 112.74 31.2419C111.065 25.0744 111.562 26.9052 107.439 11.7258C107.655 9.81319 109.349 7.9652 111.125 7.9652Z" fill="#E85454"/>
<path d="M147.178 35.2015C147.178 35.7714 147.593 36.2334 148.105 36.2334H155.819C156.278 36.2334 156.651 35.8188 156.651 35.3075C156.651 32.6524 156.651 14.291 156.651 11.7643C156.579 8.91949 154.486 6.63776 151.914 6.63776C149.587 6.63776 146.274 8.93801 142.871 11.0281C142.544 11.2288 142.125 11.0394 142.038 10.6353C141.542 8.33923 139.838 6.63808 137.618 6.63808C135.67 6.63808 130.989 9.46077 128.726 10.9014C128.373 11.1262 128.517 11.7259 128.924 11.7259H132.278C132.612 11.7259 132.882 12.0271 132.882 12.3985C132.882 14.6185 132.882 32.4571 132.882 35.5628C132.882 35.9329 133.152 36.2331 133.484 36.2331H141.431C141.844 36.2331 142.179 35.8601 142.179 35.4C142.179 35.3906 142.178 13.5674 142.18 13.5583C143.209 10.6242 147.178 11.3916 147.178 14.738C147.178 21.4582 147.178 29.294 147.178 35.2015Z" fill="#E85454"/>
</svg>
