<svg width="161" height="59" viewBox="0 0 161 59" fill="none" xmlns="http://www.w3.org/2000/svg">
<path d="M94.9493 18.9743C92.6048 18.5071 90.5409 16.9057 89.502 14.7477C88.0528 11.7376 88.6283 8.22057 90.9537 5.87529C95.1224 1.67092 102.295 3.51308 103.972 9.21878C104.273 10.2444 104.272 12.3769 103.969 13.3957C102.95 16.8288 99.8567 19.1651 96.4122 19.1043C95.923 19.0957 95.2646 19.0371 94.9491 18.9743H94.9493ZM98.0331 14.9515C99.4537 14.3096 100.332 12.9618 100.316 11.4506C100.31 10.9775 100.23 10.3851 100.138 10.134C99.1788 7.5342 95.9242 6.70399 93.9221 8.54844C93.103 9.30308 92.714 10.0647 92.6203 11.0978C92.4766 12.6818 93.3119 14.1559 94.7626 14.8784C95.7205 15.3555 97.0723 15.3857 98.0331 14.9515Z" fill="#47B04B"/>
<path d="M139.305 18.9762C136.96 18.5091 134.896 16.9077 133.857 14.7497C132.408 11.7395 132.984 8.22253 135.309 5.87724C139.478 1.67287 146.651 3.51504 148.327 9.22073C148.629 10.2463 148.628 12.3789 148.325 13.3976C147.305 16.8308 144.212 19.1671 140.768 19.1063C140.279 19.0976 139.62 19.0391 139.305 18.9762H139.305ZM142.389 14.9534C143.809 14.3115 144.688 12.9637 144.671 11.4525C144.666 10.9795 144.586 10.387 144.493 10.136C143.534 7.53615 140.28 6.70594 138.278 8.55039C137.458 9.30504 137.069 10.0667 136.976 11.0998C136.832 12.6838 137.667 14.1578 139.118 14.8804C140.076 15.3574 141.428 15.3876 142.389 14.9534Z" fill="#47B04B"/>
<path d="M21.0748 54.5271C18.2151 53.9169 16.191 53.1523 16.215 52.6913C16.2244 52.5113 16.5179 51.5899 16.8672 50.6438C17.5966 48.668 17.4879 48.6958 20.9055 49.608C23.8619 50.3972 27.6189 50.4251 29.2505 49.6702C30.6539 49.0208 31.7999 47.838 32.3872 46.4328C32.9874 44.9968 33.307 41.4731 32.862 41.1983C32.6771 41.0841 31.3477 41.2182 29.9077 41.4963C27.6898 41.9246 26.9491 41.9523 25.0613 41.6773C22.2359 41.2658 19.8969 40.1023 18.1563 38.2424C15.6409 35.5548 14.7266 32.8226 14.7266 27.9939C14.7266 20.7803 17.4126 16.4731 23.2494 14.3268C24.6793 13.801 25.5819 13.6993 28.9637 13.6825C33.0006 13.6625 34.9394 13.9752 37.5568 15.0682L38.5738 15.4929V29.9471C38.5738 38.3476 38.4541 45.0321 38.288 45.9074C37.5781 49.6484 35.5195 52.4099 32.3643 53.8536C29.5603 55.1365 25.1609 55.399 21.0748 54.5271ZM31.8527 36.9275L32.9798 36.5376L33.0556 27.6362L33.1314 18.7348L32.195 18.4047C29.0198 17.2852 25.352 17.8961 23.1643 19.9088C21.5537 21.3905 20.8426 22.9854 20.4706 25.9506C19.7338 31.8233 21.9167 36.2468 26.095 37.3479C27.2371 37.6489 30.4443 37.4147 31.8527 36.9275Z" fill="black"/>
<path d="M46.5661 42.8301C46.5443 42.7118 46.5547 36.5512 46.5893 29.1398C46.6439 17.4238 46.7095 15.6199 47.0918 15.3224C48.172 14.4819 52.7237 13.6828 56.5027 13.6701C60.7469 13.6559 62.527 14.0616 64.7881 15.5585L66.1774 16.4782L67.7946 15.5901C71.2137 13.7125 75.8858 13.0301 79.2298 13.9199C81.9417 14.6415 83.9516 16.3178 85.1032 18.8184C85.7516 20.2263 85.7649 20.4553 85.8529 31.6485L85.9425 43.0451H83.2453H80.548L80.3587 36.1177C80.2546 32.3077 80.1673 27.5017 80.1647 25.4379C80.159 20.9344 79.733 19.824 77.5973 18.7467C75.1073 17.4906 70.6851 18.092 69.4498 19.8546C69.0359 20.4452 68.9815 21.8319 68.9815 31.784V43.0451H66.3014H63.6213L63.4336 38.0994C63.3303 35.3793 63.2455 30.4957 63.245 27.2469C63.2434 21.5947 63.2162 21.2982 62.5963 20.366C62.2401 19.8302 61.3687 19.0918 60.66 18.7252C59.4984 18.1244 59.0885 18.0714 56.5027 18.1873C54.9249 18.258 53.279 18.458 52.8451 18.6317L52.0562 18.9475V30.9963V43.0451H49.3309C47.8321 43.0451 46.5879 42.9484 46.5661 42.8301H46.5661Z" fill="black"/>
<path d="M93.6525 33.0113V22.9766H96.3411H99.0297L99.1599 27.9223C99.2315 30.6424 99.2306 35.158 99.1577 37.957L99.0256 43.0461H96.3389H93.6523L93.6525 33.0113Z" fill="black"/>
<path d="M106.998 32.3382C106.758 20.1429 106.939 15.6475 107.686 15.2478C107.95 15.1063 109.258 14.7008 110.591 14.3466C114.143 13.4035 120.739 13.3809 123.669 14.3019C126.12 15.0724 128.24 16.8148 129.248 18.8879C129.906 20.2423 129.912 20.3408 129.926 31.5778L129.941 42.9028H127.216H124.491L124.347 32.2946C124.221 22.9525 124.145 21.5782 123.708 20.7799C123.092 19.6562 122.041 18.8114 120.713 18.3735C119.506 17.9752 114.545 18.1453 113.375 18.6251L112.586 18.9485V30.9973V43.0461H109.898H107.209L106.998 32.3382Z" fill="black"/>
<path d="M137.832 33.0113V22.9766H140.514H143.195L143.362 27.9134C143.454 30.6286 143.454 35.1443 143.362 37.9481L143.194 43.0461H140.514H137.833L137.832 33.0113Z" fill="black"/>
</svg>
