<svg width="82" height="82" viewBox="0 0 82 82" fill="none" xmlns="http://www.w3.org/2000/svg">
<path d="M40.9999 0C40.5754 0 40.1527 0.00752733 39.7313 0.0209804C39.384 0.0321913 39.0795 0.25641 38.9607 0.582968L31.1873 21.9471C30.9846 22.5045 31.3973 23.094 31.9905 23.094H38.0744C42.4203 23.094 44.7622 26.4385 43.274 30.5265L33.1342 58.3925C33.0113 58.7303 32.6902 58.955 32.3308 58.955L25.464 58.9537C24.8708 58.9536 24.4581 58.364 24.6611 57.8065L34.926 29.6295C35.1291 29.072 34.7164 28.4823 34.123 28.4823H29.4118C29.0526 28.4823 28.7318 28.7068 28.6088 29.0444L17.9178 58.3913C17.7948 58.7287 17.474 58.9534 17.1147 58.9534L10.2442 58.9528C9.651 58.9528 9.23828 58.3632 9.44119 57.8057L29.3459 3.12016C29.5899 2.44943 28.953 1.79359 28.2744 2.01492C11.8608 7.3691 0 22.7987 0 41.0001C0 60.0937 13.053 76.1375 30.7222 80.6986C31.1505 80.8091 31.5932 80.5797 31.7445 80.1641L52.314 23.6566C52.4368 23.319 52.7578 23.0943 53.1172 23.0943H68.5162C72.8662 23.0943 75.2076 26.4389 73.7204 30.5268L64.6298 55.4961C63.9376 57.3972 61.7158 58.9529 59.6917 58.9529H48.759C48.3996 58.9529 48.0788 59.1776 47.9558 59.5154L40.1918 80.8531C39.99 81.4076 40.3976 81.9998 40.9876 82C40.9916 82 40.9958 82 40.9998 82C63.6434 82 81.9997 63.6434 81.9997 41.0001C81.9999 18.3561 63.6436 0 40.9999 0Z" fill="#579ADD"/>
<path d="M59.0727 29.0228L50.5529 52.399C50.3497 52.9565 50.7626 53.5463 51.3559 53.5463H56.0655C56.4247 53.5463 56.7455 53.3218 56.8685 52.9843L65.3881 29.6082C65.5914 29.0507 65.1785 28.4608 64.5851 28.4608H59.8757C59.5165 28.4608 59.1955 28.6854 59.0727 29.0228Z" fill="#579ADD"/>
</svg>
