<svg width="164" height="33" viewBox="0 0 164 33" fill="none" xmlns="http://www.w3.org/2000/svg">
<path d="M68.7367 7.10571C74.9504 7.10571 79.183 11.2331 79.183 16.9211V31.5648C79.183 31.9443 78.8631 32.252 78.4684 32.252H72.8345C72.4398 32.252 72.1199 31.9443 72.1199 31.5648V18.1792C72.1199 14.9087 69.0958 12.9542 66.1736 12.9542C62.3923 12.9542 60.3497 15.6463 60.3497 18.1792V31.5648C60.3497 31.9443 60.0297 32.252 59.6351 32.252H54.0027C53.6081 32.252 53.2881 31.9443 53.2881 31.5648V8.20771C53.2881 7.82826 53.6081 7.52058 54.0027 7.52058H59.6363C60.031 7.52058 60.351 7.82826 60.351 8.20801L60.3497 11.0643L60.351 11.0631L60.3497 11.0683C62.4077 8.42576 65.7754 7.10571 68.7367 7.10571Z" fill="#579ADD"/>
<path d="M129.881 7.52161H136.381C136.889 7.52161 137.235 8.01809 137.042 8.47022L127.047 31.8194C126.937 32.0769 126.676 32.2451 126.386 32.2451H119.604C119.315 32.2451 119.054 32.0769 118.943 31.8194L108.949 8.47022C108.756 8.01809 109.101 7.52161 109.61 7.52161H116.111C116.412 7.52161 116.68 7.70209 116.783 7.97343L122.325 22.5966C122.553 23.199 123.439 23.199 123.668 22.5966L129.21 7.97343C129.313 7.70209 129.581 7.52161 129.881 7.52161Z" fill="#579ADD"/>
<path d="M50.6624 17.525C50.212 15.0577 49.1877 12.8565 47.6665 11.1554C45.294 8.5061 41.7827 7.10443 37.5072 7.10443C29.7412 7.10443 23.8853 12.6132 23.8853 19.8891C23.8853 27.3539 29.755 32.6726 38.2855 32.6726C42.6969 32.6726 47.1995 30.8173 49.6643 28.5307C49.9814 28.2366 49.9587 27.7432 49.6092 27.4848L46.195 24.9611C45.9468 24.7776 45.6011 24.7708 45.3462 24.946C42.6312 26.8115 40.9685 27.2683 38.3899 27.2683C36.4911 27.2683 34.913 26.8269 33.6718 26.0292C33.198 25.7246 33.2717 25.0326 33.7983 24.8225L50.23 18.2682C50.5352 18.1462 50.7197 17.8379 50.6624 17.525ZM42.3801 16.2592L31.6781 20.5282C31.2153 20.7127 30.7037 20.3927 30.688 19.9113C30.6198 17.8484 31.2518 16.2 32.2028 14.9721C33.4056 13.4192 35.3214 12.5075 37.6353 12.5075C39.873 12.5075 41.636 13.5879 42.7078 15.2508C42.9425 15.6151 42.792 16.095 42.3801 16.2592Z" fill="#579ADD"/>
<path d="M23.212 26.7035V31.5651C23.212 31.9446 22.892 32.2523 22.4974 32.2523H0.714616C0.319991 32.2523 0 31.9446 0 31.5651V0.811521C0 0.432075 0.319991 0.12439 0.714616 0.12439H6.44435C6.83898 0.12439 7.15897 0.432075 7.15897 0.811521V25.3295C7.15897 25.709 7.47896 26.0167 7.87358 26.0167H22.4974C22.892 26.0164 23.212 26.324 23.212 26.7035Z" fill="#579ADD"/>
<path d="M150.225 7.10443C142.447 7.10443 136.354 12.7191 136.354 19.8864C136.354 27.1356 142.406 32.6683 150.13 32.6683C157.907 32.6683 164 27.0524 164 19.8864C164 12.6375 157.949 7.10443 150.225 7.10443ZM150.225 26.8491C146.356 26.8491 143.322 23.7902 143.322 19.8864C143.322 15.7978 146.186 12.9236 150.13 12.9236C154.001 12.9236 157.033 15.9826 157.033 19.8864C157.033 23.8961 154.17 26.8491 150.225 26.8491Z" fill="#579ADD"/>
<path d="M95.8482 7.10443C88.0694 7.10443 81.9771 12.7191 81.9771 19.8864C81.9771 27.1356 88.0277 32.6683 95.7521 32.6683C103.529 32.6683 109.623 27.0524 109.623 19.8864C109.623 12.6375 103.571 7.10443 95.8482 7.10443ZM95.8482 26.8491C91.9775 26.8491 88.9454 23.7902 88.9454 19.8864C88.9454 15.7978 91.8081 12.9236 95.7524 12.9236C99.623 12.9236 102.655 15.9826 102.655 19.8864C102.655 23.8961 99.7922 26.8491 95.8482 26.8491Z" fill="#579ADD"/>
</svg>
