<svg width="380" height="58" viewBox="0 0 380 58" fill="none" xmlns="http://www.w3.org/2000/svg">
<g clip-path="url(#clip0)">
<path fill-rule="evenodd" clip-rule="evenodd" d="M264.981 45.8949L272.632 25.2167C272.632 25.2167 267.021 25.2167 261.41 26.2254L254.27 45.6428H264.981V45.8949ZM263.706 19.921L262.176 23.9558C267.786 22.6949 273.397 22.6949 273.397 22.6949L274.927 18.6602C274.927 18.6602 269.317 18.6602 263.706 19.921Z" fill="black"/>
<path fill-rule="evenodd" clip-rule="evenodd" d="M224.174 41.1044C227.489 41.6087 231.06 42.1131 234.63 42.1131C236.925 42.1131 241.006 41.8609 241.261 38.8348C241.516 37.574 240.241 36.8174 237.945 35.8087C235.65 34.5479 233.865 33.7913 231.825 32.5305C229.784 31.2696 229.019 29 229.529 26.7305C231.57 19.9218 241.516 18.9131 247.382 18.9131C251.462 18.9131 255.288 19.4174 259.113 19.9218L257.838 23.7044C254.268 22.9479 241.261 20.9305 240.751 25.974C240.496 27.2348 241.771 27.9913 243.811 29C246.106 30.2609 248.147 31.0174 250.187 32.2783C252.227 33.5392 252.992 35.8087 252.482 38.0783C250.442 44.887 240.496 45.8957 234.63 45.8957C230.549 45.8957 226.724 45.6435 222.898 44.887L224.174 41.1044Z" fill="black"/>
<path fill-rule="evenodd" clip-rule="evenodd" d="M207.852 45.8949L214.228 28.7471C216.778 21.9384 205.046 24.7123 202.241 32.2775L197.14 45.8949H186.174L192.55 28.7471C195.1 21.9384 183.369 24.7123 180.563 32.2775L175.463 45.8949H164.496L174.442 18.6602C178.013 18.6602 179.798 19.4167 181.328 20.9297C181.838 21.4341 182.348 22.1906 182.348 22.9471C184.389 21.6862 186.174 20.9297 187.449 20.4254C189.744 19.6689 192.55 18.6602 195.865 18.6602C199.436 18.6602 201.221 19.4167 202.751 20.9297C203.261 21.4341 203.771 22.1906 203.771 22.9471C205.812 21.6862 207.597 20.9297 208.872 20.4254C211.167 19.6689 213.973 18.6602 217.288 18.6602C220.859 18.6602 222.644 19.4167 224.174 20.9297C225.704 22.4428 225.704 25.2167 225.194 26.7297L218.308 45.8949H207.852Z" fill="black"/>
<path fill-rule="evenodd" clip-rule="evenodd" d="M116.55 15.6342C122.671 11.8516 130.067 8.57337 137.208 7.3125H137.463H137.718C144.859 8.57337 152.255 11.8516 158.376 15.6342L158.886 16.1386V16.8951C158.886 25.9734 157.356 35.556 153.275 43.8777C149.96 50.1821 144.859 55.7299 137.973 58.2516L137.208 57.9995L136.698 57.7473C129.812 55.4777 124.711 49.9299 121.396 43.3734C117.315 35.3038 115.785 25.7212 115.785 16.6429V15.8864L116.55 15.6342Z" fill="#8A8A8B"/>
<path fill-rule="evenodd" clip-rule="evenodd" d="M117.314 16.6428C123.69 12.608 131.086 9.58194 137.462 8.57324C143.838 9.58194 151.234 12.8602 157.61 16.6428C157.61 37.5732 149.449 52.4515 137.462 56.7385C125.22 52.4515 117.059 37.5732 117.314 16.6428Z" fill="#ED1C24"/>
<path fill-rule="evenodd" clip-rule="evenodd" d="M143.075 24.7121C140.524 27.7382 136.189 28.2425 133.383 28.2425C133.128 28.2425 132.363 28.2425 132.108 28.4947C132.108 28.7469 132.108 28.7469 132.363 28.999C135.679 31.2686 140.014 29.5034 142.31 28.4947C139.759 30.7643 135.424 31.2686 131.598 29.7556C131.088 29.5034 130.833 29.5034 130.578 29.7556C130.578 29.7556 130.323 30.0077 130.578 30.2599C131.598 32.2773 132.363 33.7903 135.169 34.5469C132.108 34.2947 130.068 31.5208 129.558 30.0077C129.558 32.5295 131.853 34.2947 132.873 35.5556C131.598 35.5556 130.323 35.8077 129.813 36.5643C129.558 37.0686 129.558 38.0773 129.048 38.8338C127.518 36.0599 126.497 32.5295 127.518 29.2512C128.283 26.7295 129.813 24.4599 133.128 23.199C132.108 24.2077 131.598 24.9643 130.833 26.2251C130.323 27.2338 131.088 27.7382 131.853 26.2251C132.873 28.999 141.034 27.2338 143.075 24.7121L143.84 24.4599L143.075 24.7121ZM138.229 47.6599C138.229 47.4077 138.484 47.4077 138.739 47.4077C138.994 47.4077 139.249 47.9121 138.994 48.1643C138.739 48.4164 138.229 48.6686 137.974 49.173C137.974 49.4251 137.719 49.4251 137.719 49.6773C137.719 49.173 137.719 48.4164 138.229 47.6599ZM134.403 46.6512C134.659 46.399 134.914 46.399 135.169 46.6512C135.424 46.9034 135.424 47.1556 135.169 47.4077C134.914 47.6599 134.659 47.6599 134.403 47.9121C133.893 48.1643 133.638 48.4164 133.383 48.9208C133.383 48.4164 133.383 47.9121 133.638 47.4077C133.893 47.1556 134.148 46.9034 134.403 46.6512ZM143.33 46.1469H143.585C143.84 46.1469 143.84 46.399 143.84 46.399C143.84 46.6512 143.84 47.1556 144.095 47.4077C144.095 47.6599 144.35 47.6599 144.35 47.6599C144.095 47.6599 143.84 47.4077 143.585 47.1556C143.33 46.9034 143.075 46.6512 143.075 46.399C143.075 46.399 143.075 46.1469 143.33 46.1469ZM131.598 44.3816C131.853 44.3816 132.108 44.3816 132.108 44.6338C132.363 44.886 132.108 45.1382 132.108 45.1382C132.108 45.3903 131.853 45.3903 131.853 45.3903C131.598 45.6425 131.088 45.6425 130.578 45.8947C130.323 46.1469 130.068 46.1469 130.068 46.399C130.068 46.1469 130.323 45.6425 130.323 45.3903C130.833 45.1382 131.088 44.6338 131.598 44.3816ZM147.41 41.8599C147.41 41.6077 147.41 41.6077 147.665 41.6077C147.92 41.6077 148.175 41.8599 148.43 41.8599C148.685 41.8599 148.685 41.8599 148.94 41.8599C148.685 42.1121 148.175 42.1121 147.92 42.1121C147.665 42.1121 147.41 42.1121 147.41 41.8599ZM129.303 40.3469H129.558C129.813 40.3469 130.068 40.599 130.068 40.8512C130.068 41.1034 130.068 41.3556 129.813 41.6077C129.303 41.8599 128.793 42.1121 128.283 42.3643C128.028 42.3643 128.028 42.6164 127.773 42.8686C127.773 42.1121 128.028 41.6077 128.538 41.1034C128.793 40.599 129.048 40.599 129.303 40.3469ZM135.934 37.8251C136.189 37.573 136.699 37.573 137.209 37.573C136.954 37.573 136.444 37.8251 136.189 38.0773C136.189 38.0773 135.934 38.3295 136.189 38.3295C136.444 38.3295 136.444 38.3295 136.699 38.3295C136.954 38.3295 136.699 38.5816 136.699 38.8338C136.699 39.3382 136.444 39.5903 136.189 40.0947V40.3469H136.444C136.699 40.0947 137.209 39.8425 137.464 39.5903C137.464 39.3382 137.719 39.3382 137.719 39.086C137.719 38.8338 137.464 38.8338 137.464 38.8338C137.464 38.5816 137.974 38.5816 137.974 38.3295C138.484 38.0773 139.249 38.0773 139.759 38.5816C139.504 38.5816 139.249 38.3295 138.994 38.3295C138.739 38.3295 138.739 38.3295 138.739 38.5816C138.739 38.8338 138.739 38.8338 138.739 39.086C138.739 39.5903 138.229 40.0947 137.464 40.599C137.209 40.599 136.954 40.8512 136.699 40.8512C136.699 40.8512 136.444 41.1034 136.444 41.3556C136.699 41.3556 136.699 41.3556 136.954 41.3556C137.209 41.3556 137.719 41.3556 137.974 41.3556C138.229 41.3556 138.484 40.8512 138.739 40.8512C139.504 40.599 140.524 40.8512 140.779 41.6077C140.524 41.6077 140.269 41.3556 140.014 41.3556C139.759 41.3556 139.504 41.3556 139.249 41.3556C138.994 41.6077 138.739 41.8599 138.739 41.8599C138.739 41.8599 138.739 42.1121 138.484 42.1121C138.229 42.1121 137.974 41.8599 137.974 42.1121C137.719 42.1121 137.464 42.3643 137.209 42.3643C136.954 42.3643 136.699 42.3643 136.699 42.3643C136.444 42.3643 135.934 42.1121 135.679 42.1121C135.424 42.1121 135.424 42.1121 135.169 42.3643C134.914 42.6164 135.169 42.6164 134.914 42.8686C134.914 42.3643 134.659 41.8599 134.659 41.3556C134.659 40.8512 134.403 40.0947 134.659 39.5903C134.914 39.8425 134.914 40.0947 134.914 40.3469C134.914 40.3469 134.914 40.599 135.169 40.599C135.424 40.599 135.679 40.3469 135.679 40.3469C135.934 40.0947 136.189 39.8425 135.934 39.3382C135.934 39.086 135.679 39.086 135.679 39.086C135.424 38.8338 135.424 38.5816 135.679 38.3295C135.424 38.0773 135.679 38.0773 135.934 37.8251ZM149.45 37.0686L149.706 36.8164C149.961 36.8164 150.216 36.8164 150.471 36.8164C150.216 37.0686 149.961 37.0686 149.706 37.3208C149.706 37.3208 149.45 37.3208 149.45 37.0686ZM149.706 34.0425C149.961 34.0425 149.961 33.7903 150.216 33.7903C150.216 34.0425 149.961 34.2947 149.706 34.2947C149.706 34.5469 149.45 34.0425 149.706 34.0425ZM141.034 31.0164C141.289 32.0251 141.544 32.7816 142.82 33.0338C143.84 33.286 145.37 33.0338 146.39 33.0338C147.41 33.0338 148.175 32.7816 148.94 33.286C149.195 33.5382 149.45 33.7903 149.706 34.0425C149.961 34.2947 149.961 34.799 150.216 35.0512C150.216 35.3034 150.216 35.8077 150.216 36.0599C149.961 36.5643 149.706 36.8164 149.706 37.3208C149.706 37.8251 149.45 38.0773 149.45 38.5816C149.45 39.086 149.195 39.3382 148.94 39.8425C148.685 40.0947 148.43 40.599 148.175 40.8512C147.665 41.3556 147.665 42.1121 147.41 42.6164C147.155 43.1208 147.155 43.6251 147.155 44.1295C147.155 44.6338 146.9 44.886 146.39 45.1382C145.625 45.3903 144.86 45.6425 144.095 45.8947C143.33 46.1469 143.075 46.6512 142.565 46.9034C142.055 47.1556 141.799 47.6599 141.289 47.6599C140.269 47.9121 140.014 46.9034 137.974 47.6599C137.719 47.6599 137.464 47.6599 137.209 47.6599C136.699 47.4077 136.699 46.9034 136.189 46.399C135.679 46.1469 134.914 46.1469 134.403 46.1469C134.148 46.1469 133.893 45.8947 133.893 45.6425C132.618 45.3903 132.618 44.886 132.363 44.6338C131.853 43.8773 130.578 43.6251 130.323 42.8686C130.068 42.1121 130.578 41.6077 130.578 41.1034C130.578 40.3469 130.068 39.8425 128.793 39.8425C129.303 39.086 129.558 38.3295 129.813 37.3208C130.068 37.0686 130.068 36.5643 130.323 36.3121C130.578 36.0599 131.088 36.0599 131.598 35.8077C132.108 35.8077 132.618 35.8077 132.873 35.8077C133.893 36.3121 133.638 37.8251 133.128 38.3295C132.363 39.086 130.578 39.086 130.833 37.573C131.088 37.8251 131.598 38.3295 132.108 37.8251V37.573C132.108 37.3208 131.853 37.0686 131.598 37.0686C131.343 37.0686 131.343 37.0686 131.088 37.0686C130.578 37.3208 130.323 37.573 130.068 37.8251C129.558 38.5816 130.578 39.3382 131.598 39.086C132.618 38.8338 133.128 38.5816 133.638 38.0773C133.638 39.086 133.638 39.8425 133.638 40.8512C133.893 41.6077 133.893 42.3643 134.403 43.1208C134.659 43.6251 135.169 44.3816 135.934 44.6338C136.699 44.886 137.719 44.886 138.484 44.886C140.014 44.886 142.31 44.1295 143.33 43.6251C145.37 42.6164 145.625 41.8599 146.39 40.0947C146.9 39.3382 147.155 38.3295 147.41 37.573C147.665 36.8164 147.92 35.8077 147.92 35.0512C147.92 34.2947 147.665 34.0425 147.41 33.5382C146.645 32.5295 144.86 33.0338 143.075 32.7816C142.82 33.0338 142.82 33.286 143.075 33.5382C143.585 34.0425 144.35 33.7903 145.115 34.0425C142.31 35.3034 139.759 34.0425 138.994 31.773C139.504 32.5295 140.524 34.0425 142.055 33.5382C142.565 33.286 142.31 33.0338 142.055 32.7816C142.055 32.7816 141.799 32.7816 141.799 32.5295C141.289 33.286 140.779 32.0251 141.034 31.0164ZM131.853 30.5121C132.108 30.7643 132.108 31.0164 132.363 31.0164C134.403 32.5295 136.189 32.5295 138.739 32.5295C136.444 33.0338 133.638 32.7816 131.853 31.2686C131.598 31.0164 131.343 30.7643 131.343 30.5121C131.343 30.2599 131.598 30.2599 131.853 30.5121ZM141.289 30.0077C143.33 30.0077 145.37 30.7643 146.135 32.5295C145.88 32.2773 144.86 32.0251 144.35 32.0251C144.35 32.0251 144.095 32.0251 144.095 32.2773C144.095 32.5295 144.095 32.5295 144.35 32.7816C143.33 33.0338 142.31 32.5295 141.799 31.773C142.054 31.773 142.31 32.0251 142.565 32.0251C143.075 32.0251 143.585 31.773 144.095 31.5208C144.35 31.2686 144.095 31.0164 143.84 30.7643C143.075 30.5121 142.31 30.5121 141.289 30.0077ZM143.585 26.4773C143.84 26.2251 144.095 25.973 144.35 25.973C143.075 27.7382 140.269 28.999 138.229 29.5034C137.209 29.7556 134.659 30.0077 133.638 29.5034C133.638 29.5034 133.383 29.2512 133.638 29.2512C133.893 29.2512 134.148 29.2512 134.403 29.2512C134.914 29.2512 135.424 29.2512 135.679 29.2512C136.699 29.2512 137.974 28.999 138.994 28.999C140.524 28.2425 142.055 27.486 143.585 26.4773ZM122.672 20.173C122.927 20.173 123.437 20.173 123.692 20.173C123.947 20.4251 124.202 20.6773 124.457 20.9295C124.457 21.1816 124.712 21.1816 124.457 21.4338H124.202V21.686C124.202 22.1903 124.457 22.6947 124.712 23.199C124.712 23.199 124.712 23.199 124.967 23.4512C124.967 22.9469 124.967 22.4425 125.222 21.9382C125.222 21.9382 125.222 21.686 125.477 21.686C125.732 21.686 125.732 21.9382 125.987 21.686C126.242 21.686 126.242 21.4338 125.987 21.4338C125.987 21.1816 125.732 20.9295 125.477 20.6773C125.987 20.9295 126.497 21.4338 126.497 21.686C126.497 21.9382 126.497 22.1903 126.242 22.4425C126.242 22.4425 125.987 22.4425 125.732 22.4425C125.477 22.6947 125.477 23.199 125.477 23.7034C125.477 23.7034 125.477 23.9556 125.732 23.9556C125.987 23.9556 126.242 23.7034 126.497 23.4512C125.732 24.2077 125.222 24.7121 124.712 25.7208C124.712 25.4686 124.712 25.2164 124.712 24.9643L124.457 24.7121C124.202 24.4599 123.692 24.4599 123.437 24.2077C123.182 23.9556 122.927 23.7034 122.672 23.4512C122.417 23.199 122.162 23.4512 122.162 23.199C122.162 22.9469 122.162 22.9469 122.162 22.6947C122.162 22.4425 122.162 22.1903 121.907 21.9382C121.652 21.686 121.142 21.686 120.887 21.686C121.142 21.686 121.397 21.4338 121.652 21.4338C122.162 21.4338 122.417 21.686 122.672 21.9382C122.927 22.1903 122.927 22.4425 122.927 22.6947C123.182 22.9469 123.182 22.9469 123.437 22.9469C123.692 22.9469 123.947 23.199 124.202 23.199C124.202 22.9469 124.202 22.6947 123.947 22.4425C123.692 22.1903 123.437 21.686 123.437 21.1816C123.437 20.9295 123.437 20.6773 123.692 20.4251C123.692 20.173 123.947 20.173 123.692 19.9208C123.437 20.173 122.927 20.173 122.672 20.173ZM135.424 15.1295C136.444 15.6338 137.464 16.3903 138.484 16.8947C138.229 17.1469 137.974 17.399 137.719 17.399C136.954 17.399 135.679 15.886 135.424 15.1295ZM136.699 13.3643C137.974 15.1295 139.504 16.3903 141.544 17.399C142.055 17.399 142.565 17.6512 143.33 17.6512C143.585 17.6512 144.095 17.399 144.35 17.399C144.86 17.399 145.115 17.6512 145.37 17.9034L145.625 18.1556C145.625 18.6599 145.88 18.9121 146.135 19.4164C146.39 19.6686 146.645 19.6686 147.155 19.6686C147.155 19.9208 147.41 20.173 147.665 20.173C147.92 20.173 148.175 19.9208 148.43 19.9208C148.43 20.173 148.685 20.173 148.685 20.4251C148.685 20.4251 148.94 20.6773 149.195 20.6773C149.706 20.9295 149.961 21.4338 150.216 21.9382C149.961 21.686 149.45 21.1816 149.195 21.1816C149.195 21.9382 149.195 22.9469 148.685 23.199C148.685 22.6947 148.685 22.4425 148.43 21.9382C147.92 22.1903 147.665 22.6947 147.155 22.6947C147.41 22.4425 147.665 22.1903 147.665 21.9382C147.41 21.686 147.155 21.686 146.9 21.9382C146.39 21.9382 146.135 22.1903 145.625 22.6947C145.37 21.9382 145.37 21.686 145.37 21.4338C145.115 21.4338 144.095 21.686 144.35 22.1903C144.86 22.6947 145.37 22.4425 145.88 22.4425C146.135 22.4425 146.39 22.6947 146.39 22.9469C146.39 22.6947 146.39 22.6947 146.39 22.4425C146.9 22.9469 147.155 23.4512 147.41 23.9556C147.92 23.7034 147.92 23.4512 148.175 22.9469C148.43 23.199 148.43 23.4512 148.43 23.7034C148.685 23.7034 148.685 23.4512 148.685 23.4512C148.94 24.2077 148.685 25.4686 147.665 25.7208C147.92 25.2164 147.92 24.7121 147.155 24.7121C146.645 24.7121 145.88 24.9643 145.37 24.9643C145.625 24.9643 146.645 24.2077 146.39 23.9556L146.135 23.7034C145.88 23.7034 145.37 23.4512 145.115 23.4512C144.86 23.4512 144.86 23.4512 144.605 23.7034C143.585 23.199 143.33 23.7034 142.565 23.9556C142.055 23.9556 141.289 23.7034 140.779 23.199C140.014 21.9382 141.034 21.4338 142.055 21.1816C140.779 20.9295 140.269 21.4338 140.014 22.6947C139.504 22.4425 139.249 22.4425 138.484 22.4425C134.403 21.9382 131.088 22.9469 129.303 24.9643C127.518 26.9816 126.242 29.7556 126.242 32.2773C126.242 34.799 127.008 36.5643 128.283 38.8338C126.242 37.3208 125.477 35.0512 124.712 33.7903C124.457 34.0425 124.457 34.5469 124.457 34.799C123.182 33.286 124.967 29.2512 125.732 27.486C125.222 27.7382 124.712 28.2425 124.202 28.7469C124.202 26.4773 126.242 24.2077 128.283 22.4425C127.773 22.4425 127.263 22.6947 126.497 22.9469C128.538 20.9295 132.108 19.6686 135.169 19.6686C134.403 19.4164 133.383 19.4164 132.618 19.1643C135.169 18.6599 136.954 18.6599 138.484 17.399C139.249 17.9034 140.269 18.4077 140.524 18.4077C139.759 17.1469 137.209 14.8773 136.699 13.3643ZM144.095 18.6599C144.35 18.9121 144.35 19.1643 144.605 19.1643C144.86 19.4164 145.115 19.6686 145.625 19.4164C145.625 19.1643 145.625 19.1643 145.37 18.9121H145.115C144.86 18.6599 144.35 18.6599 144.095 18.6599Z" fill="black"/>
<path fill-rule="evenodd" clip-rule="evenodd" d="M143.075 24.4604C140.524 27.4864 136.189 27.9908 133.383 27.9908C133.128 27.9908 132.363 27.9908 132.108 28.243C132.108 28.4951 132.108 28.4951 132.363 28.7473C135.679 31.0169 140.014 29.2517 142.31 28.243C139.759 30.5125 135.424 31.0169 131.598 29.5038C131.088 29.2517 130.833 29.2517 130.578 29.5038C130.578 29.5038 130.323 29.756 130.578 30.0082C131.598 32.0256 132.363 33.5386 135.169 34.2951C132.108 34.043 130.068 31.269 129.558 29.756C129.558 32.2777 131.853 34.043 132.873 35.3038C131.598 35.3038 130.323 35.556 129.813 36.3125C129.558 36.8169 129.558 37.8256 129.048 38.5821C127.518 35.8082 126.497 32.2777 127.518 28.9995C128.283 26.4777 129.813 24.2082 133.128 22.9473C132.108 23.956 131.598 24.7125 130.833 25.9734C130.323 26.9821 131.088 27.4864 131.853 25.9734C132.873 28.7473 141.034 26.9821 143.075 24.4604L143.84 24.2082L143.075 24.4604ZM137.974 47.4082C137.974 47.156 138.229 47.156 138.484 47.156C138.739 47.156 138.994 47.6604 138.739 47.9125C138.484 48.1647 137.974 48.4169 137.719 48.9212C137.719 49.1734 137.464 49.1734 137.464 49.4256C137.464 48.669 137.464 47.9125 137.974 47.4082ZM134.403 46.3995C134.659 46.1473 134.914 46.1473 135.169 46.3995C135.424 46.6517 135.424 46.9038 135.169 47.156C134.914 47.4082 134.659 47.4082 134.403 47.6604C133.893 47.9125 133.638 48.1647 133.383 48.669C133.383 48.1647 133.383 47.6604 133.638 47.156C133.893 46.6517 133.893 46.3995 134.403 46.3995ZM143.075 45.8951H143.33C143.585 45.8951 143.585 46.1473 143.585 46.1473C143.585 46.3995 143.585 46.9038 143.84 47.156C143.84 47.4082 144.095 47.4082 144.095 47.4082C143.84 47.4082 143.585 47.156 143.33 46.9038C143.075 46.6517 142.82 46.3995 142.82 46.1473L143.075 45.8951ZM131.598 44.1299C131.853 44.1299 132.108 44.1299 132.108 44.3821C132.363 44.6343 132.108 44.8864 132.108 44.8864C132.108 45.1386 131.853 45.1386 131.853 45.1386C131.598 45.3908 131.088 45.3908 130.578 45.643C130.323 45.8951 130.068 45.8951 130.068 46.1473C130.068 45.8951 130.323 45.3908 130.323 45.1386C130.578 44.6343 131.088 44.3821 131.598 44.1299ZM147.41 41.356C147.41 41.1038 147.41 41.1038 147.665 41.1038C147.92 41.1038 148.175 41.356 148.43 41.356C148.685 41.356 148.685 41.356 148.94 41.356C148.685 41.6082 148.175 41.6082 147.92 41.6082C147.665 41.8604 147.41 41.6082 147.41 41.356ZM129.303 40.0951H129.558C129.813 40.0951 130.068 40.3473 130.068 40.5995C130.068 40.8517 130.068 41.1038 129.813 41.356C129.303 41.6082 128.793 41.8604 128.283 42.1125C128.028 42.1125 128.028 42.3647 127.773 42.6169C127.773 41.8604 128.028 41.356 128.538 40.8517C128.793 40.3473 129.048 40.3473 129.303 40.0951ZM135.679 37.5734C135.934 37.3212 136.444 37.3212 136.954 37.3212C136.699 37.3212 136.189 37.5734 135.934 37.8256C135.934 37.8256 135.679 38.0777 135.934 38.0777C136.189 38.0777 136.189 38.0777 136.444 38.0777C136.699 38.0777 136.444 38.3299 136.444 38.5821C136.444 39.0864 136.189 39.3386 135.934 39.843V40.0951H136.189C136.444 39.843 136.954 39.5908 137.209 39.3386C137.209 39.0864 137.464 39.0864 137.464 38.8343C137.464 38.5821 137.209 38.5821 137.209 38.5821C137.209 38.3299 137.719 38.3299 137.719 38.0777C138.229 37.8256 138.994 37.8256 139.504 38.3299C139.249 38.3299 138.994 38.0777 138.739 38.0777C138.484 38.0777 138.484 38.0777 138.484 38.3299C138.484 38.5821 138.484 38.5821 138.484 38.8343C138.484 39.3386 137.974 39.843 137.209 40.3473C136.954 40.3473 136.699 40.5995 136.444 40.5995C136.444 40.5995 136.189 40.8517 136.189 41.1038C136.444 41.1038 136.444 41.1038 136.699 41.1038C136.954 41.1038 137.464 41.1038 137.719 41.1038C137.974 41.1038 138.229 40.5995 138.484 40.5995C139.249 40.3473 140.269 40.5995 140.524 41.356C140.269 41.356 140.014 41.1038 139.759 41.1038C139.504 41.1038 139.249 41.1038 138.994 41.1038C138.739 41.356 138.484 41.6082 138.484 41.6082C138.484 41.6082 138.484 41.8604 138.229 41.8604C137.974 41.8604 137.719 41.6082 137.719 41.8604C137.464 41.8604 137.209 42.1125 136.954 42.1125C136.699 42.1125 136.444 42.1125 136.444 42.1125C136.189 42.1125 135.679 41.8604 135.424 41.8604C135.169 41.8604 135.169 41.8604 134.914 42.1125C134.659 42.3647 134.914 42.3647 134.659 42.6169C134.659 42.1125 134.403 41.6082 134.403 41.1038C134.403 40.5995 134.148 39.843 134.403 39.3386C134.659 39.5908 134.659 39.843 134.659 40.0951C134.659 40.0951 134.659 40.3473 134.914 40.3473C135.169 40.3473 135.424 40.0951 135.424 40.0951C135.679 39.843 135.934 39.5908 135.679 39.0864C135.679 38.8343 135.424 38.8343 135.424 38.8343C135.169 38.5821 135.169 38.3299 135.424 38.0777C135.169 37.8256 135.424 37.5734 135.679 37.5734ZM149.45 36.8169L149.706 36.5647C149.961 36.5647 150.216 36.5647 150.471 36.5647C150.216 36.8169 149.961 36.8169 149.706 37.069C149.45 37.069 149.45 36.8169 149.45 36.8169ZM149.706 33.7908C149.961 33.7908 149.961 33.5386 150.216 33.5386C150.216 33.7908 149.961 34.043 149.706 34.043C149.45 34.043 149.45 33.7908 149.706 33.7908ZM140.779 30.7647C141.034 31.7734 141.289 32.5299 142.565 32.7821C143.585 33.0343 145.115 32.7821 146.135 32.7821C147.155 32.7821 147.92 32.5299 148.685 33.0343C148.94 33.2864 149.195 33.5386 149.45 33.7908C149.706 34.043 149.706 34.5473 149.961 34.7995C149.961 35.0517 149.961 35.556 149.961 35.8082C149.706 36.3125 149.45 36.5647 149.45 37.069C149.45 37.5734 149.195 37.8256 149.195 38.3299C149.195 38.8343 148.94 39.0864 148.685 39.5908C148.43 39.843 148.175 40.3473 147.92 40.5995C147.41 41.1038 147.41 41.8603 147.155 42.3647C146.9 42.869 146.9 43.3734 146.9 43.8777C146.9 44.3821 146.645 44.6343 146.135 44.8864C145.37 45.1386 144.605 45.3908 143.84 45.643C143.075 45.8951 142.82 46.3995 142.31 46.6517C141.799 46.9038 141.544 47.4082 141.034 47.4082C140.014 47.6604 139.759 46.6517 137.719 47.4082C137.464 47.4082 137.209 47.4082 136.954 47.4082C136.444 47.156 136.444 46.6517 135.934 46.1473C135.424 45.8951 134.659 45.8951 134.148 45.8951C133.893 45.8951 133.638 45.643 133.638 45.3908C133.383 45.1386 133.383 44.6343 133.383 44.3821C132.873 43.6256 131.598 43.3734 131.343 42.6169C131.088 41.8604 131.598 41.356 131.598 40.8517C131.598 40.0951 131.088 39.5908 129.813 39.5908C130.323 38.8343 130.578 38.0777 130.833 37.069C131.088 36.8169 131.088 36.3125 131.343 36.0604C131.598 35.8082 132.108 35.8082 132.618 35.556C133.128 35.556 133.638 35.556 133.893 35.556C134.914 36.0604 134.659 37.5734 134.148 38.0777C133.383 38.8343 131.598 38.8343 131.853 37.3212C132.108 37.5734 132.618 38.0777 133.128 37.5734V37.3212C133.128 37.069 132.873 36.8169 132.618 36.8169C132.363 36.8169 132.363 36.8169 132.108 36.8169C131.598 37.069 131.343 37.3212 131.088 37.5734C130.578 38.3299 131.598 39.0864 132.618 38.8343C133.638 38.5821 134.148 38.3299 134.659 37.8256C134.659 38.8343 134.659 39.5908 134.659 40.5995C134.914 41.356 134.914 42.1125 135.424 42.869C135.679 43.3734 136.189 44.1299 136.954 44.3821C137.719 44.6343 138.739 44.6343 139.504 44.6343C141.034 44.6343 143.33 43.8777 144.35 43.3734C146.39 42.3647 146.645 41.6082 147.41 39.843C147.92 39.0864 148.175 38.0777 148.43 37.3212C148.685 36.5647 148.94 35.556 148.94 34.7995C148.94 34.043 148.685 33.7908 148.43 33.2864C147.665 32.2777 145.88 32.7821 144.095 32.5299C143.84 32.7821 143.84 33.0343 144.095 33.2864C144.605 33.7908 145.37 33.5386 146.135 33.7908C143.33 35.0517 140.779 33.7908 140.014 31.5212C140.524 32.2777 141.544 33.7908 143.075 33.2864C143.585 33.0343 143.33 32.7821 143.075 32.5299C143.075 32.5299 142.82 32.5299 142.82 32.2777C141.034 32.7821 140.524 31.7734 140.779 30.7647ZM131.598 30.2604C131.853 30.5125 131.853 30.7647 132.108 30.7647C134.148 32.2777 135.934 32.2777 138.484 32.2777C136.189 32.7821 133.383 32.5299 131.598 31.0169C131.343 30.7647 131.088 30.5125 131.088 30.2604C131.088 30.0082 131.343 30.0082 131.598 30.2604ZM141.289 29.756C143.33 29.756 145.37 30.5125 146.135 32.2777C145.88 32.0256 144.86 31.7734 144.35 31.7734C144.35 31.7734 144.095 31.7734 144.095 32.0256C144.095 32.2777 144.095 32.2777 144.35 32.5299C143.33 32.7821 142.31 32.2777 141.799 31.5212C142.054 31.5212 142.31 31.7734 142.565 31.7734C143.075 31.7734 143.585 31.5212 144.095 31.269C144.35 31.0169 144.095 30.7647 143.84 30.5125C142.82 30.2604 142.055 30.0082 141.289 29.756ZM143.33 25.9734C143.585 25.7212 143.84 25.469 144.095 25.469C142.82 27.2343 140.014 28.4951 137.974 28.9995C136.954 29.2517 134.403 29.5038 133.383 28.9995C133.383 28.9995 133.128 28.7473 133.383 28.7473C133.638 28.7473 133.893 28.7473 134.148 28.7473C134.659 28.7473 135.169 28.7473 135.424 28.7473C136.444 28.7473 137.719 28.4951 138.739 28.4951C140.269 27.7386 142.055 26.9821 143.33 25.9734ZM122.417 19.669C122.672 19.669 123.182 19.669 123.437 19.669C123.692 19.9212 123.947 20.1734 124.202 20.4256C124.202 20.6777 124.457 20.6777 124.202 20.9299H123.947V21.1821C123.947 21.6864 124.202 22.1908 124.457 22.6951C124.457 22.6951 124.457 22.6951 124.712 22.9473C124.712 22.443 124.712 21.9386 124.967 21.4343C124.967 21.4343 124.967 21.1821 125.222 21.1821C125.477 21.1821 125.477 21.4343 125.732 21.1821C125.987 21.1821 125.987 20.9299 125.732 20.9299C125.732 20.6777 125.477 20.4256 125.222 20.1734C125.732 20.4256 126.242 20.9299 126.242 21.1821C126.242 21.4343 126.242 21.6864 125.987 21.9386C125.987 21.9386 125.732 21.9386 125.477 21.9386C125.222 22.1908 125.222 22.6951 125.222 23.1995C125.222 23.1995 125.222 23.4517 125.477 23.4517C125.732 23.4517 125.987 23.1995 126.242 22.9473C125.732 23.7038 124.967 24.2082 124.712 25.2169C124.712 24.9647 124.712 24.7125 124.712 24.4604L124.457 24.2082C124.202 23.956 123.692 23.956 123.437 23.7038C123.182 23.4517 122.927 23.1995 122.672 22.9473C122.417 22.6951 122.162 22.9473 122.162 22.6951C122.162 22.443 122.162 22.443 122.162 22.1908C122.162 21.9386 122.162 21.6864 121.907 21.4343C121.652 21.1821 121.142 21.1821 120.887 21.1821C121.142 21.1821 121.397 20.9299 121.652 20.9299C122.162 20.9299 122.417 21.1821 122.672 21.4343C122.417 22.1908 122.417 22.443 122.672 22.6951C122.927 22.9473 122.927 22.9473 123.182 22.9473C123.437 22.9473 123.692 23.1995 123.947 23.1995C123.947 22.9473 123.947 22.6951 123.692 22.443C123.437 22.1908 123.182 21.6864 123.182 21.1821C123.182 20.9299 123.182 20.6777 123.437 20.4256C123.437 20.1734 123.692 20.1734 123.437 19.9212C123.182 19.9212 122.672 19.9212 122.417 19.669ZM135.169 14.8777C136.189 15.3821 137.209 16.1386 138.229 16.643C137.974 16.8951 137.719 17.1473 137.464 17.1473C136.954 16.8951 135.424 15.3821 135.169 14.8777ZM136.699 12.8604C137.974 14.6256 139.504 15.8864 141.544 16.8951C142.055 17.1473 142.565 17.3995 143.33 17.3995C143.585 17.3995 144.095 17.1473 144.35 17.1473C144.86 17.1473 145.115 17.3995 145.37 17.6517L145.625 17.9038C145.625 18.4082 145.88 18.6604 146.135 19.1647C146.39 19.4169 146.645 19.4169 147.155 19.4169C147.155 19.669 147.41 19.9212 147.665 19.9212C147.92 19.9212 148.175 19.669 148.43 19.669C148.43 19.9212 148.685 19.9212 148.685 20.1734C148.685 20.1734 148.94 20.4256 149.195 20.4256C149.706 20.6777 149.961 21.1821 150.216 21.6864C149.961 21.4343 149.45 20.9299 149.195 20.9299C149.195 21.6864 149.195 22.6951 148.685 22.9473C148.685 22.443 148.685 22.1908 148.43 21.6864C147.92 21.9386 147.665 22.443 147.155 22.443C147.41 22.1908 147.665 21.9386 147.665 21.6864C147.41 21.4343 147.155 21.4343 146.9 21.6864C146.39 21.6864 146.135 21.9386 145.625 22.443C145.625 22.1908 145.37 21.9386 145.37 21.6864C145.115 21.6864 144.095 21.9386 144.35 22.443C144.86 22.9473 145.37 22.6951 145.88 22.6951C146.135 22.6951 146.39 22.9473 146.39 23.1995C146.39 22.9473 146.39 22.9473 146.39 22.6951C146.9 23.1995 147.155 23.7038 147.41 24.2082C147.92 23.4517 147.92 23.1995 147.92 22.6951C148.175 22.9473 148.175 23.1995 148.175 23.4517C148.43 23.4517 148.43 23.1995 148.43 23.1995C148.685 23.956 148.43 25.2169 147.41 25.469C147.665 24.9647 147.665 24.4604 146.9 24.4604C146.39 24.4604 145.625 24.7125 145.115 24.7125C145.37 24.7125 146.39 23.956 146.135 23.7038L145.88 23.4517C145.625 23.4517 145.115 23.1995 144.86 23.1995C144.605 23.1995 144.605 23.1995 144.35 23.4517C143.33 22.9473 143.075 23.4517 142.31 23.7038C141.799 23.7038 141.034 23.4517 140.524 22.9473C139.759 21.6864 140.779 21.1821 141.799 20.9299C140.524 20.6777 140.014 21.1821 139.759 22.443C139.249 22.1908 138.994 22.1908 138.229 22.1908C134.148 21.6864 130.833 22.6951 129.048 24.7125C127.263 26.7299 125.987 29.5038 125.987 32.0256C125.987 34.5473 126.752 36.3125 128.028 38.5821C125.987 37.069 125.222 34.7995 124.457 33.5386C124.202 33.7908 124.202 34.2951 124.202 34.5473C122.927 33.0343 124.712 28.9995 125.477 27.2343C124.967 27.4864 124.457 27.9908 123.947 28.4951C123.947 26.2256 125.987 23.956 128.028 22.1908C127.518 22.1908 127.008 22.443 126.242 22.6951C128.283 20.6777 131.853 19.4169 134.914 19.4169C134.148 19.1647 133.128 19.1647 132.363 18.9125C134.914 18.4082 136.699 18.4082 138.229 17.1473C138.994 17.6517 140.014 18.156 140.269 18.156C139.504 16.8951 136.954 14.6256 136.699 12.8604ZM144.095 18.156C144.35 18.4082 144.35 18.6604 144.605 18.6604C144.86 18.9125 145.115 19.1647 145.625 18.9125C145.625 18.6604 145.625 18.6604 145.37 18.4082H145.115C144.605 18.4082 144.35 18.156 144.095 18.156Z" fill="white"/>
<path fill-rule="evenodd" clip-rule="evenodd" d="M117.315 16.6428C123.691 12.608 131.087 9.58194 137.463 8.57324C143.839 9.58194 151.235 12.8602 157.611 16.6428C157.611 16.895 157.611 16.895 157.611 17.1472C151.235 13.1124 144.094 10.0863 137.718 8.82542C131.342 9.83411 123.946 12.8602 117.57 16.6428C117.57 31.5211 121.651 43.3732 128.282 50.4341C121.396 43.6254 117.06 31.7732 117.315 16.6428Z" fill="black"/>
</g>
<defs>
<clipPath id="clip0">
<rect width="380" height="58" fill="white"/>
</clipPath>
</defs>
</svg>
