<svg width="150" height="24" viewBox="0 0 150 24" fill="none" xmlns="http://www.w3.org/2000/svg">
<path fill-rule="evenodd" clip-rule="evenodd" d="M17.1366 9.15351C14.5982 9.18168 12.4525 9.23713 9.64249 8.84718C7.46729 8.53994 6.77142 7.78639 6.77142 6.36382C6.77142 4.77309 10.4574 3.65686 14.6277 3.65686C17.1356 3.65686 19.5835 3.85229 21.7587 5.02397C23.6327 6.00023 25.4457 6.08386 25.5057 8.93081L29.2823 9.01443L29.1612 0.559032H25.6248L24.7793 2.59607C24.2552 2.2935 23.7101 2.02324 23.1474 1.78707C22.5704 1.56522 21.9858 1.36059 21.3945 1.1735C20.2163 0.866266 19.0687 0.643563 17.9496 0.530848C17.0385 0.417154 16.12 0.361273 15.2006 0.363596C9.73107 0.363596 -0.149851 1.56346 0.00172382 6.86558C0.183811 13.1721 7.73697 14.0375 16.2281 14.4556C19.3098 14.6238 23.7222 14.6792 23.8728 17.9162C23.9644 20.0096 19.4309 20.7067 16.863 20.6795C12.7832 20.6795 7.34425 19.5905 6.07555 18.2788C5.28913 17.4417 4.7163 16.6317 4.41413 15.8791C4.08146 15.0974 3.86984 14.5947 3.8098 14.3438H0.304876V24H4.62575L4.68677 21.8512C8.46335 23.2465 13.7212 23.9718 17.7094 23.9718C21.2754 23.9718 24.4476 23.4419 27.2281 22.4093C30.0077 21.3485 31.7606 18.9206 31.6091 16.3254C31.2784 10.437 21.9713 9.0417 17.1366 9.15351ZM69.9241 8.23271C68.8975 6.19567 66.992 4.2977 64.2125 2.59516C61.4329 0.865359 57.6869 0 52.9733 0H52.9122C48.3492 0.0281786 44.6937 0.83718 41.9742 2.48336C39.2242 4.12953 37.2911 5.94387 36.1425 7.89729C35.7498 8.62266 35.4467 9.34803 35.2656 10.0452C35.0845 10.7424 34.9939 11.3851 34.9939 11.9986C34.9939 12.5849 35.0549 13.1985 35.236 13.8403C35.3866 14.4538 35.6583 15.1237 35.9919 15.7655C37.0185 17.8298 38.9526 19.6996 41.7626 21.4021C44.5422 23.1047 48.2597 23.9691 52.9122 23.9691H52.9733C57.6869 23.9691 61.4329 23.1047 64.2125 21.4021C66.992 19.6996 68.8975 17.8298 69.9241 15.7655C70.215 15.1405 70.4571 14.4971 70.6485 13.8403C70.8001 13.1985 70.8906 12.584 70.8906 11.9986C70.8906 11.4133 70.8001 10.7988 70.6485 10.1843C70.4571 9.51881 70.2151 8.86666 69.9241 8.23271ZM60.4969 18.0834C58.9861 19.3669 57.2941 20.1768 55.4811 20.5113C55.0284 20.5949 54.6042 20.6504 54.1819 20.6795C53.7587 20.7349 53.3355 20.7349 52.9427 20.7349H52.9132C52.6416 20.7349 52.4004 20.7349 52.1278 20.7077C51.8346 20.7024 51.542 20.6835 51.2508 20.6513C49.2262 20.4286 47.3532 19.6478 45.6307 18.307C43.9388 16.9963 43.0628 14.9029 43.0323 12.0005C43.0028 9.09806 43.9693 6.89376 45.9644 5.44211C47.928 3.99136 50.2548 3.26509 52.9142 3.26509H52.9437C55.6642 3.26509 57.9605 3.99045 59.8945 5.44211C61.8286 6.89376 62.7951 9.09715 62.7951 12.0005C62.7941 14.762 62.0392 16.7717 60.4969 18.0834ZM135.889 0.78173V3.93501H136.462C137.217 3.93501 137.369 4.04681 137.823 4.24225C138.277 4.43768 138.396 4.91217 138.034 5.2185L132.565 9.76707L126.702 5.69299C126.673 5.66481 126.642 5.63664 126.611 5.63664C126.581 5.63664 126.581 5.60936 126.581 5.58028C126.49 5.49665 126.369 5.38575 126.278 5.27395C126.219 5.2194 126.172 5.15414 126.141 5.08222C126.11 5.0103 126.095 4.93324 126.097 4.85581C126.097 4.46495 126.309 4.21407 126.672 4.10226C127.033 3.99046 127.518 3.9341 128.062 3.9341H128.725V0.780821H113.074V3.9341H114.193C115.098 3.9341 115.885 4.01773 116.488 4.18498C117.093 4.32497 117.698 4.63129 118.272 5.02216C118.393 5.10578 118.542 5.18941 118.663 5.32849C118.784 5.44029 118.905 5.52392 119.057 5.663L127.848 12.8349V19.8396C127.848 20.1186 127.699 20.3413 127.457 20.5086C127.215 20.704 126.853 20.7876 126.4 20.7876H123.378V23.5501H140.391V20.7876H137.369C136.915 20.7876 136.552 20.704 136.312 20.5086C136.197 20.4331 136.103 20.3326 136.04 20.2159C135.977 20.0993 135.945 19.97 135.949 19.8396V12.8067L143.625 6.02568C143.654 5.96933 143.716 5.91388 143.744 5.88661C144.44 5.21669 145.196 4.71492 146.011 4.40769C146.828 4.10136 147.975 3.93319 149.456 3.93319H150V0.779913H135.889V0.78173ZM96.3031 4.01864H99.3867C100.686 4.01864 101.442 4.15771 101.653 4.46495C101.865 4.74401 101.956 5.07852 101.956 5.46938V16.1854H101.592L86.3326 0.865359H73.2794V4.01864H75.4841C76.7833 4.01864 77.5393 4.15771 77.7509 4.46495C77.9625 4.74401 78.0835 5.07852 78.0835 5.46938V19.3396C78.0835 19.7305 77.9625 20.065 77.7509 20.3431C77.5393 20.6231 76.7843 20.7622 75.4841 20.7622H73.2794V23.5246H88.2666V20.7622H86.0924C84.7617 20.7622 84.0068 20.6231 83.7952 20.3431C83.5835 20.0641 83.493 19.7296 83.493 19.3396V19.2833V6.0275H83.7952L102.137 23.6091H106.518V5.58119V5.52574V5.46938C106.518 5.07852 106.61 4.74401 106.822 4.46495C107.033 4.15771 107.786 4.01864 109.117 4.01864H111.745V0.865359H96.304V4.01864H96.3031Z" fill="#3C3C46"/>
</svg>
