<svg width="628" height="405" viewBox="0 0 628 405" fill="none" xmlns="http://www.w3.org/2000/svg">
<mask id="mask0" mask-type="alpha" maskUnits="userSpaceOnUse" x="105" y="37" width="319" height="319">
<circle cx="264.881" cy="196.5" r="158.882" fill="#C4C4C4"/>
</mask>
<g mask="url(#mask0)">
<path d="M264.881 196.5L436 187L427 366H146L264.881 196.5Z" fill="#E2AA69"/>
</g>
<mask id="mask1" mask-type="alpha" maskUnits="userSpaceOnUse" x="106" y="37" width="319" height="319">
<circle cx="265.881" cy="196.5" r="158.882" fill="#C4C4C4"/>
</mask>
<g mask="url(#mask1)">
<path d="M265.881 196.5L427.999 88L449.999 125L460.999 167L265.881 196.5Z" fill="#CD8E8E"/>
</g>
<mask id="mask2" mask-type="alpha" maskUnits="userSpaceOnUse" x="106" y="37" width="319" height="319">
<circle cx="265.881" cy="196.5" r="158.882" fill="#C4C4C4"/>
</mask>
<g mask="url(#mask2)">
<path d="M104.999 83L265.881 196.5L139.999 340L93.3806 369L104.999 83Z" fill="#8ECD94"/>
</g>
<mask id="mask3" mask-type="alpha" maskUnits="userSpaceOnUse" x="106" y="37" width="319" height="319">
<circle cx="265.881" cy="196.5" r="158.882" fill="#C4C4C4"/>
</mask>
<g mask="url(#mask3)">
<path d="M273.999 24L438.381 24L409.999 79L265.881 196.5L273.999 24Z" fill="#A68ECD"/>
</g>
<mask id="mask4" mask-type="alpha" maskUnits="userSpaceOnUse" x="107" y="37" width="317" height="317">
<circle cx="265.5" cy="195.5" r="158.5" fill="#C4C4C4"/>
</mask>
<g mask="url(#mask4)">
<path d="M92.999 24L257.999 24L265.499 196.5L115.999 64L92.999 24Z" fill="#8EA8CD"/>
</g>
<circle cx="265.499" cy="196.5" r="118.5" fill="white"/>
<path d="M190.245 198V194.448H195.205V181.84L195.237 180.304H195.173C194.981 180.667 194.64 181.093 194.149 181.584L192.325 183.312L189.893 180.752L195.589 175.28H199.205V194.448H204.133V198H190.245ZM226.904 197.488C225.816 198.085 224.526 198.384 223.032 198.384C221.539 198.384 220.238 198.085 219.128 197.488C218.04 196.891 217.187 196.037 216.568 194.928C215.95 193.819 215.491 192.581 215.192 191.216C214.915 189.851 214.776 188.315 214.776 186.608C214.776 184.901 214.915 183.365 215.192 182C215.491 180.635 215.95 179.408 216.568 178.32C217.187 177.232 218.04 176.389 219.128 175.792C220.216 175.195 221.518 174.896 223.032 174.896C228.515 174.896 231.256 178.8 231.256 186.608C231.256 188.315 231.107 189.851 230.808 191.216C230.531 192.581 230.083 193.819 229.464 194.928C228.867 196.037 228.014 196.891 226.904 197.488ZM219.032 186.608C219.032 191.941 220.366 194.608 223.032 194.608C225.699 194.608 227.032 191.941 227.032 186.608C227.032 181.339 225.699 178.704 223.032 178.704C220.366 178.704 219.032 181.339 219.032 186.608ZM246.998 197.488C245.91 198.085 244.619 198.384 243.126 198.384C241.633 198.384 240.331 198.085 239.222 197.488C238.134 196.891 237.281 196.037 236.662 194.928C236.043 193.819 235.585 192.581 235.286 191.216C235.009 189.851 234.87 188.315 234.87 186.608C234.87 184.901 235.009 183.365 235.286 182C235.585 180.635 236.043 179.408 236.662 178.32C237.281 177.232 238.134 176.389 239.222 175.792C240.31 175.195 241.611 174.896 243.126 174.896C248.609 174.896 251.35 178.8 251.35 186.608C251.35 188.315 251.201 189.851 250.902 191.216C250.625 192.581 250.177 193.819 249.558 194.928C248.961 196.037 248.107 196.891 246.998 197.488ZM239.126 186.608C239.126 191.941 240.459 194.608 243.126 194.608C245.793 194.608 247.126 191.941 247.126 186.608C247.126 181.339 245.793 178.704 243.126 178.704C240.459 178.704 239.126 181.339 239.126 186.608ZM267.092 197.488C266.004 198.085 264.713 198.384 263.22 198.384C261.727 198.384 260.425 198.085 259.316 197.488C258.228 196.891 257.375 196.037 256.756 194.928C256.137 193.819 255.679 192.581 255.38 191.216C255.103 189.851 254.964 188.315 254.964 186.608C254.964 184.901 255.103 183.365 255.38 182C255.679 180.635 256.137 179.408 256.756 178.32C257.375 177.232 258.228 176.389 259.316 175.792C260.404 175.195 261.705 174.896 263.22 174.896C268.703 174.896 271.444 178.8 271.444 186.608C271.444 188.315 271.295 189.851 270.996 191.216C270.719 192.581 270.271 193.819 269.652 194.928C269.055 196.037 268.201 196.891 267.092 197.488ZM259.22 186.608C259.22 191.941 260.553 194.608 263.22 194.608C265.887 194.608 267.22 191.941 267.22 186.608C267.22 181.339 265.887 178.704 263.22 178.704C260.553 178.704 259.22 181.339 259.22 186.608ZM295.186 197.488C294.098 198.085 292.807 198.384 291.314 198.384C289.82 198.384 288.519 198.085 287.41 197.488C286.322 196.891 285.468 196.037 284.85 194.928C284.231 193.819 283.772 192.581 283.474 191.216C283.196 189.851 283.058 188.315 283.058 186.608C283.058 184.901 283.196 183.365 283.474 182C283.772 180.635 284.231 179.408 284.85 178.32C285.468 177.232 286.322 176.389 287.41 175.792C288.498 175.195 289.799 174.896 291.314 174.896C296.796 174.896 299.538 178.8 299.538 186.608C299.538 188.315 299.388 189.851 299.09 191.216C298.812 192.581 298.364 193.819 297.746 194.928C297.148 196.037 296.295 196.891 295.186 197.488ZM287.314 186.608C287.314 191.941 288.647 194.608 291.314 194.608C293.98 194.608 295.314 191.941 295.314 186.608C295.314 181.339 293.98 178.704 291.314 178.704C288.647 178.704 287.314 181.339 287.314 186.608ZM315.279 197.488C314.191 198.085 312.901 198.384 311.407 198.384C309.914 198.384 308.613 198.085 307.503 197.488C306.415 196.891 305.562 196.037 304.943 194.928C304.325 193.819 303.866 192.581 303.567 191.216C303.29 189.851 303.151 188.315 303.151 186.608C303.151 184.901 303.29 183.365 303.567 182C303.866 180.635 304.325 179.408 304.943 178.32C305.562 177.232 306.415 176.389 307.503 175.792C308.591 175.195 309.893 174.896 311.407 174.896C316.89 174.896 319.631 178.8 319.631 186.608C319.631 188.315 319.482 189.851 319.183 191.216C318.906 192.581 318.458 193.819 317.839 194.928C317.242 196.037 316.389 196.891 315.279 197.488ZM307.407 186.608C307.407 191.941 308.741 194.608 311.407 194.608C314.074 194.608 315.407 191.941 315.407 186.608C315.407 181.339 314.074 178.704 311.407 178.704C308.741 178.704 307.407 181.339 307.407 186.608ZM335.373 197.488C334.285 198.085 332.994 198.384 331.501 198.384C330.008 198.384 328.706 198.085 327.597 197.488C326.509 196.891 325.656 196.037 325.037 194.928C324.418 193.819 323.96 192.581 323.661 191.216C323.384 189.851 323.245 188.315 323.245 186.608C323.245 184.901 323.384 183.365 323.661 182C323.96 180.635 324.418 179.408 325.037 178.32C325.656 177.232 326.509 176.389 327.597 175.792C328.685 175.195 329.986 174.896 331.501 174.896C336.984 174.896 339.725 178.8 339.725 186.608C339.725 188.315 339.576 189.851 339.277 191.216C339 192.581 338.552 193.819 337.933 194.928C337.336 196.037 336.482 196.891 335.373 197.488ZM327.501 186.608C327.501 191.941 328.834 194.608 331.501 194.608C334.168 194.608 335.501 191.941 335.501 186.608C335.501 181.339 334.168 178.704 331.501 178.704C328.834 178.704 327.501 181.339 327.501 186.608ZM217.277 227.52C217.65 227.827 218.05 227.98 218.477 227.98C219.277 227.98 219.917 227.433 220.397 226.34L220.997 224.9L216.817 214.94H218.317L221.257 222.28L221.637 223.34H221.677C221.77 222.967 221.884 222.613 222.017 222.28L224.917 214.94H226.377L221.417 227.1C221.15 227.753 220.764 228.267 220.257 228.64C219.764 229.013 219.19 229.2 218.537 229.2C218.23 229.2 217.924 229.147 217.617 229.04C217.324 228.947 217.11 228.853 216.977 228.76L216.757 228.6L217.277 227.52ZM227.493 219.98C227.493 218.447 227.999 217.187 229.013 216.2C230.026 215.2 231.279 214.7 232.773 214.7C233.466 214.7 234.146 214.827 234.813 215.08C235.479 215.32 236.026 215.673 236.453 216.14L235.753 217.16C235.393 216.787 234.946 216.487 234.413 216.26C233.893 216.033 233.359 215.92 232.813 215.92C231.693 215.92 230.759 216.3 230.013 217.06C229.266 217.82 228.893 218.793 228.893 219.98C228.893 221.153 229.266 222.12 230.013 222.88C230.773 223.627 231.719 224 232.853 224C233.439 224 234.026 223.88 234.613 223.64C235.199 223.387 235.686 223.047 236.073 222.62L236.693 223.64C236.253 224.133 235.679 224.527 234.973 224.82C234.279 225.1 233.546 225.24 232.773 225.24C231.266 225.24 230.006 224.753 228.993 223.78C227.993 222.793 227.493 221.527 227.493 219.98ZM241.513 225V216.14H237.853V214.94H246.553V216.14H242.873V225H241.513ZM248.641 229V214.94H249.941V216L249.881 216.78H249.921C250.228 216.127 250.688 215.62 251.301 215.26C251.928 214.887 252.635 214.7 253.421 214.7C254.768 214.7 255.835 215.187 256.621 216.16C257.408 217.12 257.801 218.387 257.801 219.96C257.801 221.547 257.381 222.827 256.541 223.8C255.701 224.76 254.621 225.24 253.301 225.24C252.595 225.24 251.948 225.067 251.361 224.72C250.775 224.36 250.315 223.867 249.981 223.24H249.941C249.981 223.48 250.001 223.773 250.001 224.12V229H248.641ZM249.961 220C249.961 221.08 250.248 222.02 250.821 222.82C251.408 223.62 252.188 224.02 253.161 224.02C254.081 224.02 254.855 223.66 255.481 222.94C256.108 222.207 256.421 221.22 256.421 219.98C256.421 218.767 256.121 217.793 255.521 217.06C254.935 216.313 254.168 215.94 253.221 215.94C252.301 215.94 251.528 216.28 250.901 216.96C250.275 217.64 249.961 218.653 249.961 220ZM259.739 219.92C259.739 218.44 260.252 217.2 261.279 216.2C262.305 215.2 263.559 214.7 265.039 214.7C266.519 214.7 267.772 215.2 268.799 216.2C269.839 217.2 270.359 218.44 270.359 219.92C270.359 221.427 269.839 222.693 268.799 223.72C267.772 224.733 266.519 225.24 265.039 225.24C263.559 225.24 262.305 224.733 261.279 223.72C260.252 222.693 259.739 221.427 259.739 219.92ZM261.139 219.92C261.139 221.093 261.512 222.067 262.259 222.84C263.019 223.613 263.945 224 265.039 224C266.132 224 267.059 223.613 267.819 222.84C268.579 222.067 268.959 221.093 268.959 219.92C268.959 218.787 268.579 217.84 267.819 217.08C267.059 216.307 266.132 215.92 265.039 215.92C263.945 215.92 263.019 216.307 262.259 217.08C261.512 217.84 261.139 218.787 261.139 219.92ZM279.039 212.98C278.519 213.407 277.899 213.62 277.179 213.62C276.459 213.62 275.839 213.407 275.319 212.98C274.799 212.553 274.539 211.98 274.539 211.26V210.92H275.719V211.22C275.719 211.647 275.859 211.987 276.139 212.24C276.433 212.48 276.779 212.6 277.179 212.6C277.579 212.6 277.926 212.48 278.219 212.24C278.513 211.987 278.659 211.64 278.659 211.2V210.92H279.819V211.26C279.819 211.98 279.559 212.553 279.039 212.98ZM272.899 225V214.94H274.219V221.54C274.219 222.46 274.199 222.96 274.159 223.04H274.199C274.253 222.947 274.599 222.447 275.239 221.54L280.179 214.94H281.479V225H280.139V218.38C280.139 218.207 280.139 218.007 280.139 217.78C280.153 217.553 280.166 217.36 280.179 217.2C280.193 217.027 280.199 216.933 280.199 216.92H280.159C280.159 216.947 280.099 217.04 279.979 217.2C279.873 217.36 279.726 217.56 279.539 217.8C279.366 218.04 279.233 218.233 279.139 218.38L274.199 225H272.899ZM284.036 219.98C284.036 218.447 284.542 217.187 285.556 216.2C286.569 215.2 287.822 214.7 289.316 214.7C290.009 214.7 290.689 214.827 291.356 215.08C292.022 215.32 292.569 215.673 292.996 216.14L292.296 217.16C291.936 216.787 291.489 216.487 290.956 216.26C290.436 216.033 289.902 215.92 289.356 215.92C288.236 215.92 287.302 216.3 286.556 217.06C285.809 217.82 285.436 218.793 285.436 219.98C285.436 221.153 285.809 222.12 286.556 222.88C287.316 223.627 288.262 224 289.396 224C289.982 224 290.569 223.88 291.156 223.64C291.742 223.387 292.229 223.047 292.616 222.62L293.236 223.64C292.796 224.133 292.222 224.527 291.516 224.82C290.822 225.1 290.089 225.24 289.316 225.24C287.809 225.24 286.549 224.753 285.536 223.78C284.536 222.793 284.036 221.527 284.036 219.98ZM298.056 225V216.14H294.396V214.94H303.096V216.14H299.416V225H298.056ZM305.184 225V214.94H308.824C309.864 214.94 310.678 215.167 311.264 215.62C311.851 216.06 312.144 216.687 312.144 217.5C312.144 218.607 311.638 219.347 310.624 219.72V219.76C311.264 219.893 311.764 220.18 312.124 220.62C312.484 221.06 312.664 221.58 312.664 222.18C312.664 223.047 312.338 223.733 311.684 224.24C311.044 224.747 310.158 225 309.024 225H305.184ZM306.544 219.3H308.684C309.351 219.3 309.858 219.153 310.204 218.86C310.564 218.553 310.744 218.127 310.744 217.58C310.744 216.513 310.031 215.98 308.604 215.98H306.544V219.3ZM306.544 223.94H308.844C309.658 223.94 310.264 223.787 310.664 223.48C311.064 223.16 311.264 222.72 311.264 222.16C311.264 221.573 311.051 221.127 310.624 220.82C310.211 220.5 309.611 220.34 308.824 220.34H306.544V223.94Z" fill="#2F303E" fill-opacity="0.8"/>
<path d="M375.6 346.34V344.76L381.74 335.8H384.78V344.2H386.62V346.34H384.78V350H382.24V346.34H375.6ZM378.32 344.2H382.24V339.8L382.34 338.32H382.3C382.087 338.827 381.853 339.26 381.6 339.62L378.32 344.16V344.2ZM388.263 348.32L389.603 346.38C390.469 347.327 391.476 347.8 392.623 347.8C393.343 347.8 393.963 347.58 394.483 347.14C395.016 346.687 395.283 346.1 395.283 345.38C395.283 344.647 395.016 344.053 394.483 343.6C393.949 343.147 393.269 342.92 392.443 342.92C391.656 342.92 390.923 343.12 390.243 343.52L388.803 343L389.463 335.8H396.943V338.02H391.703L391.483 340.36L391.383 341.02H391.423C391.823 340.807 392.329 340.7 392.943 340.7C394.463 340.7 395.676 341.147 396.583 342.04C397.489 342.933 397.943 344.04 397.943 345.36C397.943 346.76 397.456 347.927 396.483 348.86C395.509 349.78 394.289 350.24 392.823 350.24C391.956 350.24 391.123 350.073 390.323 349.74C389.523 349.407 388.836 348.933 388.263 348.32ZM407.489 349.68C406.809 350.053 406.002 350.24 405.069 350.24C404.136 350.24 403.322 350.053 402.629 349.68C401.949 349.307 401.416 348.773 401.029 348.08C400.642 347.387 400.356 346.613 400.169 345.76C399.996 344.907 399.909 343.947 399.909 342.88C399.909 341.813 399.996 340.853 400.169 340C400.356 339.147 400.642 338.38 401.029 337.7C401.416 337.02 401.949 336.493 402.629 336.12C403.309 335.747 404.122 335.56 405.069 335.56C408.496 335.56 410.209 338 410.209 342.88C410.209 343.947 410.116 344.907 409.929 345.76C409.756 346.613 409.476 347.387 409.089 348.08C408.716 348.773 408.182 349.307 407.489 349.68ZM402.569 342.88C402.569 346.213 403.402 347.88 405.069 347.88C406.736 347.88 407.569 346.213 407.569 342.88C407.569 339.587 406.736 337.94 405.069 337.94C403.402 337.94 402.569 339.587 402.569 342.88ZM425.048 349.68C424.368 350.053 423.561 350.24 422.628 350.24C421.694 350.24 420.881 350.053 420.188 349.68C419.508 349.307 418.974 348.773 418.588 348.08C418.201 347.387 417.914 346.613 417.728 345.76C417.554 344.907 417.468 343.947 417.468 342.88C417.468 341.813 417.554 340.853 417.728 340C417.914 339.147 418.201 338.38 418.588 337.7C418.974 337.02 419.508 336.493 420.188 336.12C420.868 335.747 421.681 335.56 422.628 335.56C426.054 335.56 427.768 338 427.768 342.88C427.768 343.947 427.674 344.907 427.488 345.76C427.314 346.613 427.034 347.387 426.648 348.08C426.274 348.773 425.741 349.307 425.048 349.68ZM420.128 342.88C420.128 346.213 420.961 347.88 422.628 347.88C424.294 347.88 425.128 346.213 425.128 342.88C425.128 339.587 424.294 337.94 422.628 337.94C420.961 337.94 420.128 339.587 420.128 342.88ZM437.606 349.68C436.926 350.053 436.12 350.24 435.186 350.24C434.253 350.24 433.44 350.053 432.746 349.68C432.066 349.307 431.533 348.773 431.146 348.08C430.76 347.387 430.473 346.613 430.286 345.76C430.113 344.907 430.026 343.947 430.026 342.88C430.026 341.813 430.113 340.853 430.286 340C430.473 339.147 430.76 338.38 431.146 337.7C431.533 337.02 432.066 336.493 432.746 336.12C433.426 335.747 434.24 335.56 435.186 335.56C438.613 335.56 440.326 338 440.326 342.88C440.326 343.947 440.233 344.907 440.046 345.76C439.873 346.613 439.593 347.387 439.206 348.08C438.833 348.773 438.3 349.307 437.606 349.68ZM432.686 342.88C432.686 346.213 433.52 347.88 435.186 347.88C436.853 347.88 437.686 346.213 437.686 342.88C437.686 339.587 436.853 337.94 435.186 337.94C433.52 337.94 432.686 339.587 432.686 342.88ZM450.165 349.68C449.485 350.053 448.678 350.24 447.745 350.24C446.812 350.24 445.998 350.053 445.305 349.68C444.625 349.307 444.092 348.773 443.705 348.08C443.318 347.387 443.032 346.613 442.845 345.76C442.672 344.907 442.585 343.947 442.585 342.88C442.585 341.813 442.672 340.853 442.845 340C443.032 339.147 443.318 338.38 443.705 337.7C444.092 337.02 444.625 336.493 445.305 336.12C445.985 335.747 446.798 335.56 447.745 335.56C451.172 335.56 452.885 338 452.885 342.88C452.885 343.947 452.792 344.907 452.605 345.76C452.432 346.613 452.152 347.387 451.765 348.08C451.392 348.773 450.858 349.307 450.165 349.68ZM445.245 342.88C445.245 346.213 446.078 347.88 447.745 347.88C449.412 347.88 450.245 346.213 450.245 342.88C450.245 339.587 449.412 337.94 447.745 337.94C446.078 337.94 445.245 339.587 445.245 342.88ZM377.044 367.188H380.656V361.77H378.192V362.19C378.192 364.365 377.809 366.031 377.044 367.188ZM375.154 367.188H376.022C376.843 366.115 377.254 364.421 377.254 362.106V360.958H381.608V367.188H382.602V369.68H381.692V368H376.064V369.68H375.154V367.188ZM384.146 370.8V360.958H385.056V361.7L385.014 362.246H385.042C385.256 361.789 385.578 361.434 386.008 361.182C386.446 360.921 386.941 360.79 387.492 360.79C388.434 360.79 389.181 361.131 389.732 361.812C390.282 362.484 390.558 363.371 390.558 364.472C390.558 365.583 390.264 366.479 389.676 367.16C389.088 367.832 388.332 368.168 387.408 368.168C386.913 368.168 386.46 368.047 386.05 367.804C385.639 367.552 385.317 367.207 385.084 366.768H385.056C385.084 366.936 385.098 367.141 385.098 367.384V370.8H384.146ZM385.07 364.5C385.07 365.256 385.27 365.914 385.672 366.474C386.082 367.034 386.628 367.314 387.31 367.314C387.954 367.314 388.495 367.062 388.934 366.558C389.372 366.045 389.592 365.354 389.592 364.486C389.592 363.637 389.382 362.955 388.962 362.442C388.551 361.919 388.014 361.658 387.352 361.658C386.708 361.658 386.166 361.896 385.728 362.372C385.289 362.848 385.07 363.557 385.07 364.5ZM391.681 369.764C391.942 369.979 392.222 370.086 392.521 370.086C393.081 370.086 393.529 369.703 393.865 368.938L394.285 367.93L391.359 360.958H392.409L394.467 366.096L394.733 366.838H394.761C394.826 366.577 394.905 366.329 394.999 366.096L397.029 360.958H398.051L394.579 369.47C394.392 369.927 394.121 370.287 393.767 370.548C393.421 370.809 393.02 370.94 392.563 370.94C392.348 370.94 392.133 370.903 391.919 370.828C391.713 370.763 391.564 370.697 391.471 370.632L391.317 370.52L391.681 369.764ZM399.554 368V360.958H403.754V361.784H400.506V368H399.554ZM405.214 368V360.958H406.138V365.578C406.138 366.222 406.124 366.572 406.096 366.628H406.124C406.161 366.563 406.404 366.213 406.852 365.578L410.31 360.958H411.22V368H410.282V363.366C410.282 363.245 410.282 363.105 410.282 362.946C410.291 362.787 410.301 362.652 410.31 362.54C410.319 362.419 410.324 362.353 410.324 362.344H410.296C410.296 362.363 410.254 362.428 410.17 362.54C410.095 362.652 409.993 362.792 409.862 362.96C409.741 363.128 409.647 363.263 409.582 363.366L406.124 368H405.214ZM412.632 368L415.096 364.332L412.828 360.958H413.948L415.46 363.324L415.698 363.73H415.726C415.81 363.581 415.889 363.445 415.964 363.324L417.476 360.958H418.582L416.314 364.332L418.792 368H417.672L415.964 365.354L415.726 364.962H415.698C415.623 365.093 415.544 365.223 415.46 365.354L413.738 368H412.632ZM423.181 369.764C423.442 369.979 423.722 370.086 424.021 370.086C424.581 370.086 425.029 369.703 425.365 368.938L425.785 367.93L422.859 360.958H423.909L425.967 366.096L426.233 366.838H426.261C426.326 366.577 426.405 366.329 426.499 366.096L428.529 360.958H429.551L426.079 369.47C425.892 369.927 425.621 370.287 425.267 370.548C424.921 370.809 424.52 370.94 424.063 370.94C423.848 370.94 423.633 370.903 423.419 370.828C423.213 370.763 423.064 370.697 422.971 370.632L422.817 370.52L423.181 369.764ZM430.332 364.486C430.332 363.413 430.686 362.531 431.396 361.84C432.105 361.14 432.982 360.79 434.028 360.79C434.513 360.79 434.989 360.879 435.456 361.056C435.922 361.224 436.305 361.471 436.604 361.798L436.114 362.512C435.862 362.251 435.549 362.041 435.176 361.882C434.812 361.723 434.438 361.644 434.056 361.644C433.272 361.644 432.618 361.91 432.096 362.442C431.573 362.974 431.312 363.655 431.312 364.486C431.312 365.307 431.573 365.984 432.096 366.516C432.628 367.039 433.29 367.3 434.084 367.3C434.494 367.3 434.905 367.216 435.316 367.048C435.726 366.871 436.067 366.633 436.338 366.334L436.772 367.048C436.464 367.393 436.062 367.669 435.568 367.874C435.082 368.07 434.569 368.168 434.028 368.168C432.973 368.168 432.091 367.827 431.382 367.146C430.682 366.455 430.332 365.569 430.332 364.486ZM440.146 368V361.798H437.584V360.958H443.674V361.798H441.098V368H440.146ZM445.136 370.8V360.958H446.046V361.7L446.004 362.246H446.032C446.247 361.789 446.569 361.434 446.998 361.182C447.437 360.921 447.931 360.79 448.482 360.79C449.425 360.79 450.171 361.131 450.722 361.812C451.273 362.484 451.548 363.371 451.548 364.472C451.548 365.583 451.254 366.479 450.666 367.16C450.078 367.832 449.322 368.168 448.398 368.168C447.903 368.168 447.451 368.047 447.04 367.804C446.629 367.552 446.307 367.207 446.074 366.768H446.046C446.074 366.936 446.088 367.141 446.088 367.384V370.8H445.136ZM446.06 364.5C446.06 365.256 446.261 365.914 446.662 366.474C447.073 367.034 447.619 367.314 448.3 367.314C448.944 367.314 449.485 367.062 449.924 366.558C450.363 366.045 450.582 365.354 450.582 364.486C450.582 363.637 450.372 362.955 449.952 362.442C449.541 361.919 449.005 361.658 448.342 361.658C447.698 361.658 447.157 361.896 446.718 362.372C446.279 362.848 446.06 363.557 446.06 364.5ZM452.904 364.444C452.904 363.408 453.263 362.54 453.982 361.84C454.701 361.14 455.578 360.79 456.614 360.79C457.65 360.79 458.527 361.14 459.246 361.84C459.974 362.54 460.338 363.408 460.338 364.444C460.338 365.499 459.974 366.385 459.246 367.104C458.527 367.813 457.65 368.168 456.614 368.168C455.578 368.168 454.701 367.813 453.982 367.104C453.263 366.385 452.904 365.499 452.904 364.444ZM453.884 364.444C453.884 365.265 454.145 365.947 454.668 366.488C455.2 367.029 455.849 367.3 456.614 367.3C457.379 367.3 458.028 367.029 458.56 366.488C459.092 365.947 459.358 365.265 459.358 364.444C459.358 363.651 459.092 362.988 458.56 362.456C458.028 361.915 457.379 361.644 456.614 361.644C455.849 361.644 455.2 361.915 454.668 362.456C454.145 362.988 453.884 363.651 453.884 364.444ZM466.414 359.586C466.05 359.885 465.616 360.034 465.112 360.034C464.608 360.034 464.174 359.885 463.81 359.586C463.446 359.287 463.264 358.886 463.264 358.382V358.144H464.09V358.354C464.09 358.653 464.188 358.891 464.384 359.068C464.59 359.236 464.832 359.32 465.112 359.32C465.392 359.32 465.635 359.236 465.84 359.068C466.046 358.891 466.148 358.648 466.148 358.34V358.144H466.96V358.382C466.96 358.886 466.778 359.287 466.414 359.586ZM462.116 368V360.958H463.04V365.578C463.04 366.222 463.026 366.572 462.998 366.628H463.026C463.064 366.563 463.306 366.213 463.754 365.578L467.212 360.958H468.122V368H467.184V363.366C467.184 363.245 467.184 363.105 467.184 362.946C467.194 362.787 467.203 362.652 467.212 362.54C467.222 362.419 467.226 362.353 467.226 362.344H467.198C467.198 362.363 467.156 362.428 467.072 362.54C466.998 362.652 466.895 362.792 466.764 362.96C466.643 363.128 466.55 363.263 466.484 363.366L463.026 368H462.116ZM469.912 364.486C469.912 363.413 470.267 362.531 470.976 361.84C471.685 361.14 472.563 360.79 473.608 360.79C474.093 360.79 474.569 360.879 475.036 361.056C475.503 361.224 475.885 361.471 476.184 361.798L475.694 362.512C475.442 362.251 475.129 362.041 474.756 361.882C474.392 361.723 474.019 361.644 473.636 361.644C472.852 361.644 472.199 361.91 471.676 362.442C471.153 362.974 470.892 363.655 470.892 364.486C470.892 365.307 471.153 365.984 471.676 366.516C472.208 367.039 472.871 367.3 473.664 367.3C474.075 367.3 474.485 367.216 474.896 367.048C475.307 366.871 475.647 366.633 475.918 366.334L476.352 367.048C476.044 367.393 475.643 367.669 475.148 367.874C474.663 368.07 474.149 368.168 473.608 368.168C472.553 368.168 471.671 367.827 470.962 367.146C470.262 366.455 469.912 365.569 469.912 364.486ZM479.726 368V361.798H477.164V360.958H483.254V361.798H480.678V368H479.726ZM484.716 368V360.958H487.264C487.992 360.958 488.561 361.117 488.972 361.434C489.383 361.742 489.588 362.181 489.588 362.75C489.588 363.525 489.233 364.043 488.524 364.304V364.332C488.972 364.425 489.322 364.626 489.574 364.934C489.826 365.242 489.952 365.606 489.952 366.026C489.952 366.633 489.723 367.113 489.266 367.468C488.818 367.823 488.197 368 487.404 368H484.716ZM485.668 364.01H487.166C487.633 364.01 487.987 363.907 488.23 363.702C488.482 363.487 488.608 363.189 488.608 362.806C488.608 362.059 488.109 361.686 487.11 361.686H485.668V364.01ZM485.668 367.258H487.278C487.847 367.258 488.272 367.151 488.552 366.936C488.832 366.712 488.972 366.404 488.972 366.012C488.972 365.601 488.823 365.289 488.524 365.074C488.235 364.85 487.815 364.738 487.264 364.738H485.668V367.258Z" fill="#2F303E" fill-opacity="0.8"/>
<path d="M0.76 221.34L2.08 219.36C2.48 219.773 2.96667 220.12 3.54 220.4C4.12667 220.667 4.72 220.8 5.32 220.8C6.05333 220.8 6.66 220.6 7.14 220.2C7.62 219.8 7.86 219.293 7.86 218.68C7.86 217.96 7.57333 217.413 7 217.04C6.44 216.667 5.71333 216.48 4.82 216.48H3.84L3.28 215.16L5.88 212.08C6.04 211.88 6.2 211.693 6.36 211.52C6.53333 211.333 6.66667 211.2 6.76 211.12L6.9 211V210.96C6.60667 211 6.18667 211.02 5.64 211.02H1.4V208.8H10.06V210.42L6.6 214.44C7.66667 214.587 8.57333 215.027 9.32 215.76C10.08 216.48 10.46 217.42 10.46 218.58C10.46 219.86 10.0067 220.96 9.1 221.88C8.19333 222.787 6.98 223.24 5.46 223.24C4.59333 223.24 3.74 223.08 2.9 222.76C2.07333 222.427 1.36 221.953 0.76 221.34ZM20.1648 222.68C19.4848 223.053 18.6782 223.24 17.7448 223.24C16.8115 223.24 15.9982 223.053 15.3048 222.68C14.6248 222.307 14.0915 221.773 13.7048 221.08C13.3182 220.387 13.0315 219.613 12.8448 218.76C12.6715 217.907 12.5848 216.947 12.5848 215.88C12.5848 214.813 12.6715 213.853 12.8448 213C13.0315 212.147 13.3182 211.38 13.7048 210.7C14.0915 210.02 14.6248 209.493 15.3048 209.12C15.9848 208.747 16.7982 208.56 17.7448 208.56C21.1715 208.56 22.8848 211 22.8848 215.88C22.8848 216.947 22.7915 217.907 22.6048 218.76C22.4315 219.613 22.1515 220.387 21.7648 221.08C21.3915 221.773 20.8582 222.307 20.1648 222.68ZM15.2448 215.88C15.2448 219.213 16.0782 220.88 17.7448 220.88C19.4115 220.88 20.2448 219.213 20.2448 215.88C20.2448 212.587 19.4115 210.94 17.7448 210.94C16.0782 210.94 15.2448 212.587 15.2448 215.88ZM32.7234 222.68C32.0434 223.053 31.2368 223.24 30.3034 223.24C29.3701 223.24 28.5568 223.053 27.8634 222.68C27.1834 222.307 26.6501 221.773 26.2634 221.08C25.8768 220.387 25.5901 219.613 25.4034 218.76C25.2301 217.907 25.1434 216.947 25.1434 215.88C25.1434 214.813 25.2301 213.853 25.4034 213C25.5901 212.147 25.8768 211.38 26.2634 210.7C26.6501 210.02 27.1834 209.493 27.8634 209.12C28.5434 208.747 29.3568 208.56 30.3034 208.56C33.7301 208.56 35.4434 211 35.4434 215.88C35.4434 216.947 35.3501 217.907 35.1634 218.76C34.9901 219.613 34.7101 220.387 34.3234 221.08C33.9501 221.773 33.4168 222.307 32.7234 222.68ZM27.8034 215.88C27.8034 219.213 28.6368 220.88 30.3034 220.88C31.9701 220.88 32.8034 219.213 32.8034 215.88C32.8034 212.587 31.9701 210.94 30.3034 210.94C28.6368 210.94 27.8034 212.587 27.8034 215.88ZM50.282 222.68C49.602 223.053 48.7954 223.24 47.862 223.24C46.9287 223.24 46.1154 223.053 45.422 222.68C44.742 222.307 44.2087 221.773 43.822 221.08C43.4354 220.387 43.1487 219.613 42.962 218.76C42.7887 217.907 42.702 216.947 42.702 215.88C42.702 214.813 42.7887 213.853 42.962 213C43.1487 212.147 43.4354 211.38 43.822 210.7C44.2087 210.02 44.742 209.493 45.422 209.12C46.102 208.747 46.9154 208.56 47.862 208.56C51.2887 208.56 53.002 211 53.002 215.88C53.002 216.947 52.9087 217.907 52.722 218.76C52.5487 219.613 52.2687 220.387 51.882 221.08C51.5087 221.773 50.9754 222.307 50.282 222.68ZM45.362 215.88C45.362 219.213 46.1954 220.88 47.862 220.88C49.5287 220.88 50.362 219.213 50.362 215.88C50.362 212.587 49.5287 210.94 47.862 210.94C46.1954 210.94 45.362 212.587 45.362 215.88ZM62.8406 222.68C62.1606 223.053 61.354 223.24 60.4206 223.24C59.4873 223.24 58.674 223.053 57.9806 222.68C57.3006 222.307 56.7673 221.773 56.3806 221.08C55.994 220.387 55.7073 219.613 55.5206 218.76C55.3473 217.907 55.2606 216.947 55.2606 215.88C55.2606 214.813 55.3473 213.853 55.5206 213C55.7073 212.147 55.994 211.38 56.3806 210.7C56.7673 210.02 57.3006 209.493 57.9806 209.12C58.6606 208.747 59.474 208.56 60.4206 208.56C63.8473 208.56 65.5606 211 65.5606 215.88C65.5606 216.947 65.4673 217.907 65.2806 218.76C65.1073 219.613 64.8273 220.387 64.4406 221.08C64.0673 221.773 63.534 222.307 62.8406 222.68ZM57.9206 215.88C57.9206 219.213 58.754 220.88 60.4206 220.88C62.0873 220.88 62.9206 219.213 62.9206 215.88C62.9206 212.587 62.0873 210.94 60.4206 210.94C58.754 210.94 57.9206 212.587 57.9206 215.88ZM75.3992 222.68C74.7192 223.053 73.9126 223.24 72.9792 223.24C72.0459 223.24 71.2326 223.053 70.5392 222.68C69.8592 222.307 69.3259 221.773 68.9392 221.08C68.5526 220.387 68.2659 219.613 68.0792 218.76C67.9059 217.907 67.8192 216.947 67.8192 215.88C67.8192 214.813 67.9059 213.853 68.0792 213C68.2659 212.147 68.5526 211.38 68.9392 210.7C69.3259 210.02 69.8592 209.493 70.5392 209.12C71.2192 208.747 72.0326 208.56 72.9792 208.56C76.4059 208.56 78.1192 211 78.1192 215.88C78.1192 216.947 78.0259 217.907 77.8392 218.76C77.6659 219.613 77.3859 220.387 76.9992 221.08C76.6259 221.773 76.0926 222.307 75.3992 222.68ZM70.4792 215.88C70.4792 219.213 71.3126 220.88 72.9792 220.88C74.6459 220.88 75.4792 219.213 75.4792 215.88C75.4792 212.587 74.6459 210.94 72.9792 210.94C71.3126 210.94 70.4792 212.587 70.4792 215.88ZM1.134 241V233.958H2.086V236.968H6.202V233.958H7.154V241H6.202V237.808H2.086V241H1.134ZM8.94316 237.444C8.94316 236.408 9.30249 235.54 10.0212 234.84C10.7398 234.14 11.6172 233.79 12.6532 233.79C13.6892 233.79 14.5665 234.14 15.2852 234.84C16.0132 235.54 16.3772 236.408 16.3772 237.444C16.3772 238.499 16.0132 239.385 15.2852 240.104C14.5665 240.813 13.6892 241.168 12.6532 241.168C11.6172 241.168 10.7398 240.813 10.0212 240.104C9.30249 239.385 8.94316 238.499 8.94316 237.444ZM9.92316 237.444C9.92316 238.265 10.1845 238.947 10.7072 239.488C11.2392 240.029 11.8878 240.3 12.6532 240.3C13.4185 240.3 14.0672 240.029 14.5992 239.488C15.1312 238.947 15.3972 238.265 15.3972 237.444C15.3972 236.651 15.1312 235.988 14.5992 235.456C14.0672 234.915 13.4185 234.644 12.6532 234.644C11.8878 234.644 11.2392 234.915 10.7072 235.456C10.1845 235.988 9.92316 236.651 9.92316 237.444ZM17.4191 242.764C17.6804 242.979 17.9604 243.086 18.2591 243.086C18.8191 243.086 19.2671 242.703 19.6031 241.938L20.0231 240.93L17.0971 233.958H18.1471L20.2051 239.096L20.4711 239.838H20.4991C20.5644 239.577 20.6437 239.329 20.7371 239.096L22.7671 233.958H23.7891L20.3171 242.47C20.1304 242.927 19.8597 243.287 19.5051 243.548C19.1597 243.809 18.7584 243.94 18.3011 243.94C18.0864 243.94 17.8717 243.903 17.6571 243.828C17.4517 243.763 17.3024 243.697 17.2091 243.632L17.0551 243.52L17.4191 242.764ZM27.0422 241V234.798H24.4802V233.958H30.5702V234.798H27.9942V241H27.0422ZM31.7244 237.01C31.7244 235.741 31.9298 234.719 32.3404 233.944C32.7511 233.169 33.5118 232.53 34.6224 232.026L37.2264 230.808L37.5764 231.606L34.8604 232.852C34.0858 233.216 33.5258 233.655 33.1804 234.168C32.8444 234.681 32.6531 235.325 32.6064 236.1H32.6344C33.1851 235.111 34.0624 234.616 35.2664 234.616C36.1438 234.616 36.8578 234.91 37.4084 235.498C37.9684 236.077 38.2484 236.865 38.2484 237.864C38.2484 238.835 37.9498 239.628 37.3524 240.244C36.7551 240.86 35.9851 241.168 35.0424 241.168C33.9318 241.168 33.1011 240.79 32.5504 240.034C31.9998 239.278 31.7244 238.27 31.7244 237.01ZM32.7604 237.85C32.7604 238.606 32.9751 239.208 33.4044 239.656C33.8338 240.104 34.3704 240.328 35.0144 240.328C35.6584 240.328 36.1951 240.109 36.6244 239.67C37.0538 239.222 37.2684 238.625 37.2684 237.878C37.2684 237.122 37.0538 236.525 36.6244 236.086C36.2044 235.638 35.6864 235.414 35.0704 235.414C34.3891 235.414 33.8338 235.647 33.4044 236.114C32.9751 236.581 32.7604 237.159 32.7604 237.85ZM39.253 242.764C39.5144 242.979 39.7944 243.086 40.093 243.086C40.653 243.086 41.101 242.703 41.437 241.938L41.857 240.93L38.931 233.958H39.981L42.039 239.096L42.305 239.838H42.333C42.3984 239.577 42.4777 239.329 42.571 239.096L44.601 233.958H45.623L42.151 242.47C41.9644 242.927 41.6937 243.287 41.339 243.548C40.9937 243.809 40.5924 243.94 40.135 243.94C39.9204 243.94 39.7057 243.903 39.491 243.828C39.2857 243.763 39.1364 243.697 39.043 243.632L38.889 243.52L39.253 242.764ZM47.1262 241V233.958H48.0782V236.94H49.1982L51.3122 233.958H52.4322L49.9822 237.304V237.332L52.7122 241H51.5502L49.2122 237.78H48.0782V241H47.1262ZM53.281 237.444C53.281 236.408 53.6404 235.54 54.359 234.84C55.0777 234.14 55.955 233.79 56.991 233.79C58.027 233.79 58.9044 234.14 59.623 234.84C60.351 235.54 60.715 236.408 60.715 237.444C60.715 238.499 60.351 239.385 59.623 240.104C58.9044 240.813 58.027 241.168 56.991 241.168C55.955 241.168 55.0777 240.813 54.359 240.104C53.6404 239.385 53.281 238.499 53.281 237.444ZM54.261 237.444C54.261 238.265 54.5224 238.947 55.045 239.488C55.577 240.029 56.2257 240.3 56.991 240.3C57.7564 240.3 58.405 240.029 58.937 239.488C59.469 238.947 59.735 238.265 59.735 237.444C59.735 236.651 59.469 235.988 58.937 235.456C58.405 234.915 57.7564 234.644 56.991 234.644C56.2257 234.644 55.577 234.915 55.045 235.456C54.5224 235.988 54.261 236.651 54.261 237.444ZM62.4934 241V233.958H65.0414C65.7694 233.958 66.3387 234.117 66.7494 234.434C67.16 234.742 67.3654 235.181 67.3654 235.75C67.3654 236.525 67.0107 237.043 66.3014 237.304V237.332C66.7494 237.425 67.0994 237.626 67.3514 237.934C67.6034 238.242 67.7294 238.606 67.7294 239.026C67.7294 239.633 67.5007 240.113 67.0434 240.468C66.5954 240.823 65.9747 241 65.1814 241H62.4934ZM63.4454 237.01H64.9434C65.41 237.01 65.7647 236.907 66.0074 236.702C66.2594 236.487 66.3854 236.189 66.3854 235.806C66.3854 235.059 65.886 234.686 64.8874 234.686H63.4454V237.01ZM63.4454 240.258H65.0554C65.6247 240.258 66.0494 240.151 66.3294 239.936C66.6094 239.712 66.7494 239.404 66.7494 239.012C66.7494 238.601 66.6 238.289 66.3014 238.074C66.012 237.85 65.592 237.738 65.0414 237.738H63.4454V240.258Z" fill="#2F303E" fill-opacity="0.8"/>
<path d="M446.88 132.32L448.22 130.38C449.087 131.327 450.093 131.8 451.24 131.8C451.96 131.8 452.58 131.58 453.1 131.14C453.633 130.687 453.9 130.1 453.9 129.38C453.9 128.647 453.633 128.053 453.1 127.6C452.567 127.147 451.887 126.92 451.06 126.92C450.273 126.92 449.54 127.12 448.86 127.52L447.42 127L448.08 119.8H455.56V122.02H450.32L450.1 124.36L450 125.02H450.04C450.44 124.807 450.947 124.7 451.56 124.7C453.08 124.7 454.293 125.147 455.2 126.04C456.107 126.933 456.56 128.04 456.56 129.36C456.56 130.76 456.073 131.927 455.1 132.86C454.127 133.78 452.907 134.24 451.44 134.24C450.573 134.24 449.74 134.073 448.94 133.74C448.14 133.407 447.453 132.933 446.88 132.32ZM466.106 133.68C465.426 134.053 464.62 134.24 463.686 134.24C462.753 134.24 461.94 134.053 461.246 133.68C460.566 133.307 460.033 132.773 459.646 132.08C459.26 131.387 458.973 130.613 458.786 129.76C458.613 128.907 458.526 127.947 458.526 126.88C458.526 125.813 458.613 124.853 458.786 124C458.973 123.147 459.26 122.38 459.646 121.7C460.033 121.02 460.566 120.493 461.246 120.12C461.926 119.747 462.74 119.56 463.686 119.56C467.113 119.56 468.826 122 468.826 126.88C468.826 127.947 468.733 128.907 468.546 129.76C468.373 130.613 468.093 131.387 467.706 132.08C467.333 132.773 466.8 133.307 466.106 133.68ZM461.186 126.88C461.186 130.213 462.02 131.88 463.686 131.88C465.353 131.88 466.186 130.213 466.186 126.88C466.186 123.587 465.353 121.94 463.686 121.94C462.02 121.94 461.186 123.587 461.186 126.88ZM483.665 133.68C482.985 134.053 482.178 134.24 481.245 134.24C480.312 134.24 479.498 134.053 478.805 133.68C478.125 133.307 477.592 132.773 477.205 132.08C476.818 131.387 476.532 130.613 476.345 129.76C476.172 128.907 476.085 127.947 476.085 126.88C476.085 125.813 476.172 124.853 476.345 124C476.532 123.147 476.818 122.38 477.205 121.7C477.592 121.02 478.125 120.493 478.805 120.12C479.485 119.747 480.298 119.56 481.245 119.56C484.672 119.56 486.385 122 486.385 126.88C486.385 127.947 486.292 128.907 486.105 129.76C485.932 130.613 485.652 131.387 485.265 132.08C484.892 132.773 484.358 133.307 483.665 133.68ZM478.745 126.88C478.745 130.213 479.578 131.88 481.245 131.88C482.912 131.88 483.745 130.213 483.745 126.88C483.745 123.587 482.912 121.94 481.245 121.94C479.578 121.94 478.745 123.587 478.745 126.88ZM496.223 133.68C495.543 134.053 494.737 134.24 493.803 134.24C492.87 134.24 492.057 134.053 491.363 133.68C490.683 133.307 490.15 132.773 489.763 132.08C489.377 131.387 489.09 130.613 488.903 129.76C488.73 128.907 488.643 127.947 488.643 126.88C488.643 125.813 488.73 124.853 488.903 124C489.09 123.147 489.377 122.38 489.763 121.7C490.15 121.02 490.683 120.493 491.363 120.12C492.043 119.747 492.857 119.56 493.803 119.56C497.23 119.56 498.943 122 498.943 126.88C498.943 127.947 498.85 128.907 498.663 129.76C498.49 130.613 498.21 131.387 497.823 132.08C497.45 132.773 496.917 133.307 496.223 133.68ZM491.303 126.88C491.303 130.213 492.137 131.88 493.803 131.88C495.47 131.88 496.303 130.213 496.303 126.88C496.303 123.587 495.47 121.94 493.803 121.94C492.137 121.94 491.303 123.587 491.303 126.88ZM508.782 133.68C508.102 134.053 507.295 134.24 506.362 134.24C505.429 134.24 504.615 134.053 503.922 133.68C503.242 133.307 502.709 132.773 502.322 132.08C501.935 131.387 501.649 130.613 501.462 129.76C501.289 128.907 501.202 127.947 501.202 126.88C501.202 125.813 501.289 124.853 501.462 124C501.649 123.147 501.935 122.38 502.322 121.7C502.709 121.02 503.242 120.493 503.922 120.12C504.602 119.747 505.415 119.56 506.362 119.56C509.789 119.56 511.502 122 511.502 126.88C511.502 127.947 511.409 128.907 511.222 129.76C511.049 130.613 510.769 131.387 510.382 132.08C510.009 132.773 509.475 133.307 508.782 133.68ZM503.862 126.88C503.862 130.213 504.695 131.88 506.362 131.88C508.029 131.88 508.862 130.213 508.862 126.88C508.862 123.587 508.029 121.94 506.362 121.94C504.695 121.94 503.862 123.587 503.862 126.88ZM446.672 148.444C446.672 147.389 447.022 146.531 447.722 145.868C448.431 145.205 449.346 144.851 450.466 144.804V142.2H451.39V144.804C452.51 144.851 453.42 145.205 454.12 145.868C454.829 146.531 455.184 147.389 455.184 148.444C455.184 149.517 454.829 150.395 454.12 151.076C453.42 151.748 452.51 152.107 451.39 152.154V154.8H450.466V152.154C449.346 152.107 448.431 151.748 447.722 151.076C447.022 150.395 446.672 149.517 446.672 148.444ZM451.39 151.328C452.239 151.281 452.921 151.001 453.434 150.488C453.957 149.965 454.218 149.284 454.218 148.444C454.218 147.613 453.957 146.951 453.434 146.456C452.921 145.961 452.239 145.691 451.39 145.644V151.328ZM447.638 148.444C447.638 149.284 447.895 149.965 448.408 150.488C448.931 151.001 449.617 151.281 450.466 151.328V145.644C449.617 145.691 448.931 145.961 448.408 146.456C447.895 146.951 447.638 147.613 447.638 148.444ZM456.515 148.444C456.515 147.408 456.875 146.54 457.593 145.84C458.312 145.14 459.189 144.79 460.225 144.79C461.261 144.79 462.139 145.14 462.857 145.84C463.585 146.54 463.949 147.408 463.949 148.444C463.949 149.499 463.585 150.385 462.857 151.104C462.139 151.813 461.261 152.168 460.225 152.168C459.189 152.168 458.312 151.813 457.593 151.104C456.875 150.385 456.515 149.499 456.515 148.444ZM457.495 148.444C457.495 149.265 457.757 149.947 458.279 150.488C458.811 151.029 459.46 151.3 460.225 151.3C460.991 151.3 461.639 151.029 462.171 150.488C462.703 149.947 462.969 149.265 462.969 148.444C462.969 147.651 462.703 146.988 462.171 146.456C461.639 145.915 460.991 145.644 460.225 145.644C459.46 145.644 458.811 145.915 458.279 146.456C457.757 146.988 457.495 147.651 457.495 148.444ZM467.177 152V145.798H464.615V144.958H470.705V145.798H468.129V152H467.177ZM471.39 148.444C471.39 147.408 471.75 146.54 472.468 145.84C473.187 145.14 474.064 144.79 475.1 144.79C476.136 144.79 477.014 145.14 477.732 145.84C478.46 146.54 478.824 147.408 478.824 148.444C478.824 149.499 478.46 150.385 477.732 151.104C477.014 151.813 476.136 152.168 475.1 152.168C474.064 152.168 473.187 151.813 472.468 151.104C471.75 150.385 471.39 149.499 471.39 148.444ZM472.37 148.444C472.37 149.265 472.632 149.947 473.154 150.488C473.686 151.029 474.335 151.3 475.1 151.3C475.866 151.3 476.514 151.029 477.046 150.488C477.578 149.947 477.844 149.265 477.844 148.444C477.844 147.651 477.578 146.988 477.046 146.456C476.514 145.915 475.866 145.644 475.1 145.644C474.335 145.644 473.686 145.915 473.154 146.456C472.632 146.988 472.37 147.651 472.37 148.444ZM479.987 150.11C479.987 148.477 481.415 147.66 484.271 147.66H484.691V147.464C484.691 146.251 484.112 145.644 482.955 145.644C482.236 145.644 481.569 145.868 480.953 146.316L480.519 145.588C480.799 145.345 481.167 145.154 481.625 145.014C482.082 144.865 482.544 144.79 483.011 144.79C483.86 144.79 484.509 145.023 484.957 145.49C485.414 145.947 485.643 146.615 485.643 147.492V152H484.733V151.174L484.775 150.586H484.747C484.551 151.034 484.238 151.412 483.809 151.72C483.389 152.019 482.908 152.168 482.367 152.168C481.723 152.168 481.163 151.986 480.687 151.622C480.22 151.258 479.987 150.754 479.987 150.11ZM480.953 150.026C480.953 150.381 481.093 150.693 481.373 150.964C481.653 151.235 482.04 151.37 482.535 151.37C483.179 151.37 483.697 151.099 484.089 150.558C484.49 150.017 484.691 149.41 484.691 148.738V148.416H484.285C483.986 148.416 483.725 148.421 483.501 148.43C483.286 148.439 483.001 148.477 482.647 148.542C482.301 148.598 482.017 148.677 481.793 148.78C481.569 148.883 481.373 149.041 481.205 149.256C481.037 149.471 480.953 149.727 480.953 150.026ZM487.835 152V144.958H493.729V152H492.777V145.798H488.787V152H487.835ZM495.997 152V144.958H501.891V152H500.939V145.798H496.949V152H495.997ZM503.543 150.11C503.543 148.477 504.971 147.66 507.827 147.66H508.247V147.464C508.247 146.251 507.669 145.644 506.511 145.644C505.793 145.644 505.125 145.868 504.509 146.316L504.075 145.588C504.355 145.345 504.724 145.154 505.181 145.014C505.639 144.865 506.101 144.79 506.567 144.79C507.417 144.79 508.065 145.023 508.513 145.49C508.971 145.947 509.199 146.615 509.199 147.492V152H508.289V151.174L508.331 150.586H508.303C508.107 151.034 507.795 151.412 507.365 151.72C506.945 152.019 506.465 152.168 505.923 152.168C505.279 152.168 504.719 151.986 504.243 151.622C503.777 151.258 503.543 150.754 503.543 150.11ZM504.509 150.026C504.509 150.381 504.649 150.693 504.929 150.964C505.209 151.235 505.597 151.37 506.091 151.37C506.735 151.37 507.253 151.099 507.645 150.558C508.047 150.017 508.247 149.41 508.247 148.738V148.416H507.841C507.543 148.416 507.281 148.421 507.057 148.43C506.843 148.439 506.558 148.477 506.203 148.542C505.858 148.598 505.573 148.677 505.349 148.78C505.125 148.883 504.929 149.041 504.761 149.256C504.593 149.471 504.509 149.727 504.509 150.026ZM511.392 154.8V144.958H512.302V145.7L512.26 146.246H512.288C512.502 145.789 512.824 145.434 513.254 145.182C513.692 144.921 514.187 144.79 514.738 144.79C515.68 144.79 516.427 145.131 516.978 145.812C517.528 146.484 517.804 147.371 517.804 148.472C517.804 149.583 517.51 150.479 516.922 151.16C516.334 151.832 515.578 152.168 514.654 152.168C514.159 152.168 513.706 152.047 513.296 151.804C512.885 151.552 512.563 151.207 512.33 150.768H512.302C512.33 150.936 512.344 151.141 512.344 151.384V154.8H511.392ZM512.316 148.5C512.316 149.256 512.516 149.914 512.918 150.474C513.328 151.034 513.874 151.314 514.556 151.314C515.2 151.314 515.741 151.062 516.18 150.558C516.618 150.045 516.838 149.354 516.838 148.486C516.838 147.637 516.628 146.955 516.208 146.442C515.797 145.919 515.26 145.658 514.598 145.658C513.954 145.658 513.412 145.896 512.974 146.372C512.535 146.848 512.316 147.557 512.316 148.5ZM519.02 150.11C519.02 148.477 520.448 147.66 523.304 147.66H523.724V147.464C523.724 146.251 523.145 145.644 521.988 145.644C521.269 145.644 520.602 145.868 519.986 146.316L519.552 145.588C519.832 145.345 520.201 145.154 520.658 145.014C521.115 144.865 521.577 144.79 522.044 144.79C522.893 144.79 523.542 145.023 523.99 145.49C524.447 145.947 524.676 146.615 524.676 147.492V152H523.766V151.174L523.808 150.586H523.78C523.584 151.034 523.271 151.412 522.842 151.72C522.422 152.019 521.941 152.168 521.4 152.168C520.756 152.168 520.196 151.986 519.72 151.622C519.253 151.258 519.02 150.754 519.02 150.11ZM519.986 150.026C519.986 150.381 520.126 150.693 520.406 150.964C520.686 151.235 521.073 151.37 521.568 151.37C522.212 151.37 522.73 151.099 523.122 150.558C523.523 150.017 523.724 149.41 523.724 148.738V148.416H523.318C523.019 148.416 522.758 148.421 522.534 148.43C522.319 148.439 522.035 148.477 521.68 148.542C521.335 148.598 521.05 148.677 520.826 148.78C520.602 148.883 520.406 149.041 520.238 149.256C520.07 149.471 519.986 149.727 519.986 150.026ZM528.495 152V145.798H525.933V144.958H532.023V145.798H529.447V152H528.495ZM532.709 148.444C532.709 147.408 533.068 146.54 533.787 145.84C534.505 145.14 535.383 144.79 536.419 144.79C537.455 144.79 538.332 145.14 539.051 145.84C539.779 146.54 540.143 147.408 540.143 148.444C540.143 149.499 539.779 150.385 539.051 151.104C538.332 151.813 537.455 152.168 536.419 152.168C535.383 152.168 534.505 151.813 533.787 151.104C533.068 150.385 532.709 149.499 532.709 148.444ZM533.689 148.444C533.689 149.265 533.95 149.947 534.473 150.488C535.005 151.029 535.653 151.3 536.419 151.3C537.184 151.3 537.833 151.029 538.365 150.488C538.897 149.947 539.163 149.265 539.163 148.444C539.163 147.651 538.897 146.988 538.365 146.456C537.833 145.915 537.184 145.644 536.419 145.644C535.653 145.644 535.005 145.915 534.473 146.456C533.95 146.988 533.689 147.651 533.689 148.444ZM541.921 152V144.958H544.469C545.197 144.958 545.766 145.117 546.177 145.434C546.588 145.742 546.793 146.181 546.793 146.75C546.793 147.525 546.438 148.043 545.729 148.304V148.332C546.177 148.425 546.527 148.626 546.779 148.934C547.031 149.242 547.157 149.606 547.157 150.026C547.157 150.633 546.928 151.113 546.471 151.468C546.023 151.823 545.402 152 544.609 152H541.921ZM542.873 148.01H544.371C544.838 148.01 545.192 147.907 545.435 147.702C545.687 147.487 545.813 147.189 545.813 146.806C545.813 146.059 545.314 145.686 544.315 145.686H542.873V148.01ZM542.873 151.258H544.483C545.052 151.258 545.477 151.151 545.757 150.936C546.037 150.712 546.177 150.404 546.177 150.012C546.177 149.601 546.028 149.289 545.729 149.074C545.44 148.85 545.02 148.738 544.469 148.738H542.873V151.258Z" fill="#2F303E" fill-opacity="0.8"/>
<path d="M348.12 19V16.78H351.22V8.9L351.24 7.94H351.2C351.08 8.16667 350.867 8.43333 350.56 8.74L349.42 9.82L347.9 8.22L351.46 4.8H353.72V16.78H356.8V19H348.12ZM366.032 18.68C365.352 19.0533 364.545 19.24 363.612 19.24C362.679 19.24 361.865 19.0533 361.172 18.68C360.492 18.3067 359.959 17.7733 359.572 17.08C359.185 16.3867 358.899 15.6133 358.712 14.76C358.539 13.9067 358.452 12.9467 358.452 11.88C358.452 10.8133 358.539 9.85333 358.712 9C358.899 8.14667 359.185 7.38 359.572 6.7C359.959 6.02 360.492 5.49333 361.172 5.12C361.852 4.74667 362.665 4.56 363.612 4.56C367.039 4.56 368.752 7 368.752 11.88C368.752 12.9467 368.659 13.9067 368.472 14.76C368.299 15.6133 368.019 16.3867 367.632 17.08C367.259 17.7733 366.725 18.3067 366.032 18.68ZM361.112 11.88C361.112 15.2133 361.945 16.88 363.612 16.88C365.279 16.88 366.112 15.2133 366.112 11.88C366.112 8.58667 365.279 6.94 363.612 6.94C361.945 6.94 361.112 8.58667 361.112 11.88ZM378.591 18.68C377.911 19.0533 377.104 19.24 376.171 19.24C375.237 19.24 374.424 19.0533 373.731 18.68C373.051 18.3067 372.517 17.7733 372.131 17.08C371.744 16.3867 371.457 15.6133 371.271 14.76C371.097 13.9067 371.011 12.9467 371.011 11.88C371.011 10.8133 371.097 9.85333 371.271 9C371.457 8.14667 371.744 7.38 372.131 6.7C372.517 6.02 373.051 5.49333 373.731 5.12C374.411 4.74667 375.224 4.56 376.171 4.56C379.597 4.56 381.311 7 381.311 11.88C381.311 12.9467 381.217 13.9067 381.031 14.76C380.857 15.6133 380.577 16.3867 380.191 17.08C379.817 17.7733 379.284 18.3067 378.591 18.68ZM373.671 11.88C373.671 15.2133 374.504 16.88 376.171 16.88C377.837 16.88 378.671 15.2133 378.671 11.88C378.671 8.58667 377.837 6.94 376.171 6.94C374.504 6.94 373.671 8.58667 373.671 11.88ZM396.149 18.68C395.469 19.0533 394.663 19.24 393.729 19.24C392.796 19.24 391.983 19.0533 391.289 18.68C390.609 18.3067 390.076 17.7733 389.689 17.08C389.303 16.3867 389.016 15.6133 388.829 14.76C388.656 13.9067 388.569 12.9467 388.569 11.88C388.569 10.8133 388.656 9.85333 388.829 9C389.016 8.14667 389.303 7.38 389.689 6.7C390.076 6.02 390.609 5.49333 391.289 5.12C391.969 4.74667 392.783 4.56 393.729 4.56C397.156 4.56 398.869 7 398.869 11.88C398.869 12.9467 398.776 13.9067 398.589 14.76C398.416 15.6133 398.136 16.3867 397.749 17.08C397.376 17.7733 396.843 18.3067 396.149 18.68ZM391.229 11.88C391.229 15.2133 392.063 16.88 393.729 16.88C395.396 16.88 396.229 15.2133 396.229 11.88C396.229 8.58667 395.396 6.94 393.729 6.94C392.063 6.94 391.229 8.58667 391.229 11.88ZM408.708 18.68C408.028 19.0533 407.221 19.24 406.288 19.24C405.354 19.24 404.541 19.0533 403.848 18.68C403.168 18.3067 402.634 17.7733 402.248 17.08C401.861 16.3867 401.574 15.6133 401.388 14.76C401.214 13.9067 401.128 12.9467 401.128 11.88C401.128 10.8133 401.214 9.85333 401.388 9C401.574 8.14667 401.861 7.38 402.248 6.7C402.634 6.02 403.168 5.49333 403.848 5.12C404.528 4.74667 405.341 4.56 406.288 4.56C409.714 4.56 411.428 7 411.428 11.88C411.428 12.9467 411.334 13.9067 411.148 14.76C410.974 15.6133 410.694 16.3867 410.308 17.08C409.934 17.7733 409.401 18.3067 408.708 18.68ZM403.788 11.88C403.788 15.2133 404.621 16.88 406.288 16.88C407.954 16.88 408.788 15.2133 408.788 11.88C408.788 8.58667 407.954 6.94 406.288 6.94C404.621 6.94 403.788 8.58667 403.788 11.88ZM421.266 18.68C420.586 19.0533 419.78 19.24 418.846 19.24C417.913 19.24 417.1 19.0533 416.406 18.68C415.726 18.3067 415.193 17.7733 414.806 17.08C414.42 16.3867 414.133 15.6133 413.946 14.76C413.773 13.9067 413.686 12.9467 413.686 11.88C413.686 10.8133 413.773 9.85333 413.946 9C414.133 8.14667 414.42 7.38 414.806 6.7C415.193 6.02 415.726 5.49333 416.406 5.12C417.086 4.74667 417.9 4.56 418.846 4.56C422.273 4.56 423.986 7 423.986 11.88C423.986 12.9467 423.893 13.9067 423.706 14.76C423.533 15.6133 423.253 16.3867 422.866 17.08C422.493 17.7733 421.96 18.3067 421.266 18.68ZM416.346 11.88C416.346 15.2133 417.18 16.88 418.846 16.88C420.513 16.88 421.346 15.2133 421.346 11.88C421.346 8.58667 420.513 6.94 418.846 6.94C417.18 6.94 416.346 8.58667 416.346 11.88ZM349.884 37V30.798H347.322V29.958H353.412V30.798H350.836V37H349.884ZM354.097 33.486C354.097 32.366 354.429 31.47 355.091 30.798C355.763 30.126 356.594 29.79 357.583 29.79C358.517 29.79 359.24 30.1027 359.753 30.728C360.267 31.344 360.523 32.114 360.523 33.038C360.523 33.15 360.514 33.3087 360.495 33.514H355.091C355.11 34.382 355.381 35.0633 355.903 35.558C356.426 36.0527 357.065 36.3 357.821 36.3C358.633 36.3 359.347 36.02 359.963 35.46L360.397 36.188C360.071 36.4867 359.669 36.7247 359.193 36.902C358.727 37.0793 358.26 37.168 357.793 37.168C356.739 37.168 355.857 36.8227 355.147 36.132C354.447 35.4413 354.097 34.5593 354.097 33.486ZM355.133 32.758H359.557C359.529 32.058 359.329 31.5213 358.955 31.148C358.582 30.7653 358.115 30.574 357.555 30.574C356.949 30.574 356.421 30.7653 355.973 31.148C355.525 31.5307 355.245 32.0673 355.133 32.758ZM361.458 37.056V36.202C362.036 36.1087 362.461 35.7307 362.732 35.068C363.002 34.396 363.138 33.402 363.138 32.086V29.958H367.45V37H366.498V30.784H364.062V32.086C364.062 33.7473 363.852 34.9747 363.432 35.768C363.021 36.552 362.363 36.9813 361.458 37.056ZM369.26 33.486C369.26 32.366 369.591 31.47 370.254 30.798C370.926 30.126 371.756 29.79 372.746 29.79C373.679 29.79 374.402 30.1027 374.916 30.728C375.429 31.344 375.686 32.114 375.686 33.038C375.686 33.15 375.676 33.3087 375.658 33.514H370.254C370.272 34.382 370.543 35.0633 371.066 35.558C371.588 36.0527 372.228 36.3 372.984 36.3C373.796 36.3 374.51 36.02 375.126 35.46L375.56 36.188C375.233 36.4867 374.832 36.7247 374.356 36.902C373.889 37.0793 373.422 37.168 372.956 37.168C371.901 37.168 371.019 36.8227 370.31 36.132C369.61 35.4413 369.26 34.5593 369.26 33.486ZM370.296 32.758H374.72C374.692 32.058 374.491 31.5213 374.118 31.148C373.744 30.7653 373.278 30.574 372.718 30.574C372.111 30.574 371.584 30.7653 371.136 31.148C370.688 31.5307 370.408 32.0673 370.296 32.758ZM377.474 37V29.958H380.022C380.75 29.958 381.319 30.1167 381.73 30.434C382.141 30.742 382.346 31.1807 382.346 31.75C382.346 32.5247 381.991 33.0427 381.282 33.304V33.332C381.73 33.4253 382.08 33.626 382.332 33.934C382.584 34.242 382.71 34.606 382.71 35.026C382.71 35.6327 382.481 36.1133 382.024 36.468C381.576 36.8227 380.955 37 380.162 37H377.474ZM378.426 33.01H379.924C380.391 33.01 380.745 32.9073 380.988 32.702C381.24 32.4873 381.366 32.1887 381.366 31.806C381.366 31.0593 380.867 30.686 379.868 30.686H378.426V33.01ZM378.426 36.258H380.036C380.605 36.258 381.03 36.1507 381.31 35.936C381.59 35.712 381.73 35.404 381.73 35.012C381.73 34.6013 381.581 34.2887 381.282 34.074C380.993 33.85 380.573 33.738 380.022 33.738H378.426V36.258ZM384.515 37V29.958H385.439V34.578C385.439 35.222 385.425 35.572 385.397 35.628H385.425C385.462 35.5627 385.705 35.2127 386.153 34.578L389.611 29.958H390.521V37H389.583V32.366C389.583 32.2447 389.583 32.1047 389.583 31.946C389.592 31.7873 389.602 31.652 389.611 31.54C389.62 31.4187 389.625 31.3533 389.625 31.344H389.597C389.597 31.3627 389.555 31.428 389.471 31.54C389.396 31.652 389.294 31.792 389.163 31.96C389.042 32.128 388.948 32.2633 388.883 32.366L385.425 37H384.515ZM392.072 36.146L392.576 35.488C393.127 36.0667 393.757 36.356 394.466 36.356C394.933 36.356 395.33 36.2393 395.656 36.006C395.992 35.7633 396.16 35.4227 396.16 34.984C396.16 34.1533 395.591 33.738 394.452 33.738H393.598V32.982H394.34C394.835 32.982 395.218 32.884 395.488 32.688C395.768 32.4827 395.908 32.184 395.908 31.792C395.908 31.4 395.778 31.106 395.516 30.91C395.255 30.7047 394.9 30.602 394.452 30.602C393.836 30.602 393.262 30.812 392.73 31.232L392.31 30.56C392.926 30.0467 393.687 29.79 394.592 29.79C395.274 29.79 395.824 29.9533 396.244 30.28C396.674 30.6067 396.888 31.0733 396.888 31.68C396.888 32.4733 396.529 33.01 395.81 33.29V33.318C396.212 33.4207 396.534 33.6167 396.776 33.906C397.019 34.1953 397.14 34.564 397.14 35.012C397.14 35.6933 396.884 36.2253 396.37 36.608C395.866 36.9813 395.25 37.168 394.522 37.168C393.589 37.168 392.772 36.8273 392.072 36.146ZM398.463 33.444C398.463 32.408 398.822 31.54 399.541 30.84C400.259 30.14 401.137 29.79 402.173 29.79C403.209 29.79 404.086 30.14 404.805 30.84C405.533 31.54 405.897 32.408 405.897 33.444C405.897 34.4987 405.533 35.3853 404.805 36.104C404.086 36.8133 403.209 37.168 402.173 37.168C401.137 37.168 400.259 36.8133 399.541 36.104C398.822 35.3853 398.463 34.4987 398.463 33.444ZM399.443 33.444C399.443 34.2653 399.704 34.9467 400.227 35.488C400.759 36.0293 401.407 36.3 402.173 36.3C402.938 36.3 403.587 36.0293 404.119 35.488C404.651 34.9467 404.917 34.2653 404.917 33.444C404.917 32.6507 404.651 31.988 404.119 31.456C403.587 30.9147 402.938 30.644 402.173 30.644C401.407 30.644 400.759 30.9147 400.227 31.456C399.704 31.988 399.443 32.6507 399.443 33.444ZM407.675 39.8V29.958H408.585V30.7L408.543 31.246H408.571C408.786 30.7887 409.108 30.434 409.537 30.182C409.976 29.9207 410.47 29.79 411.021 29.79C411.964 29.79 412.71 30.1307 413.261 30.812C413.812 31.484 414.087 32.3707 414.087 33.472C414.087 34.5827 413.793 35.4787 413.205 36.16C412.617 36.832 411.861 37.168 410.937 37.168C410.442 37.168 409.99 37.0467 409.579 36.804C409.168 36.552 408.846 36.2067 408.613 35.768H408.585C408.613 35.936 408.627 36.1413 408.627 36.384V39.8H407.675ZM408.599 33.5C408.599 34.256 408.8 34.914 409.201 35.474C409.612 36.034 410.158 36.314 410.839 36.314C411.483 36.314 412.024 36.062 412.463 35.558C412.902 35.0447 413.121 34.354 413.121 33.486C413.121 32.6367 412.911 31.9553 412.491 31.442C412.08 30.9193 411.544 30.658 410.881 30.658C410.237 30.658 409.696 30.896 409.257 31.372C408.818 31.848 408.599 32.5573 408.599 33.5ZM415.443 33.444C415.443 32.408 415.802 31.54 416.521 30.84C417.24 30.14 418.117 29.79 419.153 29.79C420.189 29.79 421.066 30.14 421.785 30.84C422.513 31.54 422.877 32.408 422.877 33.444C422.877 34.4987 422.513 35.3853 421.785 36.104C421.066 36.8133 420.189 37.168 419.153 37.168C418.117 37.168 417.24 36.8133 416.521 36.104C415.802 35.3853 415.443 34.4987 415.443 33.444ZM416.423 33.444C416.423 34.2653 416.684 34.9467 417.207 35.488C417.739 36.0293 418.388 36.3 419.153 36.3C419.918 36.3 420.567 36.0293 421.099 35.488C421.631 34.9467 421.897 34.2653 421.897 33.444C421.897 32.6507 421.631 31.988 421.099 31.456C420.567 30.9147 419.918 30.644 419.153 30.644C418.388 30.644 417.739 30.9147 417.207 31.456C416.684 31.988 416.423 32.6507 416.423 33.444ZM424.655 37V29.958H427.203C427.931 29.958 428.501 30.1167 428.911 30.434C429.322 30.742 429.527 31.1807 429.527 31.75C429.527 32.5247 429.173 33.0427 428.463 33.304V33.332C428.911 33.4253 429.261 33.626 429.513 33.934C429.765 34.242 429.891 34.606 429.891 35.026C429.891 35.6327 429.663 36.1133 429.205 36.468C428.757 36.8227 428.137 37 427.343 37H424.655ZM425.607 33.01H427.105C427.572 33.01 427.927 32.9073 428.169 32.702C428.421 32.4873 428.547 32.1887 428.547 31.806C428.547 31.0593 428.048 30.686 427.049 30.686H425.607V33.01ZM425.607 36.258H427.217C427.787 36.258 428.211 36.1507 428.491 35.936C428.771 35.712 428.911 35.404 428.911 35.012C428.911 34.6013 428.762 34.2887 428.463 34.074C428.174 33.85 427.754 33.738 427.203 33.738H425.607V36.258Z" fill="#2F303E" fill-opacity="0.8"/>
<path d="M96.12 19V16.78H99.22V8.9L99.24 7.94H99.2C99.08 8.16667 98.8667 8.43333 98.56 8.74L97.42 9.82L95.9 8.22L99.46 4.8H101.72V16.78H104.8V19H96.12ZM114.032 18.68C113.352 19.0533 112.545 19.24 111.612 19.24C110.679 19.24 109.865 19.0533 109.172 18.68C108.492 18.3067 107.959 17.7733 107.572 17.08C107.185 16.3867 106.899 15.6133 106.712 14.76C106.539 13.9067 106.452 12.9467 106.452 11.88C106.452 10.8133 106.539 9.85333 106.712 9C106.899 8.14667 107.185 7.38 107.572 6.7C107.959 6.02 108.492 5.49333 109.172 5.12C109.852 4.74667 110.665 4.56 111.612 4.56C115.039 4.56 116.752 7 116.752 11.88C116.752 12.9467 116.659 13.9067 116.472 14.76C116.299 15.6133 116.019 16.3867 115.632 17.08C115.259 17.7733 114.725 18.3067 114.032 18.68ZM109.112 11.88C109.112 15.2133 109.945 16.88 111.612 16.88C113.279 16.88 114.112 15.2133 114.112 11.88C114.112 8.58667 113.279 6.94 111.612 6.94C109.945 6.94 109.112 8.58667 109.112 11.88ZM126.591 18.68C125.911 19.0533 125.104 19.24 124.171 19.24C123.237 19.24 122.424 19.0533 121.731 18.68C121.051 18.3067 120.517 17.7733 120.131 17.08C119.744 16.3867 119.457 15.6133 119.271 14.76C119.097 13.9067 119.011 12.9467 119.011 11.88C119.011 10.8133 119.097 9.85333 119.271 9C119.457 8.14667 119.744 7.38 120.131 6.7C120.517 6.02 121.051 5.49333 121.731 5.12C122.411 4.74667 123.224 4.56 124.171 4.56C127.597 4.56 129.311 7 129.311 11.88C129.311 12.9467 129.217 13.9067 129.031 14.76C128.857 15.6133 128.577 16.3867 128.191 17.08C127.817 17.7733 127.284 18.3067 126.591 18.68ZM121.671 11.88C121.671 15.2133 122.504 16.88 124.171 16.88C125.837 16.88 126.671 15.2133 126.671 11.88C126.671 8.58667 125.837 6.94 124.171 6.94C122.504 6.94 121.671 8.58667 121.671 11.88ZM144.149 18.68C143.469 19.0533 142.663 19.24 141.729 19.24C140.796 19.24 139.983 19.0533 139.289 18.68C138.609 18.3067 138.076 17.7733 137.689 17.08C137.303 16.3867 137.016 15.6133 136.829 14.76C136.656 13.9067 136.569 12.9467 136.569 11.88C136.569 10.8133 136.656 9.85333 136.829 9C137.016 8.14667 137.303 7.38 137.689 6.7C138.076 6.02 138.609 5.49333 139.289 5.12C139.969 4.74667 140.783 4.56 141.729 4.56C145.156 4.56 146.869 7 146.869 11.88C146.869 12.9467 146.776 13.9067 146.589 14.76C146.416 15.6133 146.136 16.3867 145.749 17.08C145.376 17.7733 144.843 18.3067 144.149 18.68ZM139.229 11.88C139.229 15.2133 140.063 16.88 141.729 16.88C143.396 16.88 144.229 15.2133 144.229 11.88C144.229 8.58667 143.396 6.94 141.729 6.94C140.063 6.94 139.229 8.58667 139.229 11.88ZM156.708 18.68C156.028 19.0533 155.221 19.24 154.288 19.24C153.354 19.24 152.541 19.0533 151.848 18.68C151.168 18.3067 150.634 17.7733 150.248 17.08C149.861 16.3867 149.574 15.6133 149.388 14.76C149.214 13.9067 149.128 12.9467 149.128 11.88C149.128 10.8133 149.214 9.85333 149.388 9C149.574 8.14667 149.861 7.38 150.248 6.7C150.634 6.02 151.168 5.49333 151.848 5.12C152.528 4.74667 153.341 4.56 154.288 4.56C157.714 4.56 159.428 7 159.428 11.88C159.428 12.9467 159.334 13.9067 159.148 14.76C158.974 15.6133 158.694 16.3867 158.308 17.08C157.934 17.7733 157.401 18.3067 156.708 18.68ZM151.788 11.88C151.788 15.2133 152.621 16.88 154.288 16.88C155.954 16.88 156.788 15.2133 156.788 11.88C156.788 8.58667 155.954 6.94 154.288 6.94C152.621 6.94 151.788 8.58667 151.788 11.88ZM169.266 18.68C168.586 19.0533 167.78 19.24 166.846 19.24C165.913 19.24 165.1 19.0533 164.406 18.68C163.726 18.3067 163.193 17.7733 162.806 17.08C162.42 16.3867 162.133 15.6133 161.946 14.76C161.773 13.9067 161.686 12.9467 161.686 11.88C161.686 10.8133 161.773 9.85333 161.946 9C162.133 8.14667 162.42 7.38 162.806 6.7C163.193 6.02 163.726 5.49333 164.406 5.12C165.086 4.74667 165.9 4.56 166.846 4.56C170.273 4.56 171.986 7 171.986 11.88C171.986 12.9467 171.893 13.9067 171.706 14.76C171.533 15.6133 171.253 16.3867 170.866 17.08C170.493 17.7733 169.96 18.3067 169.266 18.68ZM164.346 11.88C164.346 15.2133 165.18 16.88 166.846 16.88C168.513 16.88 169.346 15.2133 169.346 11.88C169.346 8.58667 168.513 6.94 166.846 6.94C165.18 6.94 164.346 8.58667 164.346 11.88ZM95.658 33.486C95.658 32.4127 96.0127 31.5307 96.722 30.84C97.4313 30.14 98.3087 29.79 99.354 29.79C99.8393 29.79 100.315 29.8787 100.782 30.056C101.249 30.224 101.631 30.4713 101.93 30.798L101.44 31.512C101.188 31.2507 100.875 31.0407 100.502 30.882C100.138 30.7233 99.7647 30.644 99.382 30.644C98.598 30.644 97.9447 30.91 97.422 31.442C96.8993 31.974 96.638 32.6553 96.638 33.486C96.638 34.3073 96.8993 34.984 97.422 35.516C97.954 36.0387 98.6167 36.3 99.41 36.3C99.8207 36.3 100.231 36.216 100.642 36.048C101.053 35.8707 101.393 35.6327 101.664 35.334L102.098 36.048C101.79 36.3933 101.389 36.6687 100.894 36.874C100.409 37.07 99.8953 37.168 99.354 37.168C98.2993 37.168 97.4173 36.8273 96.708 36.146C96.008 35.4553 95.658 34.5687 95.658 33.486ZM103.456 37L104.03 29.958H105.038L107.152 34.298L107.586 35.292H107.614C107.763 34.928 107.908 34.5967 108.048 34.298L110.176 29.958H111.17L111.758 37H110.82L110.47 32.45V31.232H110.442C110.339 31.5307 110.19 31.8713 109.994 32.254L108.034 36.188H107.166L105.22 32.282L104.758 31.232H104.73C104.749 31.792 104.749 32.198 104.73 32.45L104.38 37H103.456ZM113.141 35.11C113.141 33.4767 114.569 32.66 117.425 32.66H117.845V32.464C117.845 31.2507 117.266 30.644 116.109 30.644C115.39 30.644 114.723 30.868 114.107 31.316L113.673 30.588C113.953 30.3453 114.322 30.154 114.779 30.014C115.236 29.8647 115.698 29.79 116.165 29.79C117.014 29.79 117.663 30.0233 118.111 30.49C118.568 30.9473 118.797 31.6147 118.797 32.492V37H117.887V36.174L117.929 35.586H117.901C117.705 36.034 117.392 36.412 116.963 36.72C116.543 37.0187 116.062 37.168 115.521 37.168C114.877 37.168 114.317 36.986 113.841 36.622C113.374 36.258 113.141 35.754 113.141 35.11ZM114.107 35.026C114.107 35.3807 114.247 35.6933 114.527 35.964C114.807 36.2347 115.194 36.37 115.689 36.37C116.333 36.37 116.851 36.0993 117.243 35.558C117.644 35.0167 117.845 34.41 117.845 33.738V33.416H117.439C117.14 33.416 116.879 33.4207 116.655 33.43C116.44 33.4393 116.156 33.4767 115.801 33.542C115.456 33.598 115.171 33.6773 114.947 33.78C114.723 33.8827 114.527 34.0413 114.359 34.256C114.191 34.4707 114.107 34.7273 114.107 35.026ZM120.989 39.8V29.958H121.899V30.7L121.857 31.246H121.885C122.1 30.7887 122.422 30.434 122.851 30.182C123.29 29.9207 123.785 29.79 124.335 29.79C125.278 29.79 126.025 30.1307 126.575 30.812C127.126 31.484 127.401 32.3707 127.401 33.472C127.401 34.5827 127.107 35.4787 126.519 36.16C125.931 36.832 125.175 37.168 124.251 37.168C123.757 37.168 123.304 37.0467 122.893 36.804C122.483 36.552 122.161 36.2067 121.927 35.768H121.899C121.927 35.936 121.941 36.1413 121.941 36.384V39.8H120.989ZM121.913 33.5C121.913 34.256 122.114 34.914 122.515 35.474C122.926 36.034 123.472 36.314 124.153 36.314C124.797 36.314 125.339 36.062 125.777 35.558C126.216 35.0447 126.435 34.354 126.435 33.486C126.435 32.6367 126.225 31.9553 125.805 31.442C125.395 30.9193 124.858 30.658 124.195 30.658C123.551 30.658 123.01 30.896 122.571 31.372C122.133 31.848 121.913 32.5573 121.913 33.5ZM130.806 37V30.798H128.244V29.958H134.334V30.798H131.758V37H130.806ZM135.033 33.444C135.033 32.3893 135.383 31.5307 136.083 30.868C136.793 30.2053 137.707 29.8507 138.827 29.804V27.2H139.751V29.804C140.871 29.8507 141.781 30.2053 142.481 30.868C143.191 31.5307 143.545 32.3893 143.545 33.444C143.545 34.5173 143.191 35.3947 142.481 36.076C141.781 36.748 140.871 37.1073 139.751 37.154V39.8H138.827V37.154C137.707 37.1073 136.793 36.748 136.083 36.076C135.383 35.3947 135.033 34.5173 135.033 33.444ZM139.751 36.328C140.601 36.2813 141.282 36.0013 141.795 35.488C142.318 34.9653 142.579 34.284 142.579 33.444C142.579 32.6133 142.318 31.9507 141.795 31.456C141.282 30.9613 140.601 30.6907 139.751 30.644V36.328ZM135.999 33.444C135.999 34.284 136.256 34.9653 136.769 35.488C137.292 36.0013 137.978 36.2813 138.827 36.328V30.644C137.978 30.6907 137.292 30.9613 136.769 31.456C136.256 31.9507 135.999 32.6133 135.999 33.444ZM144.877 33.444C144.877 32.408 145.236 31.54 145.955 30.84C146.673 30.14 147.551 29.79 148.587 29.79C149.623 29.79 150.5 30.14 151.219 30.84C151.947 31.54 152.311 32.408 152.311 33.444C152.311 34.4987 151.947 35.3853 151.219 36.104C150.5 36.8133 149.623 37.168 148.587 37.168C147.551 37.168 146.673 36.8133 145.955 36.104C145.236 35.3853 144.877 34.4987 144.877 33.444ZM145.857 33.444C145.857 34.2653 146.118 34.9467 146.641 35.488C147.173 36.0293 147.821 36.3 148.587 36.3C149.352 36.3 150.001 36.0293 150.533 35.488C151.065 34.9467 151.331 34.2653 151.331 33.444C151.331 32.6507 151.065 31.988 150.533 31.456C150.001 30.9147 149.352 30.644 148.587 30.644C147.821 30.644 147.173 30.9147 146.641 31.456C146.118 31.988 145.857 32.6507 145.857 33.444ZM154.089 37V29.958H155.041V32.968H159.157V29.958H160.109V37H159.157V33.808H155.041V37H154.089ZM161.898 33.444C161.898 32.408 162.258 31.54 162.976 30.84C163.695 30.14 164.572 29.79 165.608 29.79C166.644 29.79 167.522 30.14 168.24 30.84C168.968 31.54 169.332 32.408 169.332 33.444C169.332 34.4987 168.968 35.3853 168.24 36.104C167.522 36.8133 166.644 37.168 165.608 37.168C164.572 37.168 163.695 36.8133 162.976 36.104C162.258 35.3853 161.898 34.4987 161.898 33.444ZM162.878 33.444C162.878 34.2653 163.14 34.9467 163.662 35.488C164.194 36.0293 164.843 36.3 165.608 36.3C166.374 36.3 167.022 36.0293 167.554 35.488C168.086 34.9467 168.352 34.2653 168.352 33.444C168.352 32.6507 168.086 31.988 167.554 31.456C167.022 30.9147 166.374 30.644 165.608 30.644C164.843 30.644 164.194 30.9147 163.662 31.456C163.14 31.988 162.878 32.6507 162.878 33.444ZM171.111 37V29.958H173.659C174.387 29.958 174.956 30.1167 175.367 30.434C175.777 30.742 175.983 31.1807 175.983 31.75C175.983 32.5247 175.628 33.0427 174.919 33.304V33.332C175.367 33.4253 175.717 33.626 175.969 33.934C176.221 34.242 176.347 34.606 176.347 35.026C176.347 35.6327 176.118 36.1133 175.661 36.468C175.213 36.8227 174.592 37 173.799 37H171.111ZM172.063 33.01H173.561C174.027 33.01 174.382 32.9073 174.625 32.702C174.877 32.4873 175.003 32.1887 175.003 31.806C175.003 31.0593 174.503 30.686 173.505 30.686H172.063V33.01ZM172.063 36.258H173.673C174.242 36.258 174.667 36.1507 174.947 35.936C175.227 35.712 175.367 35.404 175.367 35.012C175.367 34.6013 175.217 34.2887 174.919 34.074C174.629 33.85 174.209 33.738 173.659 33.738H172.063V36.258Z" fill="#2F303E" fill-opacity="0.8"/>
</svg>
