<svg width="17" height="17" viewBox="0 0 17 17" fill="none" xmlns="http://www.w3.org/2000/svg">
<path fill-rule="evenodd" clip-rule="evenodd" d="M8.89359 2.36084C11.0256 2.36084 11.2781 2.36895 12.1201 2.40737C12.8986 2.4429 13.3214 2.57298 13.6028 2.68229C13.9754 2.82714 14.2414 3.0002 14.5208 3.27959C14.8002 3.55899 14.9733 3.825 15.1181 4.19768C15.2275 4.47907 15.3575 4.90185 15.3931 5.68032C15.4315 6.52231 15.4396 6.77482 15.4396 8.90684C15.4396 11.0389 15.4315 11.2914 15.3931 12.1333C15.3575 12.9118 15.2275 13.3346 15.1181 13.616C14.9733 13.9887 14.8002 14.2547 14.5208 14.5341C14.2414 14.8135 13.9754 14.9865 13.6028 15.1314C13.3214 15.2407 12.8986 15.3708 12.1201 15.4063C11.2783 15.4447 11.0257 15.4528 8.89359 15.4528C6.76145 15.4528 6.50893 15.4447 5.66711 15.4063C4.88861 15.3708 4.46582 15.2407 4.18446 15.1314C3.81176 14.9865 3.54574 14.8135 3.26635 14.5341C2.98695 14.2547 2.8139 13.9887 2.66908 13.616C2.55973 13.3346 2.42965 12.9118 2.39412 12.1334C2.35571 11.2914 2.3476 11.0389 2.3476 8.90684C2.3476 6.77482 2.35571 6.52231 2.39412 5.68035C2.42965 4.90185 2.55973 4.47907 2.66908 4.19768C2.8139 3.825 2.98695 3.55899 3.26635 3.27959C3.54574 3.0002 3.81176 2.82714 4.18446 2.68229C4.46582 2.57298 4.88861 2.4429 5.66708 2.40737C6.50906 2.36895 6.76158 2.36084 8.89359 2.36084ZM8.89288 0.922363C6.72435 0.922363 6.45247 0.931555 5.60082 0.970413C4.75091 1.00921 4.1705 1.14417 3.66259 1.34157C3.13752 1.54562 2.69224 1.81864 2.24834 2.26254C1.80445 2.70643 1.53143 3.15172 1.32737 3.67678C1.12998 4.1847 0.995017 4.7651 0.956221 5.61501C0.917363 6.46663 0.908203 6.73854 0.908203 8.90707C0.908203 11.0756 0.917363 11.3475 0.956221 12.1991C0.995017 13.049 1.12998 13.6295 1.32737 14.1374C1.53143 14.6624 1.80445 15.1077 2.24834 15.5516C2.69224 15.9955 3.13752 16.2685 3.66259 16.4726C4.1705 16.67 4.75091 16.8049 5.60082 16.8437C6.45247 16.8826 6.72435 16.8918 8.89288 16.8918C11.0614 16.8918 11.3333 16.8826 12.1849 16.8437C13.0349 16.8049 13.6153 16.67 14.1232 16.4726C14.6482 16.2685 15.0935 15.9955 15.5374 15.5516C15.9813 15.1077 16.2543 14.6624 16.4584 14.1374C16.6558 13.6295 16.7907 13.049 16.8295 12.1991C16.8684 11.3475 16.8776 11.0756 16.8776 8.90707C16.8776 6.73854 16.8684 6.46663 16.8295 5.61501C16.7907 4.7651 16.6558 4.1847 16.4584 3.67678C16.2543 3.15172 15.9813 2.70643 15.5374 2.26254C15.0935 1.81864 14.6482 1.54562 14.1232 1.34157C13.6153 1.14417 13.0349 1.00921 12.1849 0.970413C11.3333 0.931555 11.0614 0.922363 8.89288 0.922363ZM8.90909 4.81982C6.64294 4.81982 4.80585 6.65692 4.80585 8.92307C4.80585 11.1892 6.64294 13.0263 8.90909 13.0263C11.1752 13.0263 13.0123 11.1892 13.0123 8.92307C13.0123 6.65692 11.1752 4.81982 8.90909 4.81982ZM8.909 11.5863C7.438 11.5863 6.24548 10.3938 6.24548 8.9228C6.24548 7.45179 7.438 6.25928 8.909 6.25928C10.38 6.25928 11.5725 7.45179 11.5725 8.9228C11.5725 10.3938 10.38 11.5863 8.909 11.5863ZM14.0897 4.62974C14.0897 5.15473 13.6641 5.58032 13.1391 5.58032C12.6141 5.58032 12.1885 5.15473 12.1885 4.62974C12.1885 4.10476 12.6141 3.6792 13.1391 3.6792C13.6641 3.6792 14.0897 4.10476 14.0897 4.62974Z" fill="white"/>
</svg>
