<svg width="170" height="35" viewBox="0 0 170 35" fill="none" xmlns="http://www.w3.org/2000/svg">
<path d="M4.27734 16.8599V26.0005H0.111328V0.793457H7.75781C10.6523 0.793457 12.8965 1.46729 14.4902 2.81494C16.084 4.1626 16.8809 6.06104 16.8809 8.51025C16.8809 10.9595 16.0488 12.9634 14.3848 14.522C12.7207 16.0806 10.4707 16.8599 7.63477 16.8599H4.27734ZM4.27734 4.23877V13.4497H6.98438C8.77734 13.4497 10.1426 13.0337 11.0801 12.2017C12.0176 11.3696 12.4863 10.1978 12.4863 8.68604C12.4863 5.72119 10.7637 4.23877 7.31836 4.23877H4.27734ZM34.5293 26.0005H30.5742V23.188H30.5039C29.2617 25.3442 27.4395 26.4224 25.0371 26.4224C23.2676 26.4224 21.8789 25.9419 20.8711 24.981C19.875 24.02 19.377 22.7485 19.377 21.1665C19.377 17.7681 21.334 15.7876 25.248 15.2251L30.5918 14.4692C30.5918 11.9028 29.373 10.6196 26.9355 10.6196C24.791 10.6196 22.8574 11.3579 21.1348 12.8345V9.26611C23.0332 8.14111 25.2246 7.57861 27.709 7.57861C32.2559 7.57861 34.5293 9.81689 34.5293 14.2935V26.0005ZM30.5918 17.1587L26.8125 17.686C25.6406 17.8384 24.7559 18.1255 24.1582 18.5474C23.5723 18.9575 23.2793 19.6841 23.2793 20.7271C23.2793 21.4888 23.5488 22.1157 24.0879 22.6079C24.6387 23.0884 25.3711 23.3286 26.2852 23.3286C27.5273 23.3286 28.5527 22.895 29.3613 22.0278C30.1816 21.1489 30.5918 20.0474 30.5918 18.7231V17.1587ZM55.1133 8.00049L46.9922 28.8833C45.3047 32.6099 42.9375 34.4731 39.8906 34.4731C39.0352 34.4731 38.3203 34.397 37.7461 34.2446V30.8521C38.3906 31.063 38.9766 31.1685 39.5039 31.1685C41.0273 31.1685 42.1641 30.4185 42.9141 28.9185L44.127 25.9653L36.9727 8.00049H41.4902L45.7793 21.0786C45.8262 21.2427 45.9316 21.6763 46.0957 22.3794H46.1836C46.2422 22.1099 46.3477 21.688 46.5 21.1138L51 8.00049H55.1133ZM77.3672 26.0005H71.918L63.1465 14.4692C62.8184 14.0356 62.6191 13.7427 62.5488 13.5903H62.4785V26.0005H58.2949V0.793457H62.4785V12.6411H62.5488C62.6895 12.3833 62.8887 12.0962 63.1465 11.7798L71.6016 0.793457H76.6113L66.7148 12.8872L77.3672 26.0005ZM95.0859 18.1079H82.8164C82.8633 19.772 83.373 21.0552 84.3457 21.9575C85.3301 22.8599 86.6777 23.311 88.3887 23.311C90.3105 23.311 92.0742 22.7368 93.6797 21.5884V24.8755C92.0391 25.9067 89.8711 26.4224 87.1758 26.4224C84.5273 26.4224 82.4473 25.6079 80.9355 23.979C79.4355 22.3384 78.6855 20.0356 78.6855 17.0708C78.6855 14.27 79.5117 11.9907 81.1641 10.2329C82.8281 8.46338 84.8906 7.57861 87.3516 7.57861C89.8125 7.57861 91.7168 8.36963 93.0645 9.95166C94.4121 11.5337 95.0859 13.731 95.0859 16.5435V18.1079ZM91.1484 15.2251C91.1367 13.7603 90.791 12.6235 90.1113 11.8149C89.4316 10.9946 88.4941 10.5845 87.2988 10.5845C86.127 10.5845 85.1309 11.0122 84.3105 11.8677C83.502 12.7231 83.0039 13.8423 82.8164 15.2251H91.1484ZM114.211 18.1079H101.941C101.988 19.772 102.498 21.0552 103.471 21.9575C104.455 22.8599 105.803 23.311 107.514 23.311C109.436 23.311 111.199 22.7368 112.805 21.5884V24.8755C111.164 25.9067 108.996 26.4224 106.301 26.4224C103.652 26.4224 101.572 25.6079 100.061 23.979C98.5605 22.3384 97.8105 20.0356 97.8105 17.0708C97.8105 14.27 98.6367 11.9907 100.289 10.2329C101.953 8.46338 104.016 7.57861 106.477 7.57861C108.938 7.57861 110.842 8.36963 112.189 9.95166C113.537 11.5337 114.211 13.731 114.211 16.5435V18.1079ZM110.273 15.2251C110.262 13.7603 109.916 12.6235 109.236 11.8149C108.557 10.9946 107.619 10.5845 106.424 10.5845C105.252 10.5845 104.256 11.0122 103.436 11.8677C102.627 12.7231 102.129 13.8423 101.941 15.2251H110.273ZM122.244 23.3462H122.174V34.2798H118.096V8.00049H122.174V11.1646H122.244C123.639 8.77393 125.678 7.57861 128.361 7.57861C130.646 7.57861 132.428 8.38135 133.705 9.98682C134.982 11.5923 135.621 13.7485 135.621 16.4556C135.621 19.4556 134.9 21.8579 133.459 23.6626C132.018 25.4673 130.049 26.3696 127.553 26.3696C125.256 26.3696 123.486 25.3618 122.244 23.3462ZM122.139 16.2446V18.4771C122.139 19.7896 122.555 20.9028 123.387 21.8169C124.23 22.731 125.297 23.188 126.586 23.188C128.098 23.188 129.281 22.6021 130.137 21.4302C131.004 20.2466 131.438 18.6001 131.438 16.4907C131.438 14.7212 131.033 13.3384 130.225 12.3423C129.428 11.3345 128.344 10.8306 126.973 10.8306C125.52 10.8306 124.348 11.3462 123.457 12.3774C122.578 13.4087 122.139 14.6978 122.139 16.2446ZM155.027 18.1079H142.758C142.805 19.772 143.314 21.0552 144.287 21.9575C145.271 22.8599 146.619 23.311 148.33 23.311C150.252 23.311 152.016 22.7368 153.621 21.5884V24.8755C151.98 25.9067 149.812 26.4224 147.117 26.4224C144.469 26.4224 142.389 25.6079 140.877 23.979C139.377 22.3384 138.627 20.0356 138.627 17.0708C138.627 14.27 139.453 11.9907 141.105 10.2329C142.77 8.46338 144.832 7.57861 147.293 7.57861C149.754 7.57861 151.658 8.36963 153.006 9.95166C154.354 11.5337 155.027 13.731 155.027 16.5435V18.1079ZM151.09 15.2251C151.078 13.7603 150.732 12.6235 150.053 11.8149C149.373 10.9946 148.436 10.5845 147.24 10.5845C146.068 10.5845 145.072 11.0122 144.252 11.8677C143.443 12.7231 142.945 13.8423 142.758 15.2251H151.09ZM169.354 11.8853C168.861 11.4985 168.152 11.3052 167.227 11.3052C166.02 11.3052 165.012 11.8501 164.203 12.9399C163.395 14.0298 162.99 15.5122 162.99 17.3872V26.0005H158.912V8.00049H162.99V11.7095H163.061C163.459 10.4438 164.068 9.45947 164.889 8.75635C165.721 8.0415 166.646 7.68408 167.666 7.68408C168.404 7.68408 168.967 7.79541 169.354 8.01807V11.8853Z" fill="white"/>
</svg>
