<svg width="123" height="40" viewBox="0 0 123 40" fill="none" xmlns="http://www.w3.org/2000/svg">
<path d="M6.3001 24.1003L4.8001 9.80035C4.5001 7.50035 3.1001 6.80035 1.2001 6.70035C0.900098 6.70035 0.900098 6.20035 1.2001 6.20035H9.2001L10.0001 17.8004L16.4001 6.20035H21.4001L11.3001 24.1003H6.3001ZM24.0001 6.20035H28.8001L23.4001 24.1003H18.6001L24.0001 6.20035ZM41.0001 11.1003L43.7001 7.90033C42.8001 7.40033 41.9001 6.70033 41.1001 6.40033C36.6001 5.00033 31.8001 6.10033 30.6001 9.50033C30.2001 10.6003 30.1001 12.5003 30.6001 13.5003C31.8001 15.7003 34.9001 17.0003 36.2001 18.2003C36.8001 18.8003 36.7001 19.4003 36.2001 20.0003C34.5001 21.6003 31.7001 20.8003 29.0001 19.0003L26.6001 22.5003C32.1001 25.9003 38.2001 25.7003 41.0001 21.1003C41.6001 19.9003 41.9001 17.6003 40.8001 16.4003C40.1001 15.6003 39.2001 14.7003 38.3001 14.0003C36.1001 12.5003 34.0001 11.5003 35.5001 10.0003C36.9001 8.80033 39.3001 9.50034 41.0001 11.1003ZM59.1001 24.1003L57.5001 6.20035H51.0001L41.6001 24.1003H46.7001L48.0001 21.5003H54.1001V24.1003H59.1001ZM49.6001 18.1003L53.5001 9.50033L53.8001 18.1003H49.6001ZM59.1001 34.4003V28.4003C40.3001 26.4003 22.5001 30.4003 5.5001 39.0003C5.1001 39.3003 5.40011 39.9003 6.10011 39.6003C23.9001 32.1003 41.8001 30.2003 59.1001 34.4003ZM75.6001 19.6003C73.6001 20.5003 75.5001 22.5003 76.7001 20.9003C76.9001 20.5003 77.0001 20.0003 76.9001 19.5003C76.5001 19.5003 76.1001 19.5003 75.6001 19.6003ZM89.7001 18.4003H92.0001C92.1001 16.7003 90.1001 16.5003 89.7001 18.4003ZM106.6 19.6003C105 20.2003 106 22.5003 107.6 21.0003C107.8 20.6003 108 20.1003 108 19.6003C107.6 19.5003 107.1 19.5003 106.6 19.6003ZM117.2 17.2003C115.3 17.2003 114.9 20.8004 116.4 21.3004C117.1 21.4004 117.8 20.8003 118.1 19.4003C118.3 18.2003 117.9 17.4003 117.2 17.2003ZM92.7001 5.00034C86.9001 -0.399665 78.2001 -0.699659 72.1001 2.60034C66.3001 5.70034 63.0001 11.9003 62.8001 18.4003C62.8001 24.2003 66.1001 30.1003 71.3001 33.4003C77.8001 37.6003 87.0001 37.6003 94.5001 29.6003C93.9001 30.3003 93.2001 30.9003 92.6001 31.5003C103.4 41.6003 122.1 34.3003 122.5 19.0003C123 3.50034 105.7 -5.79966 92.7001 5.00034ZM98.5001 16.7003L98.2001 14.5003C98.3001 15.2003 98.5001 16.7003 98.5001 16.7003ZM97.6001 17.6003C96.3001 17.3003 95.9001 19.9003 95.6001 22.9003H93.8001L95.0001 15.7003H96.6001L96.5001 16.6003C97.3001 16.2003 97.2001 15.4003 98.2001 15.5003C97.9001 16.2003 97.7001 16.9003 97.6001 17.6003ZM70.4001 22.9003L71.2001 16.4003L68.8001 22.9003H67.6001L67.4001 16.4003L66.2001 22.9003H64.4001L66.1001 14.0003H68.7001L68.8001 19.5003L70.7001 14.0003H73.6001L72.0001 22.9003H70.4001ZM76.6001 23.0003V22.3004C74.2001 24.1004 72.7001 22.5003 73.0001 20.7003C73.1001 20.0003 73.6001 19.2003 74.3001 18.7003C75.0001 18.2003 76.1001 18.5004 77.2001 18.3004C77.6001 16.8004 75.8001 17.1003 74.0001 17.4003L74.3001 15.8004C77.0001 15.1004 78.9001 15.3003 79.0001 17.5003L78.3001 23.0003H76.6001ZM83.8001 17.2003C82.4001 16.9003 81.4001 17.0003 81.6001 18.1003C82.1001 18.7003 83.0001 18.8004 83.4001 19.3004C83.7001 19.7004 83.8001 20.4003 83.7001 20.9003C83.6001 22.1003 83.0001 22.8003 81.9001 23.0003C80.8001 23.2003 79.7001 23.2003 78.9001 22.9003L79.1001 21.3004C79.9001 21.5004 80.7001 21.6003 81.4001 21.5003C82.2001 21.2003 82.2001 20.4003 81.1001 20.0003C79.9001 19.5003 79.5001 18.6003 79.6001 17.5003C79.8001 15.7003 81.6001 15.4003 84.0001 15.6003L83.8001 17.2003ZM87.2001 21.2003L87.0001 22.7003C85.6001 23.1003 84.2001 23.0004 84.2001 21.8004C84.2001 20.4004 85.3001 14.5003 85.3001 14.5003H87.0001L86.9001 15.5003H87.9001L87.6001 17.2003H86.6001C86.4001 18.0003 86.3001 18.8003 86.2001 19.4003C86.0001 20.7003 86.0001 21.4003 87.2001 21.2003ZM87.8001 18.9003C88.0001 17.9003 88.3001 17.1003 88.8001 16.6003C90.7001 14.8003 93.0001 15.2003 93.6001 17.4003C93.8001 18.1003 93.7001 19.1003 93.5001 19.9003L89.6001 20.0003C89.4001 21.5003 90.4001 22.1003 93.1001 21.2003L92.8001 22.9003C89.3001 23.8003 87.5001 22.8003 87.8001 18.9003ZM96.8001 25.9003H88.6001L87.8001 24.0003L88.6001 25.9003H96.8001ZM101 21.1003C101.4 21.5003 102.4 21.4003 103.3 21.0003L103.1 22.9003C101.6 23.2003 99.7001 23.1003 99.1001 22.4003L98.5001 21.5003C98.5001 21.5003 98.4001 21.9004 98.2001 22.3004L98.5001 21.5003C98.4001 21.4003 98.2001 20.9003 98.1001 20.2003V20.3004C98.1001 20.2004 98.1001 20.0003 98.0001 19.9003V19.3004C98.0001 18.5004 98.2001 17.8004 98.3001 17.3004C98.8001 15.9004 99.8001 14.6003 101.4 13.9003C102.3 13.5003 103.6 13.9004 104.4 14.3004L104 16.0003C103.5 15.7003 102.7 15.3003 102.1 15.6003C100 16.2003 99.1001 19.5003 101 21.1003ZM107.9 22.8004L108 22.2003H107.8C107.1 22.8003 106 23.1003 105.5 22.9003C103.6 22.3003 103.7 19.6003 105.8 18.5003C106.4 18.1003 107.5 18.4003 108.3 18.2003C108.6 16.6003 106.9 16.8003 105.1 17.2003L105.3 15.8004C107.5 15.1004 109.3 15.1003 110.1 16.9003L109.4 22.8004H107.9ZM111.5 22.9003H109.8L110.9 15.6003H112.5C112.4 16.0003 112.3 16.4003 112.5 16.4003C112.8 16.3003 113 15.9003 113.3 15.7003C113.6 15.5003 113.9 15.5003 114.2 15.5003L113.5 17.5003C112.1 17.6003 111.8 20.2003 111.5 22.9003ZM117.6 22.9003V22.2003C116.6 23.0003 115.4 23.1003 114.8 22.7003C112.5 21.0003 113.2 16.6003 116 15.6003C117 15.2003 118 15.9003 118.5 16.5003L119 14.0003H120.8L119.5 22.9003H117.6Z" fill="white"/>
</svg>
