<svg width="19" height="11" viewBox="0 0 19 11" fill="none" xmlns="http://www.w3.org/2000/svg">
<path fill-rule="evenodd" clip-rule="evenodd" d="M10.3434 10.6643C10.3434 10.6643 10.6709 10.6286 10.8386 10.4517C10.9922 10.2897 10.9868 9.98386 10.9868 9.98386C10.9868 9.98386 10.9664 8.5559 11.6419 8.34506C12.3076 8.13771 13.1623 9.72598 14.0694 10.3367C14.7546 10.7985 15.2747 10.6974 15.2747 10.6974L17.6987 10.6643C17.6987 10.6643 18.9661 10.5876 18.3652 9.60923C18.3155 9.52907 18.0146 8.88523 16.5635 7.56269C15.0431 6.17829 15.2472 6.4022 17.0774 4.00717C18.1922 2.54872 18.6377 1.65831 18.4984 1.27758C18.3661 0.913405 17.546 1.01011 17.546 1.01011L14.8176 1.02667C14.8176 1.02667 14.6152 0.999657 14.4652 1.08765C14.3188 1.1739 14.2238 1.37516 14.2238 1.37516C14.2238 1.37516 13.7925 2.50341 13.2164 3.46352C12.0013 5.48827 11.5158 5.59544 11.317 5.46998C10.8546 5.17637 10.97 4.29206 10.97 3.6639C10.97 1.701 11.2735 0.882911 10.3797 0.6712C10.0833 0.60063 9.86496 0.554455 9.10608 0.546613C8.13241 0.53703 7.30875 0.550098 6.84189 0.774007C6.53123 0.922988 6.29159 1.2558 6.43804 1.27497C6.61822 1.29849 7.0265 1.383 7.24307 1.67225C7.52265 2.04601 7.51289 2.88414 7.51289 2.88414C7.51289 2.88414 7.67354 5.19467 7.13745 5.4813C6.76999 5.6782 6.26585 5.27656 5.18213 3.43912C4.62739 2.49819 4.20846 1.45793 4.20846 1.45793C4.20846 1.45793 4.12769 1.26364 3.98302 1.15909C3.80816 1.03276 3.56408 0.993558 3.56408 0.993558L0.971484 1.01011C0.971484 1.01011 0.58184 1.02057 0.43894 1.18697C0.312018 1.33421 0.429177 1.64002 0.429177 1.64002C0.429177 1.64002 2.45905 6.30201 4.75787 8.65174C6.86585 10.8054 9.25874 10.6643 9.25874 10.6643H10.3434Z" fill="white"/>
</svg>
