<svg width="17" height="19" viewBox="0 0 17 19" fill="none" xmlns="http://www.w3.org/2000/svg">
<path fill-rule="evenodd" clip-rule="evenodd" d="M5.48837 5.33429C5.46769 5.61608 5.46425 7.6071 5.48492 7.6411C5.50043 7.66646 6.43079 7.67798 6.51923 7.65378C6.55828 7.64341 6.56115 7.55524 6.56115 6.24076V4.83927L6.63179 4.61452C6.67084 4.4912 6.76847 4.16734 6.84945 3.89476C6.91081 3.68777 6.98206 3.45 7.02948 3.2918C7.04463 3.24123 7.05735 3.19879 7.06653 3.16808C7.41742 2.02072 7.75281 0.891229 7.76143 0.827263L7.77234 0.748314L7.28132 0.745432C6.83739 0.743127 6.70185 0.745432 6.68979 0.756958C6.68405 0.762144 6.53071 1.34591 6.25792 2.40394C6.12756 2.90818 6.01787 3.311 6.01442 3.29947C6.01135 3.28977 5.91949 2.95037 5.79263 2.48167C5.75371 2.33788 5.7115 2.18191 5.66755 2.01957C5.4809 1.32747 5.32469 0.75811 5.3201 0.7535C5.31321 0.746585 4.71881 0.743703 4.23698 0.747737C4.2259 0.747828 4.2156 0.744488 4.20902 0.748034C4.174 0.766908 4.24408 0.980833 4.85952 2.94506C4.96059 3.26777 5.11221 3.72533 5.19605 3.96103C5.45448 4.68828 5.51536 4.97296 5.48837 5.33429ZM4.34341 10.883L4.33135 13.8237L4.31929 16.7644L3.84205 16.7708C3.47392 16.776 3.36251 16.7702 3.3539 16.7466C3.34758 16.7299 3.33954 15.4033 3.33667 13.7995L3.33035 10.883L2.79396 10.8772L2.25757 10.8703V10.411V9.95117L3.84262 9.95751L5.42882 9.96385L5.43571 10.4174L5.44203 10.8703L4.89301 10.8772L4.34341 10.883ZM13.5195 12.7802C13.4897 12.8787 13.4586 13.5581 13.481 13.6169C13.4931 13.6492 13.5609 13.6544 13.968 13.6544H14.4418L14.4338 13.225C14.4258 12.8309 14.4206 12.7853 14.3683 12.6787C14.2856 12.5105 14.1627 12.4355 13.9692 12.4355C13.7366 12.4355 13.589 12.5485 13.5195 12.7802ZM15.2712 15.8871C15.15 16.336 14.829 16.6541 14.3649 16.7849C13.739 16.9601 13.0504 16.672 12.7753 16.1205C12.6214 15.8104 12.6162 15.7488 12.6162 14.2349C12.6162 13.0005 12.6208 12.8496 12.6599 12.6813C12.7707 12.2041 13.0469 11.8958 13.5144 11.7247C14.1341 11.4982 14.8801 11.7846 15.1494 12.3522C15.2907 12.6519 15.3079 12.7798 15.3229 13.6235L15.3349 14.3796L14.4097 14.3865L13.4845 14.3922L13.4777 14.9005C13.4679 15.6174 13.5156 15.8381 13.7085 15.9689C13.8705 16.0784 14.1197 16.0698 14.2552 15.9505C14.3827 15.8381 14.4189 15.7177 14.4316 15.3667L14.4425 15.0578H14.8898H15.3366L15.3229 15.4024C15.3148 15.592 15.2913 15.8104 15.2712 15.8871ZM10.8249 15.747C10.7956 15.8305 10.7583 15.8841 10.7014 15.9227C10.5567 16.0196 10.3471 15.989 10.1558 15.8426L10.0714 15.7781V14.2348V12.6916L10.1564 12.627C10.4148 12.4288 10.6968 12.4507 10.8088 12.6772C10.8525 12.7659 10.8553 12.8455 10.8605 14.1985C10.8657 15.4969 10.8622 15.6369 10.8249 15.747ZM11.6483 16.4141C11.5719 16.5852 11.4019 16.7529 11.2612 16.7938C10.8971 16.9022 10.6048 16.8146 10.2671 16.4959C10.162 16.3968 10.0644 16.3161 10.05 16.3161C10.0322 16.3161 10.0231 16.3933 10.0231 16.546V16.776H9.58889H9.15472V13.3633V9.95117H9.58889H10.0231V11.0645C10.0231 11.6765 10.0317 12.1779 10.0409 12.1779C10.0512 12.1779 10.1425 12.0966 10.2447 11.9981C10.4796 11.7705 10.6755 11.6713 10.9241 11.6518C11.3686 11.6183 11.6328 11.8471 11.754 12.3709C11.7913 12.5346 11.7959 12.7213 11.7959 14.2346C11.7959 16.0781 11.7953 16.0862 11.6483 16.4141ZM7.18891 16.3901C7.01719 16.5653 6.81332 16.707 6.63988 16.7716C6.28037 16.907 5.93924 16.8281 5.79337 16.5768C5.66013 16.3469 5.65784 16.295 5.65784 13.9087V11.7183H6.09086H6.52502L6.53134 13.7813C6.53823 15.8081 6.53938 15.8461 6.58762 15.9279C6.65137 16.038 6.75015 16.068 6.9052 16.0247C6.99709 15.9994 7.05912 15.9544 7.20728 15.8063L7.3945 15.6202V13.6689V11.7183H7.82867H8.26284V14.2469V16.7762H7.82867H7.3945V16.51C7.3945 16.3094 7.38646 16.2437 7.36349 16.2437C7.34626 16.2437 7.26758 16.3094 7.18891 16.3901ZM5.52515 18.8471C5.77727 18.8563 6.4446 18.8718 7.00856 18.8816C8.18356 18.9024 10.3441 18.8903 11.5788 18.8557C12.4098 18.8321 13.9248 18.771 14.2073 18.7491C14.2872 18.7428 14.4715 18.7312 14.6174 18.7226C15.1084 18.6949 15.4202 18.5918 15.7126 18.3607C16.0922 18.0616 16.3851 17.5095 16.5091 16.8618C16.6268 16.2492 16.7055 15.1578 16.721 13.9188C16.7348 12.8832 16.7164 12.3242 16.6423 11.4276C16.5476 10.2946 16.4735 9.92696 16.2403 9.45499C15.9319 8.82973 15.4863 8.50011 14.8517 8.4275C14.3613 8.3716 12.5155 8.29207 10.8069 8.25404C7.84933 8.18834 2.98735 8.31512 2.36596 8.47475C2.07939 8.54851 1.86403 8.67299 1.64005 8.89716C1.24781 9.28902 1.01407 9.85089 0.919887 10.6289C0.705675 12.4038 0.70108 14.5492 0.907252 16.3887C0.996268 17.1799 1.18004 17.6939 1.52347 18.1175C1.73826 18.382 2.1081 18.6068 2.4389 18.6736C2.67091 18.7209 3.83271 18.786 5.52515 18.8471ZM11.8311 7.72509C11.5887 7.69282 11.4469 7.59889 11.3498 7.40583C11.2281 7.1638 11.2281 7.16495 11.2281 4.75325V2.50291H11.7174H12.2061L12.2164 4.57749C12.2274 6.83072 12.2245 6.77827 12.3589 6.81227C12.4823 6.84282 12.619 6.77655 12.789 6.60251L12.9521 6.43597L12.9584 4.46915L12.9642 2.50291L13.4529 2.496L13.9416 2.49023V5.06559V7.64153L13.875 7.65536C13.7952 7.67207 13.0543 7.67092 12.9946 7.65363C12.9584 7.64384 12.9527 7.61041 12.9527 7.40872V7.17475L12.8137 7.31075C12.4944 7.62251 12.1498 7.76773 11.8311 7.72509ZM9.36826 6.74169C9.53595 6.61376 9.5371 6.60281 9.54572 5.15464C9.55318 4.02918 9.54916 3.83786 9.51528 3.68457C9.46934 3.47711 9.38894 3.37914 9.23158 3.33592C9.02828 3.28175 8.84221 3.39816 8.77674 3.62118C8.72735 3.79291 8.72792 6.34579 8.77789 6.51752C8.81579 6.64661 8.93696 6.78779 9.02656 6.80739C9.14314 6.83217 9.28614 6.80451 9.36883 6.74169H9.36826ZM8.98493 7.72409C8.54732 7.67107 8.14531 7.4129 7.95177 7.06022C7.75479 6.70121 7.73641 6.51334 7.7479 4.93205C7.75709 3.70747 7.76053 3.63083 7.80877 3.45507C7.92421 3.03727 8.14761 2.75259 8.49391 2.58029C8.96942 2.34459 9.48227 2.37513 9.93079 2.66673C10.2168 2.85171 10.3902 3.12025 10.4833 3.51961C10.524 3.69595 10.5281 3.83137 10.5281 5.06805C10.5281 6.57212 10.5212 6.65914 10.3673 6.98473C10.2197 7.2988 9.88542 7.57541 9.53683 7.6728C9.38292 7.71487 9.11587 7.74022 8.98493 7.72409Z" fill="white"/>
</svg>
