<svg width="110" height="110" viewBox="0 0 110 110" fill="none" xmlns="http://www.w3.org/2000/svg">
<path d="M55.5 57H45.5V63H55.5V57Z" fill="#2E5997"/>
<path d="M32.5 26C31.948 26 31.5 26.447 31.5 27V30V85C31.5 85.553 31.948 86 32.5 86C33.052 86 33.5 85.553 33.5 85V30V27C33.5 26.447 33.052 26 32.5 26Z" fill="#424A60"/>
<path d="M55.5 30H33.5V59H55.5V30Z" fill="#517DBD"/>
<path d="M55.5 35V59H49.5C47.291 59 45.5 60.791 45.5 63C45.5 65.209 47.291 67 49.5 67H53.5H86.5L75.5 51L86.5 35H55.5Z" fill="#2E5997"/>
<path d="M45.5 63C45.5 65.209 47.291 67 49.5 67H53.5H55.5V59H49.5C47.291 59 45.5 60.791 45.5 63Z" fill="#1D4379"/>
<circle cx="55" cy="55" r="54.5" stroke="#2F303E" stroke-opacity="0.4"/>
</svg>
