<svg width="110" height="110" viewBox="0 0 110 110" fill="none" xmlns="http://www.w3.org/2000/svg">
<circle cx="55" cy="55" r="54.5" stroke="#2F303E" stroke-opacity="0.4"/>
<path fill-rule="evenodd" clip-rule="evenodd" d="M84.9426 54.6782L87.293 52.1739C87.4312 51.9652 87.5004 51.8956 87.5004 51.7565C87.5004 51.5478 87.3621 51.4782 86.8782 51.4782H86.3252V49.9478H92.6849V51.5478H91.8554C90.8876 51.5478 90.6802 51.6869 89.3668 53.4261L85.703 57.3913V59.8261C85.703 60.4522 86.0487 60.6609 86.8782 60.6609H88.2608V62.1913H79.4124V60.6609H80.795C81.6936 60.6609 81.9702 60.4522 81.9702 59.8261V57.3913L77.6151 52.5913C76.9238 51.7565 76.993 51.5478 74.9883 51.5478V49.9478H83.0071V51.5478H82.454C81.901 51.5478 81.6245 51.6869 81.6245 51.8956C81.6245 52.1043 81.8319 52.2435 81.901 52.3826L84.1131 54.7478C84.3896 55.0261 84.6661 55.0261 84.9426 54.6782Z" fill="black"/>
<path fill-rule="evenodd" clip-rule="evenodd" d="M31.0933 49.9478H33.0288V54.3304H31.2315C31.0933 53.4261 30.5403 53.0782 30.0564 52.6608C29.1577 51.8261 27.2221 51.1304 25.5631 51.1304C23.4201 51.1304 21.6919 51.7565 21.6919 52.7304C21.6919 55.4435 33.7893 53.2869 33.7893 58.3652C33.7893 61.0087 31.2315 62.4695 26.5309 62.4695C24.9409 62.4695 22.5215 61.9826 21.0698 61.2174C20.5859 60.9391 20.4476 61.4956 20.3785 62.1217H18.3738V57.6H20.1711C20.5859 58.7826 21.1389 58.9913 21.6228 59.4782C22.5215 60.313 24.5953 60.8695 26.4617 60.8695C29.296 60.8695 30.3329 60.2435 30.3329 59.2695C30.3329 58.3652 29.3651 58.1565 26.1852 57.6695L23.4893 57.2521C20.4476 56.7652 18.3047 56.1391 18.3047 53.7043C18.3047 51.2 21.0698 49.6 25.494 49.6C27.3604 49.6 28.8812 49.8782 30.402 50.713C30.7476 50.9217 31.0933 50.9913 31.0933 49.9478Z" fill="black"/>
<path fill-rule="evenodd" clip-rule="evenodd" d="M68.9079 57.3217L68.977 52.4522C68.977 51.8261 68.6314 51.6174 67.7327 51.6174H66.6267V50.0174H73.6777V51.5478H72.779C71.8112 51.5478 71.5347 51.7565 71.5347 52.3826V62.1913H68.7696L59.7831 53.6348V59.8261C59.7831 60.4522 60.1287 60.6609 61.0273 60.6609H62.2716V62.1913H54.875V60.6609H56.1193C57.0871 60.6609 57.3636 60.4522 57.3636 59.8261V52.4522C57.3636 51.8261 57.018 51.6174 56.1193 51.6174H54.875V50.0174H61.2347L68.9079 57.3217Z" fill="black"/>
<path fill-rule="evenodd" clip-rule="evenodd" d="M45.194 49.4609C39.5255 49.4609 36 51.9652 36 56C36 59.9652 39.4564 62.4696 44.9866 62.4696C50.8624 62.4696 54.2497 60.0348 54.2497 55.7913C54.3188 52.0348 50.5859 49.4609 45.194 49.4609ZM45.0557 60.8696C41.945 60.8696 40.1477 59.0609 40.1477 55.9304C40.1477 52.8696 42.0141 51.0609 45.194 51.0609C48.2356 51.0609 50.0329 52.9391 50.0329 56.0696C50.102 59.1304 48.3047 60.8696 45.0557 60.8696Z" fill="black"/>
</svg>
