<svg width="110" height="110" viewBox="0 0 110 110" fill="none" xmlns="http://www.w3.org/2000/svg">
<circle cx="55" cy="55" r="54.5" stroke="#2F303E" stroke-opacity="0.4"/>
<path fill-rule="evenodd" clip-rule="evenodd" d="M36.7123 57.6609L36.7673 53.7478C36.7123 51.5044 35.0063 50.0957 30.9888 49.887H28.072H24.8251C21.7432 50.1478 20.0371 51.1913 20.0371 53.1739H23.8895C23.9445 52.0783 24.9351 51.5044 26.9714 51.4522H28.072H30.1083C34.1257 51.5565 33.7955 53.8522 30.5485 54.0087L28.072 54.1652L26.5861 54.2174C22.2385 54.4261 19.4868 55.313 19.1016 57.2435C19.1016 59.1739 21.0828 60.2696 24.9902 60.6348H26.6412C27.1365 60.6348 27.5767 60.5826 28.017 60.5304C30.1633 60.3739 31.9244 59.9565 32.915 59.1739C33.2452 59.9044 33.8506 60.4783 35.0613 60.5826H38.3083L38.2532 58.9652C37.3177 59.0696 36.8224 58.6522 36.7123 57.6609ZM28.072 59.0696C28.017 59.0696 27.9069 59.0696 27.8519 59.0696H25.4855C23.8895 58.913 23.2841 58.287 23.174 57.3478C23.119 56.3044 24.0546 55.8348 25.6506 55.8348L28.072 55.6261L30.2734 55.4174C31.264 55.313 32.1995 55.0522 32.97 54.7913C33.1351 57.1913 31.5391 58.7044 28.072 59.0696Z" fill="#ED1C24"/>
<path fill-rule="evenodd" clip-rule="evenodd" d="M64.9439 51.974V57.8696C64.7788 58.8087 64.2835 59.2261 63.458 59.2783H63.1828C63.1828 59.2783 63.1828 59.2783 63.1278 59.2783H60.7614V49.887H57.0741V59.2783H54.8177H54.7627H54.4875C53.7171 59.2261 53.1667 58.8087 53.0016 57.8696V51.974C52.9466 50.4609 51.956 49.7826 50.2499 49.8348C49.4244 49.887 48.5989 49.9913 47.7734 50.0957V51.2957C48.764 51.2435 49.3694 51.7653 49.4244 52.9653V57.8696C49.3694 59.2783 50.0298 60.1653 51.7909 60.5305H57.0741H60.7614H66.0996C67.8056 60.1653 68.5211 59.2261 68.466 57.8174V53.0174C68.5761 51.8696 69.1264 51.3479 70.1171 51.3479V50.1479C69.2916 50.0435 68.466 49.9392 67.6405 49.887C65.9895 49.7826 64.9989 50.5131 64.9439 51.974Z" fill="#ED1C24"/>
<path fill-rule="evenodd" clip-rule="evenodd" d="M41.2266 60.5826H44.9138V49.887H41.2266V60.5826Z" fill="#ED1C24"/>
<path fill-rule="evenodd" clip-rule="evenodd" d="M90.7536 59.0173C89.763 59.0695 89.2127 58.6521 89.1576 57.6608L89.2127 53.6956C89.1576 51.4521 87.4516 50.0434 83.4341 49.8347H80.5173H77.2704C74.1885 50.0956 72.4824 51.1391 72.4824 53.1217H76.3348C76.3898 52.026 77.3804 51.4521 79.4167 51.3999H80.4623H82.4986C86.516 51.5043 86.1858 53.7999 82.9388 53.9565L80.4623 54.113L79.0314 54.2173C74.6838 54.426 71.9321 55.313 71.5469 57.2434C71.5469 59.1738 73.5281 60.2695 77.4355 60.6347H79.0865C79.5818 60.6347 80.022 60.5825 80.4623 60.5304C82.6086 60.3738 84.3697 59.9565 85.4153 59.1738C85.7455 59.9043 86.3509 60.4782 87.5616 60.5825H90.8086L90.7536 59.0173ZM80.5173 59.0695C80.4623 59.0695 80.3522 59.0695 80.2972 59.0695H77.9308C76.3348 58.913 75.7294 58.2869 75.6194 57.3478C75.5643 56.3043 76.4999 55.8347 78.0959 55.8347L80.5173 55.626L82.7187 55.4173C83.7093 55.313 84.6449 55.0521 85.4153 54.7912C85.5804 57.1912 83.9845 58.7043 80.5173 59.0695Z" fill="#ED1C24"/>
</svg>
