<svg width="110" height="110" viewBox="0 0 110 110" fill="none" xmlns="http://www.w3.org/2000/svg">
<circle cx="55" cy="55" r="54.5" stroke="#2F303E" stroke-opacity="0.4"/>
<path d="M83.2659 67.2113L81.4096 67.3827C77.9141 67.7077 70.274 69.3431 68.9726 72.3194C68.6844 72.9784 68.3923 73.7187 68.0838 74.5034C67.0579 77.1114 65.8948 80.0673 63.9407 82.4976C62.5198 84.265 60.8438 85.5171 58.9304 86.2434C57.6085 86.7474 56.175 87 54.6335 87H54.6322C53.0908 87 51.656 86.7474 50.3343 86.2432C48.4208 85.5169 46.7448 84.265 45.3239 82.4975C43.3699 80.0672 42.2067 77.1112 41.1808 74.5045C40.8723 73.7198 40.5802 72.9783 40.292 72.3193C38.9905 69.343 31.3506 67.7076 27.8538 67.3826L26 67.2099L26.1308 65.3511C26.278 63.2661 26.5281 61.2549 26.8825 59.3212C27.7649 54.4822 29.2873 50.1296 31.4332 46.3268C31.5564 46.1097 31.6808 45.8925 31.8077 45.6792L31.809 45.6779C23.8489 38.3604 27.2873 25.0144 27.4449 24.4277L28.091 22L46.2316 32.7203L46.1694 32.8244H46.1707C48.8891 31.7706 51.7613 31.2436 54.6321 31.2436H54.6334C57.5043 31.2436 60.3751 31.7706 63.0936 32.8244H63.0948L63.0326 32.7203L81.1735 22L81.8198 24.4277C81.9772 25.0144 85.4156 38.3604 77.4558 45.6779L77.457 45.6792C77.584 45.8925 77.7084 46.1097 77.8315 46.3268C79.9622 50.103 81.4795 54.4213 82.3633 59.2196C82.7276 61.1851 82.9842 63.2294 83.134 65.3512L83.2659 67.2113Z" fill="#FF4F19"/>
<path d="M83.2652 67.2113L81.4089 67.3827C77.9133 67.7077 70.2733 69.3431 68.9719 72.3194C68.6837 72.9784 68.3916 73.7187 68.0831 74.5034C67.0572 77.1114 65.8941 80.0673 63.94 82.4976C62.5191 84.265 60.8431 85.5171 58.9297 86.2434C57.6078 86.7474 56.1743 87 54.6328 87V31.2436C57.5037 31.2436 60.3745 31.7706 63.093 32.8244H63.0942L63.032 32.7203L81.1727 22L81.8191 24.4277C81.9765 25.0144 85.4149 38.3604 77.455 45.6779C77.4563 45.6779 77.4563 45.6792 77.4563 45.6792C77.5833 45.8925 77.7077 46.1097 77.8308 46.3268C79.9615 50.103 81.4788 54.4213 82.3625 59.2196C82.7269 61.1851 82.9835 63.2294 83.1333 65.3512L83.2652 67.2113Z" fill="#FF4F19"/>
<path d="M59.438 57.7741L62.1367 60.4622L66.53 56.0515L63.8312 53.3634L59.438 57.7741Z" fill="#2F303E"/>
<path d="M42.6731 56.0507L47.0664 60.4614L49.7652 57.7733L45.3719 53.3627L42.6731 56.0507Z" fill="#2F303E"/>
<path d="M83.2659 67.2113L81.4096 67.3827C77.9141 67.7077 70.274 69.3431 68.9726 72.3194C68.6844 72.9784 68.3923 73.7187 68.0838 74.5034C67.0579 77.1114 65.8948 80.0673 63.9407 82.4976C61.5382 85.4852 58.4085 87 54.6335 87H54.6322C50.8573 87 47.7263 85.4852 45.3239 82.4975C43.3699 80.0672 42.2067 77.1112 41.1808 74.5045C40.8723 73.7198 40.5802 72.9783 40.292 72.3193C38.9905 69.343 31.3506 67.7076 27.8538 67.3826L26 67.2099L26.1308 65.3511C26.278 63.2661 26.5281 61.2549 26.8825 59.3212C27.4209 59.3948 28.0544 59.4926 28.7603 59.6233C29.3356 59.73 29.9602 59.8569 30.6217 60.0105C37.731 61.6612 49.1065 66.2792 50.3343 79.0082H58.9304C60.1976 65.869 71.8372 61.3716 78.615 59.8593C79.2905 59.7095 79.9165 59.5889 80.4802 59.4924C81.2318 59.3629 81.8718 59.2766 82.3631 59.2195C82.7275 61.185 82.9841 63.2293 83.1339 65.3511L83.2659 67.2113Z" fill="#FFC173"/>
<path d="M83.2652 67.2113L81.4089 67.3827C77.9133 67.7077 70.2733 69.3431 68.9719 72.3194C68.6837 72.9784 68.3916 73.7187 68.0831 74.5034C67.0572 77.1114 65.8941 80.0674 63.94 82.4976C61.5375 85.4852 58.4078 87 54.6328 87V79.0083H58.9295C60.1968 65.8692 71.8364 61.3717 78.6141 59.8594C79.2896 59.7096 79.9157 59.589 80.4793 59.4926C81.231 59.3631 81.871 59.2767 82.3623 59.2196C82.7267 61.1851 82.9832 63.2294 83.133 65.3512L83.2652 67.2113Z" fill="#FFC173"/>
<path d="M58.928 78.795V86.2433C57.6063 86.7474 56.1728 87 54.6313 87H54.63C53.0886 87 51.6537 86.7474 50.332 86.2433V78.795H58.928Z" fill="#2F303E"/>
<path d="M58.9295 78.795V86.2433C57.6078 86.7474 56.1743 87 54.6328 87V78.795H58.9295Z" fill="#2F303E"/>
</svg>
