<svg width="110" height="110" viewBox="0 0 110 110" fill="none" xmlns="http://www.w3.org/2000/svg">
<circle cx="55" cy="55" r="54.5" stroke="#2F303E" stroke-opacity="0.4"/>
<path d="M74.7233 52.2716V27H36.2766V52.2716H22L55.5001 89L89 52.2716H74.7233Z" fill="#DE1E1E"/>
<path d="M46.5001 62.4997H50.0002V65.5001C50.0002 65.6461 50.0469 65.7656 50.1409 65.859C50.2346 65.953 50.3544 66 50.5003 66H53.1096C53.245 66 53.3622 65.953 53.4611 65.859C53.5601 65.7656 53.6095 65.646 53.6095 65.5001V62.4997H61.5001C61.6457 62.4997 61.7655 62.4533 61.8595 62.3593C61.9535 62.2653 62.0002 62.1457 62.0002 61.9998V59.9997C62.0002 59.8546 61.9535 59.7342 61.8595 59.6408C61.7658 59.5468 61.6457 59.4998 61.5001 59.4998H53.6092V57.6559H58.9217C61.0049 57.6559 62.7052 57.0211 64.0233 55.7498C65.3408 54.4797 65.9999 52.8392 65.9999 50.828C65.9999 48.8181 65.3408 47.1775 64.0233 45.9061C62.7054 44.6361 61.0049 44 58.9217 44H50.5001C50.3541 44 50.2345 44.047 50.1406 44.1404C50.0469 44.2344 49.9999 44.3547 49.9999 44.4999V54.3282H46.5001C46.3542 54.3282 46.2346 54.3776 46.1407 54.4766C46.047 54.5755 46 54.6927 46 54.8281V57.156C46 57.3019 46.0467 57.4215 46.1407 57.5155C46.2347 57.6095 46.3539 57.6559 46.5001 57.6559H50.0002V59.4997H46.5001C46.3542 59.4997 46.2346 59.5467 46.1407 59.6407C46.047 59.7341 46 59.8543 46 59.9996V61.9997C46 62.1457 46.0467 62.2653 46.1407 62.3592C46.2346 62.4533 46.3542 62.4997 46.5001 62.4997ZM53.6092 47.3285H58.6092C59.7132 47.3285 60.6037 47.6513 61.281 48.2971C61.958 48.9429 62.2966 49.787 62.2966 50.8282C62.2966 51.87 61.958 52.7143 61.281 53.3594C60.6037 54.0057 59.7132 54.3285 58.6092 54.3285H53.6092V47.3285Z" fill="white"/>
</svg>
