<svg width="110" height="110" viewBox="0 0 110 110" fill="none" xmlns="http://www.w3.org/2000/svg">
<circle cx="55" cy="55" r="54.5" stroke="#2F303E" stroke-opacity="0.4"/>
<path fill-rule="evenodd" clip-rule="evenodd" d="M24.2738 61.3783H21.357V52.787H18V50.187H27.796V52.787H24.2738V61.3783Z" fill="#D0432F"/>
<path fill-rule="evenodd" clip-rule="evenodd" d="M29.2276 53.126C29.6128 50.526 31.9242 50.1304 34.0706 50.1304C37.8128 50.1304 39.1336 51.0912 39.1336 55.1043C39.1336 59.2304 39.0236 61.4347 34.1806 61.4347C32.2544 61.4347 29.943 61.2652 29.2826 59.0043C29.0625 58.2695 29.0625 57.4782 29.0625 56.6869V55.8956C29.0625 54.9912 29.0625 54.0304 29.2276 53.126ZM32.0343 56.4608C32.0343 58.0434 32.0893 58.8912 33.8504 58.8912C35.8316 58.8912 36.1618 58.3825 36.1618 56.4608C36.1618 55.9521 36.1618 55.3869 36.1618 54.8217C36.1618 53.3521 35.9417 52.6738 34.4008 52.6738C32.1444 52.6738 32.0893 52.8999 32.0343 55.7825V56.4608Z" fill="#D0432F"/>
<path fill-rule="evenodd" clip-rule="evenodd" d="M47.6641 53.6912C47.6641 52.5608 47.2789 52.3912 46.2332 52.3912H45.9581C45.1876 52.3912 44.3621 52.4478 44.3621 53.4086C44.3621 54.0869 44.5822 54.426 45.2426 54.4825C47.7742 54.7086 50.746 54.1999 50.746 57.7608C50.746 58.7217 50.746 59.9086 49.9755 60.5869C49.095 61.3782 47.8292 61.4347 46.7285 61.4347H46.0131C43.0413 61.4347 41.4453 61.3217 41.4453 57.7608H44.197C44.197 58.6086 44.4171 59.1173 45.2977 59.1173H46.5634C47.2789 59.1173 47.8842 59.0043 47.8842 58.0434C47.8842 57.0825 47.3339 57.0825 46.5084 57.026C43.3715 56.7999 41.4453 57.0825 41.4453 53.4086C41.4453 51.4869 42.2158 50.4695 44.142 50.2999C44.7473 50.1869 45.4077 50.1304 46.0681 50.1304C48.5997 50.1304 50.4708 50.1869 50.4708 53.3521C50.4708 53.4652 50.4708 53.5782 50.4708 53.6912H47.6641Z" fill="#D0432F"/>
<path fill-rule="evenodd" clip-rule="evenodd" d="M62.5758 61.3783H59.7141V56.9696H55.9168V61.3783H53V50.187H55.9168V54.4261H59.7141V50.187H62.5758V61.3783Z" fill="#D0432F"/>
<path fill-rule="evenodd" clip-rule="evenodd" d="M68.2996 61.3783H65.3828V50.187H68.2996V61.3783Z" fill="#D0432F"/>
<path fill-rule="evenodd" clip-rule="evenodd" d="M71.0547 50.187H76.9433C78.9245 50.187 80.1903 50.7522 80.1903 53.0131C80.1903 54.3131 80.0802 55.3305 78.4842 55.6131V55.7261C79.9701 55.8392 80.3554 56.687 80.3554 58.1566C80.3554 60.6435 79.5299 61.3783 76.9983 61.3783H71.0547V50.187ZM75.8426 54.6522C76.6131 54.5957 77.3285 54.7088 77.3285 53.6914C77.3285 52.9001 77.1084 52.6174 76.3379 52.6174H73.9715V54.6522H75.8426ZM75.8976 58.8914C76.8332 58.8914 77.4936 58.8914 77.4936 57.8174C77.4936 56.8001 76.9983 56.7435 76.1178 56.7435H73.9715V58.8914H75.8976Z" fill="#D0432F"/>
<path fill-rule="evenodd" clip-rule="evenodd" d="M89.3783 61.3782H92.3501L89.0481 50.2434H84.6454L81.3984 61.3782H84.4253L85.0306 59.1173H88.7729L89.3783 61.3782ZM85.581 56.9695L86.8468 52.4478L88.1125 56.9695H85.581Z" fill="#D0432F"/>
</svg>
