<svg width="110" height="110" viewBox="0 0 110 110" fill="none" xmlns="http://www.w3.org/2000/svg">
<circle cx="55" cy="55" r="54.5" stroke="#2F303E" stroke-opacity="0.4"/>
<path fill-rule="evenodd" clip-rule="evenodd" d="M66.0134 53.6784C65.8476 53.1827 65.6819 53.0175 65.0188 53.0175C64.1899 53.0175 63.8584 53.6784 63.8584 54.3392C63.8584 55.0001 64.1899 55.661 65.0188 55.661C65.6819 55.661 65.8476 55.1653 66.0134 54.6697H66.6765C66.6765 55.4958 66.0134 56.1566 65.0188 56.1566C63.8584 56.1566 63.1953 55.3305 63.1953 54.174C63.1953 53.1827 63.8584 52.1914 65.0188 52.1914C65.8476 52.1914 66.5107 52.6871 66.6765 53.5131H66.0134V53.6784Z" fill="black"/>
<path fill-rule="evenodd" clip-rule="evenodd" d="M68.9993 53.0178C69.8281 53.0178 70.1597 53.6787 70.1597 54.3395C70.1597 55.0004 69.8281 55.6613 68.9993 55.6613C68.1704 55.6613 67.8389 55.0004 67.8389 54.3395C67.8389 53.6787 68.1704 53.0178 68.9993 53.0178ZM68.9993 52.3569C67.8389 52.3569 67.1758 53.183 67.1758 54.3395C67.1758 55.3308 67.8389 56.3222 68.9993 56.3222C70.1597 56.3222 70.8228 55.4961 70.8228 54.3395C70.657 53.3482 69.9939 52.3569 68.9993 52.3569Z" fill="black"/>
<path fill-rule="evenodd" clip-rule="evenodd" d="M71.3203 52.522H72.315L73.3096 55.3307L74.3042 52.522H75.2988V56.1568H74.6357V53.3481L73.6411 56.1568H72.978L71.9834 53.3481V56.1568H71.3203V52.522Z" fill="black"/>
<path fill-rule="evenodd" clip-rule="evenodd" d="M76.792 53.0176H77.7866C78.1182 53.0176 78.4497 53.1828 78.4497 53.6785C78.4497 54.1741 78.1182 54.3394 77.7866 54.3394H76.792V53.0176ZM76.1289 56.1568H76.792V54.835H77.7866C78.7812 54.835 79.1128 54.1741 79.1128 53.6785C79.1128 53.1828 78.947 52.522 77.7866 52.522H76.1289V56.1568Z" fill="black"/>
<path fill-rule="evenodd" clip-rule="evenodd" d="M79.6094 52.522H80.2725V54.6698C80.2725 55.1655 80.2725 55.6611 81.1013 55.6611C81.9302 55.6611 81.9302 55.1655 81.9302 54.6698V52.522H82.5933V54.835C82.5933 55.8263 81.9302 56.322 81.1013 56.322C80.2725 56.322 79.6094 55.8263 79.6094 54.835V52.522Z" fill="black"/>
<path fill-rule="evenodd" clip-rule="evenodd" d="M83.0898 52.522H86.0737V53.0176H84.9133V56.1568H84.2502V53.0176H83.0898V52.522Z" fill="black"/>
<path fill-rule="evenodd" clip-rule="evenodd" d="M86.5703 52.522H89.2226V53.0176H87.2334V54.0089H89.0569V54.5046H87.2334V55.6611H89.2226V56.1568H86.5703V52.522Z" fill="black"/>
<path fill-rule="evenodd" clip-rule="evenodd" d="M90.5498 53.0178H91.5444C91.876 53.0178 92.2075 53.183 92.2075 53.5135C92.2075 53.8439 92.0417 54.1743 91.5444 54.1743H90.384V53.0178H90.5498ZM89.8867 56.1569H90.5498V54.67H91.5444C92.2075 54.67 92.3733 55.0004 92.3733 55.6613C92.3733 55.8265 92.3733 56.1569 92.5391 56.1569H93.2021C93.0364 55.9917 93.0364 55.6613 93.0364 55.1656C93.0364 54.67 92.7048 54.5048 92.5391 54.3395C92.7048 54.3395 93.2021 54.1743 93.2021 53.3482C93.2021 52.6874 92.7048 52.3569 91.876 52.3569H90.0525V56.1569H89.8867Z" fill="black"/>
<path fill-rule="evenodd" clip-rule="evenodd" d="M94.0303 55.0002C94.0303 55.4959 94.5276 55.8263 95.0249 55.8263C95.688 55.8263 95.8538 55.4959 95.8538 55.3307C95.8538 55.0002 95.688 55.0002 95.5222 54.835C95.1907 54.6698 94.8591 54.6698 94.3618 54.5046C93.6987 54.3394 93.533 54.0089 93.533 53.5133C93.533 52.8524 94.196 52.522 94.8591 52.522C95.688 52.522 96.3511 52.8524 96.3511 53.6785H95.688C95.688 53.1828 95.3564 53.0176 94.8591 53.0176C94.5276 53.0176 94.196 53.1828 94.196 53.5133C94.196 53.8437 94.3618 53.8437 94.6934 54.0089C94.6934 54.0089 95.5222 54.1741 95.8538 54.3394C96.3511 54.5046 96.5168 54.835 96.5168 55.3307C96.5168 56.1568 95.688 56.4872 95.0249 56.4872C94.196 56.4872 93.533 56.1568 93.3672 55.1655H94.0303V55.0002Z" fill="black"/>
<path fill-rule="evenodd" clip-rule="evenodd" d="M34.1882 46.7394C34.1882 46.2437 33.8567 45.748 33.3594 45.748H36.8406C36.3433 45.748 36.0117 46.2437 36.0117 46.7394V55.3307C36.0117 55.8263 36.3433 56.322 36.8406 56.322H33.3594C33.8567 56.322 34.1882 55.8263 34.1882 55.3307V46.7394Z" fill="#ED1C24"/>
<path fill-rule="evenodd" clip-rule="evenodd" d="M15.2891 51.035H17.7756C18.273 51.035 18.7703 51.3654 18.7703 51.8611V50.0437H15.2891V46.7394H18.6045C19.1018 46.7394 19.5991 47.0698 19.5991 47.5654V45.748H12.6367C13.134 45.748 13.4656 46.2437 13.4656 46.7394V55.3307C13.4656 55.8263 13.134 56.322 12.6367 56.322H16.1179C15.6206 56.322 15.2891 55.8263 15.2891 55.3307V51.035Z" fill="#ED1C24"/>
<path fill-rule="evenodd" clip-rule="evenodd" d="M22.418 53.348C22.418 54.5046 23.2468 55.3307 24.4072 55.3307C25.5676 55.3307 26.3965 54.3394 26.3965 53.348V46.7394C26.3965 46.2437 26.0649 45.748 25.5676 45.748H29.0488C28.5515 45.748 28.22 46.2437 28.22 46.7394V53.1828C28.22 55.3307 26.5623 56.4872 24.4072 56.4872C22.2522 56.4872 20.5945 55.3307 20.5945 53.1828V46.7394C20.5945 46.2437 20.2629 45.748 19.7656 45.748H23.2468C22.7495 45.748 22.418 46.2437 22.418 46.7394V53.348Z" fill="#ED1C24"/>
<path fill-rule="evenodd" clip-rule="evenodd" d="M32.1961 46.7394C32.1961 46.2437 32.5276 45.748 33.0249 45.748H29.5437C30.041 45.748 30.3726 46.2437 30.3726 46.7394V57.3133C30.3726 57.3133 30.3726 59.2959 28.7148 60.2872C28.7148 60.2872 32.1961 59.7915 32.1961 56.6524V46.7394Z" fill="#ED1C24"/>
<path fill-rule="evenodd" clip-rule="evenodd" d="M54.4119 53.348C54.4119 54.5046 55.4065 55.3307 56.4011 55.3307C57.5615 55.3307 58.3904 54.3394 58.3904 53.348V46.7394C58.3904 46.2437 58.0588 45.748 57.5615 45.748H61.0427C60.5454 45.748 60.2139 46.2437 60.2139 46.7394V53.1828C60.2139 55.3307 58.5562 56.4872 56.4011 56.4872C54.2461 56.4872 52.4226 55.3307 52.4226 53.1828V46.7394C52.4226 46.2437 52.0911 45.748 51.5938 45.748H55.075C54.5776 45.748 54.2461 46.2437 54.2461 46.7394V53.348H54.4119Z" fill="#ED1C24"/>
<path fill-rule="evenodd" clip-rule="evenodd" d="M50.7647 47.4001C50.2673 46.4088 48.7754 46.574 48.7754 46.574C46.6204 46.574 46.7861 48.2262 46.7861 48.2262C46.7861 48.2262 46.6204 49.0523 47.7808 49.7131L49.9358 50.8697C52.0908 52.0262 51.7593 53.5131 51.7593 53.5131C51.7593 53.5131 51.9251 56.487 47.4492 56.487C47.4492 56.487 46.123 56.487 45.46 56.3218L44.7969 54.3392C45.46 55.3305 47.4492 55.4957 47.4492 55.4957C49.9358 55.3305 49.9358 53.6783 49.9358 53.6783C49.9358 53.6783 50.1016 53.0175 49.1069 52.3566L46.9519 51.2001C44.6311 50.0436 44.9626 48.3914 44.9626 48.3914C44.9626 48.3914 44.9626 45.4175 48.7754 45.4175C48.7754 45.4175 50.4331 45.4175 50.7647 45.7479V47.4001Z" fill="#ED1C24"/>
<path fill-rule="evenodd" clip-rule="evenodd" d="M37.667 45.748L37.0039 47.5654C37.5012 46.7393 38.1643 46.7393 38.1643 46.7393H39.9878V55.1654C39.9878 55.661 39.6563 56.1567 39.1589 56.1567H42.8059C42.3086 56.1567 41.9771 55.661 41.9771 55.1654V46.7393H43.6348C43.9663 46.7393 44.4636 47.2349 44.4636 47.5654L45.1267 45.5828H37.667V45.748Z" fill="#ED1C24"/>
<path fill-rule="evenodd" clip-rule="evenodd" d="M33.8555 42.1132C34.187 42.4436 34.6843 42.6089 35.3474 42.6089C36.5078 42.6089 37.5025 41.6176 37.5025 40.461C37.5025 39.3045 36.5078 38.3132 35.3474 38.3132C35.3474 38.3132 33.6897 38.148 33.0266 40.1306V38.9741C33.5239 38.148 34.3528 37.6523 35.3474 37.6523C37.0051 37.6523 38.3313 38.9741 38.3313 40.6263C38.3313 42.2784 37.0051 43.6002 35.3474 43.6002C34.5186 43.6002 33.6897 43.2697 33.1924 42.7741L32.1978 41.6176C31.8662 41.2871 31.5347 41.1219 31.0374 41.1219C30.2085 41.1219 29.5454 41.7828 29.5454 42.6089C29.5454 43.435 30.2085 44.0958 31.0374 44.0958C31.0374 44.0958 32.1978 44.261 32.8608 42.7741V43.9306C32.3635 44.4263 31.7004 44.7567 31.0374 44.7567C29.7112 44.7567 28.5508 43.7654 28.5508 42.4436C28.5508 41.1219 29.7112 40.1306 31.0374 40.1306C31.7004 40.1306 32.3635 40.461 32.6951 40.7915L33.8555 42.1132Z" fill="#ED1C24"/>
<path fill-rule="evenodd" clip-rule="evenodd" d="M40.6521 59.2958V61.1132C39.6575 60.7827 38.8286 60.6175 37.9998 60.6175C37.5024 60.6175 37.1709 60.6175 36.8394 60.7827C36.5078 60.9479 36.5078 61.1132 36.5078 61.4436C36.5078 61.774 36.8394 61.9392 37.5024 62.2697L39.3259 63.0958C40.8179 63.7566 41.481 64.5827 41.481 65.7392C41.481 66.7305 41.1494 67.3914 40.3206 67.8871C39.4917 68.3827 38.4971 68.7132 37.3367 68.7132C36.6736 68.7132 36.1763 68.7132 35.679 68.7132C35.1816 68.7132 34.6843 68.5479 34.0212 68.3827V66.5653C35.1816 66.8958 36.1763 67.061 37.0051 67.061C37.9998 67.061 38.6629 66.7305 38.6629 66.2349C38.6629 65.9045 38.4971 65.7392 37.9998 65.574L36.0105 64.7479C35.3474 64.4175 34.6843 64.0871 34.3528 63.5914C34.0212 63.0958 33.8555 62.6001 33.8555 61.9392C33.8555 61.1132 34.187 60.4523 35.0159 59.9566C35.679 59.461 36.6736 59.1306 37.9998 59.1306C38.3313 59.1306 38.8286 59.1306 39.3259 59.2958C39.6575 59.1306 40.1548 59.1306 40.6521 59.2958ZM42.8071 59.1306V68.3827H45.6253V59.1306H42.8071ZM54.9085 59.1306V60.7827H50.5984V62.7653H54.4112V64.2523H50.5984V66.4001H55.0743V68.2175H47.7803V59.1306H54.9085ZM68.336 59.1306V68.3827H65.6837V62.2697L62.8655 68.3827H61.2078L58.5555 62.1045V68.2175H56.5662V59.1306H60.0474L62.534 64.7479L65.0206 59.1306H68.336ZM77.785 59.1306V60.7827H73.4749V62.7653H77.1219V64.2523H73.4749V66.4001H77.785V68.2175H70.6568V59.1306H77.785ZM87.8971 59.1306V68.3827H84.7474L81.432 62.4349V68.3827H79.4427V59.1306H82.5924L85.9078 65.0784V59.1306H87.8971ZM96.1857 59.2958V61.1132C95.191 60.7827 94.3622 60.6175 93.5333 60.6175C93.036 60.6175 92.7045 60.6175 92.3729 60.7827C92.0414 60.9479 92.0414 61.1132 92.0414 61.4436C92.0414 61.6088 92.0414 61.774 92.2072 61.9392C92.3729 62.1045 92.5387 62.1045 93.036 62.2697L94.8595 63.0958C95.5226 63.4262 96.1857 63.7566 96.5172 64.2523C96.8488 64.7479 97.0145 65.2436 97.0145 65.9045C97.0145 66.7305 96.683 67.3914 95.8541 68.0523C95.0253 68.5479 94.0306 68.8784 92.8702 68.8784C92.3729 68.8784 91.7098 68.8784 91.3783 68.8784C90.881 68.8784 90.3837 68.7132 89.7206 68.5479V66.5653C90.881 66.8958 91.8756 67.061 92.7045 67.061C93.2018 67.061 93.5333 67.061 93.8649 66.8958C94.1964 66.7305 94.1964 66.5653 94.1964 66.2349C94.1964 65.9045 94.0306 65.574 93.5333 65.4088L91.5441 64.5827C90.7152 64.2523 90.2179 63.9219 89.8863 63.4262C89.5548 62.9306 89.389 62.4349 89.389 61.774C89.389 60.9479 89.7206 60.2871 90.5494 59.7914C91.2125 59.2958 92.2071 58.9653 93.3675 58.9653C93.6991 58.9653 94.1964 58.9653 94.6937 59.1306C95.0253 59.1306 95.6884 59.1306 96.1857 59.2958Z" fill="#00AAAD"/>
</svg>
