<svg width="110" height="110" viewBox="0 0 110 110" fill="none" xmlns="http://www.w3.org/2000/svg">
<circle cx="55" cy="55" r="54.5" stroke="#2F303E" stroke-opacity="0.4"/>
<path fill-rule="evenodd" clip-rule="evenodd" d="M76.0898 54.5001C76.0898 59.4001 80.0093 63.4001 84.8106 63.4001C89.612 63.4001 93.5315 59.4001 93.5315 54.5001C93.5315 49.6001 89.612 45.6001 84.8106 45.6001C80.0093 45.7001 76.0898 49.6001 76.0898 54.5001ZM79.3234 54.5001C79.3234 51.4001 81.7731 48.9001 84.8106 48.9001C87.8482 48.9001 90.2979 51.4001 90.2979 54.5001C90.2979 57.6001 87.8482 60.1001 84.8106 60.1001C81.7731 60.1001 79.3234 57.6001 79.3234 54.5001Z" fill="black"/>
<path fill-rule="evenodd" clip-rule="evenodd" d="M67.9553 49.9001V63.3001H71.1889V49.8001C71.1889 49.7001 71.1889 48.8001 71.7768 48.4001L70.013 45.6001C68.2493 46.8001 67.8573 48.9001 67.9553 49.9001Z" fill="black"/>
<path fill-rule="evenodd" clip-rule="evenodd" d="M39.6371 53.6001C37.7754 56.9001 36.0116 60.0001 33.5619 60.0001C31.0143 60.0001 29.2505 56.9001 27.4868 53.6001C25.3311 49.9001 22.9794 45.6001 18.668 45.6001V48.9001C21.1176 48.9001 22.8814 52.0001 24.7431 55.2001C26.8988 59.0001 29.2505 63.2001 33.6599 63.2001C38.0693 63.2001 40.421 58.9001 42.5767 55.2001C44.4384 51.9001 46.1042 48.9001 48.6519 48.9001C51.1015 48.9001 52.8653 52.0001 54.727 55.2001C56.8827 59.0001 59.2344 63.2001 63.6438 63.2001V60.0001C61.0962 60.0001 59.3324 56.9001 57.5686 53.6001C55.4129 49.9001 53.0613 45.6001 48.7498 45.6001C44.0465 45.6001 41.6948 49.9001 39.6371 53.6001Z" fill="black"/>
<path fill-rule="evenodd" clip-rule="evenodd" d="M50.8088 57.6002C50.8088 58.9002 49.731 60.0002 48.4571 60.0002C47.1833 60.0002 46.1055 58.9002 46.1055 57.6002C46.1055 56.3002 47.1833 55.2002 48.4571 55.2002C49.731 55.2002 50.8088 56.2002 50.8088 57.6002Z" fill="black"/>
</svg>
