<svg width="139" height="111" viewBox="0 0 139 111" fill="none" xmlns="http://www.w3.org/2000/svg">
<circle cx="71" cy="56.0005" r="54.5" stroke="#2F303E" stroke-opacity="0.4"/>
<path d="M79.9516 65.8239H76.3667L83.1147 46.8967H86.6996L79.9516 65.8239ZM88.9138 42.9844H77.3156L60.8672 89.4036H68.037L74.996 69.6305H82.1658C83.7474 69.6305 85.7507 69.2075 86.5942 66.7755C87.4377 64.4493 91.8661 52.0779 93.1314 48.377C94.2912 44.6762 91.3389 42.9844 88.9138 42.9844Z" fill="#579ADD"/>
<path d="M70.9889 48.9059L63.9246 68.679H56.8602L64.5572 47.0026H60.8668L53.1698 68.679H46L62.343 23H69.5128L62.343 43.0903H67.1931C70.5672 43.196 72.0433 45.8395 70.9889 48.9059Z" fill="#579ADD"/>
</svg>
