<svg width="110" height="110" viewBox="0 0 110 110" fill="none" xmlns="http://www.w3.org/2000/svg">
<circle cx="55" cy="55" r="54.5" stroke="#2F303E" stroke-opacity="0.4"/>
<path d="M44.0809 42.8521C46.6194 42.8521 48.3486 44.5382 48.3486 46.862V52.8445C48.3486 52.9995 48.2178 53.1252 48.0566 53.1252H45.7549C45.5937 53.1252 45.463 52.9995 45.463 52.8445V47.376C45.463 46.0398 44.2276 45.2414 43.0337 45.2414C41.4889 45.2414 40.6545 46.3412 40.6545 47.376V52.8445C40.6545 52.9995 40.5237 53.1252 40.3625 53.1252H38.0615C37.9003 53.1252 37.7695 52.9995 37.7695 52.8445V43.3023C37.7695 43.1472 37.9003 43.0215 38.0615 43.0215H40.363C40.5242 43.0215 40.655 43.1472 40.655 43.3024L40.6545 44.4693L40.655 44.4688L40.6545 44.4709C41.4952 43.3913 42.8711 42.8521 44.0809 42.8521Z" fill="#E70014"/>
<path d="M69.0621 43.022H71.7174C71.9252 43.022 72.0664 43.2248 71.9874 43.4095L67.9043 52.9485C67.8593 53.0537 67.7527 53.1224 67.6344 53.1224H64.8636C64.7453 53.1224 64.6386 53.0537 64.5936 52.9485L60.5105 43.4095C60.4315 43.2248 60.5727 43.022 60.7805 43.022H63.4365C63.5593 43.022 63.6688 43.0957 63.7108 43.2066L65.9751 49.1807C66.0684 49.4268 66.4303 49.4268 66.5236 49.1807L68.7879 43.2066C68.8298 43.0957 68.9393 43.022 69.0621 43.022Z" fill="#E70014"/>
<path d="M36.6973 47.1087C36.5133 46.1008 36.0948 45.2015 35.4733 44.5065C34.5041 43.4242 33.0696 42.8516 31.3229 42.8516C28.1502 42.8516 25.7578 45.1021 25.7578 48.0746C25.7578 51.1242 28.1558 53.2971 31.6409 53.2971C33.443 53.2971 35.2825 52.5391 36.2895 51.605C36.419 51.4848 36.4098 51.2833 36.267 51.1777L34.8722 50.1467C34.7707 50.0717 34.6295 50.0689 34.5254 50.1405C33.4162 50.9026 32.7369 51.0892 31.6835 51.0892C30.9078 51.0892 30.263 50.9089 29.756 50.583C29.5624 50.4586 29.5925 50.1759 29.8076 50.0901L36.5206 47.4124C36.6453 47.3625 36.7207 47.2366 36.6973 47.1087ZM33.3136 46.5916L28.9415 48.3357C28.7524 48.411 28.5434 48.2803 28.537 48.0836C28.5091 47.2409 28.7673 46.5674 29.1558 46.0658C29.6472 45.4314 30.4299 45.0589 31.3752 45.0589C32.2894 45.0589 33.0096 45.5003 33.4475 46.1796C33.5434 46.3285 33.4819 46.5245 33.3136 46.5916Z" fill="#E70014"/>
<path d="M25.483 50.8585V52.8447C25.483 52.9997 25.3522 53.1254 25.191 53.1254H16.2919C16.1307 53.1254 16 52.9997 16 52.8447V40.2807C16 40.1257 16.1307 40 16.2919 40H18.6328C18.794 40 18.9247 40.1257 18.9247 40.2807V50.2972C18.9247 50.4522 19.0554 50.5779 19.2166 50.5779H25.191C25.3522 50.5778 25.483 50.7035 25.483 50.8585Z" fill="#E70014"/>
<path d="M77.37 42.8516C74.1927 42.8516 71.7031 45.1454 71.7031 48.0735C71.7031 51.035 74.1757 53.2954 77.3314 53.2954C80.5087 53.2954 82.9977 51.001 82.9977 48.0735C82.9976 45.112 80.5257 42.8516 77.37 42.8516ZM77.37 50.918C75.7893 50.918 74.55 49.6683 74.55 48.0735C74.55 46.4031 75.72 45.2289 77.3314 45.2289C78.9127 45.2289 80.1515 46.4786 80.1515 48.0735C80.1514 49.7116 78.9819 50.918 77.37 50.918Z" fill="#E70014"/>
<path d="M55.159 42.8516C51.9811 42.8516 49.4922 45.1454 49.4922 48.0735C49.4922 51.035 51.9641 53.2954 55.1198 53.2954C58.297 53.2954 60.7866 51.001 60.7866 48.0735C60.7866 45.112 58.3141 42.8516 55.159 42.8516ZM55.159 50.918C53.5777 50.918 52.339 49.6683 52.339 48.0735C52.339 46.4031 53.5085 45.2289 55.1199 45.2289C56.7012 45.2289 57.9399 46.4786 57.9399 48.0735C57.9398 49.7116 56.7703 50.918 55.159 50.918Z" fill="#E70014"/>
<path d="M48.8881 61.0452L44.0168 68.5874C43.9721 68.6566 44.0218 68.7481 44.1043 68.7481H47.2808C47.316 68.7481 47.3489 68.7302 47.3681 68.7006L52.0604 61.4756C52.1027 61.4104 52.0613 61.3235 51.984 61.3153L48.9864 60.9981C48.9474 60.994 48.9093 61.0122 48.8881 61.0452Z" fill="#0964AF"/>
<path d="M49.7488 59.884C49.6673 59.884 49.6174 59.7946 49.6602 59.7252C49.9495 59.256 50.7965 57.8898 51.0381 57.5761C51.3184 57.1919 51.69 57.0281 52.0804 57.0281H56.621C56.6784 57.0281 56.7251 57.0747 56.7251 57.1322V59.0221C56.7251 59.1362 56.8824 59.168 56.925 59.0622C57.0483 58.7563 57.226 58.3992 57.4509 58.1668C57.8846 57.7167 58.4633 57.0931 59.7846 57.0096C59.7874 57.0094 59.7901 57.0093 59.7928 57.0093H69.4211C69.4786 57.0093 69.5252 57.0559 69.5252 57.1134V59.7797C69.5252 59.8372 69.4786 59.8838 69.4211 59.8838H49.7488V59.884Z" fill="#0964AF"/>
<path d="M96.0021 59.7728V57.1041C96.0021 57.0466 95.9554 57 95.898 57H85.5886C85.5858 57 85.5831 57.0001 85.5804 57.0003C84.0884 57.0949 82.9651 58.009 82.5269 59.6301C82.5246 59.6389 82.5234 59.6475 82.5234 59.6567V59.7706C82.5234 59.8281 82.5701 59.8747 82.6275 59.8747L95.8979 59.877C95.9554 59.8769 96.0021 59.8302 96.0021 59.7728Z" fill="#0964AF"/>
<path d="M72.8381 59.8746H70.1354C70.0779 59.8746 70.0312 59.828 70.0312 59.7705V57.118C70.0312 57.0605 70.0779 57.0139 70.1354 57.0139H72.8381C72.8956 57.0139 72.9422 57.0605 72.9422 57.118V59.7705C72.9423 59.828 72.8957 59.8746 72.8381 59.8746Z" fill="#0964AF"/>
<path d="M82.398 59.8746H79.6979C79.6404 59.8746 79.5938 59.828 79.5938 59.7705V57.118C79.5938 57.0605 79.6404 57.0139 79.6979 57.0139H82.398C82.4555 57.0139 82.5021 57.0605 82.5021 57.118V59.7705C82.5021 59.828 82.4555 59.8746 82.398 59.8746Z" fill="#0964AF"/>
<path d="M82.4018 61.8445L79.7504 61.6877C79.6906 61.6842 79.6401 61.7317 79.6401 61.7917V65.0002C79.6401 65.0002 79.6315 65.9562 78.6975 65.9562H73.7884C73.7846 65.9562 73.7813 65.9561 73.7774 65.9557C73.7046 65.9479 72.9509 65.8464 72.9509 65.009V61.3277C72.9509 61.2731 72.9087 61.2278 72.8542 61.2238L70.174 61.0322C70.1137 61.028 70.0625 61.0757 70.0625 61.1361V66.1029C70.0625 66.1102 70.0632 66.1175 70.0645 66.1246C70.5357 68.5561 72.7568 68.7434 72.7568 68.7434C72.7568 68.7434 72.971 68.7577 73.0174 68.7616C73.0202 68.7618 73.0223 68.7619 73.0252 68.7619H79.6541C79.6575 68.7619 79.6603 68.7618 79.6636 68.7615C79.7936 68.7497 82.4996 68.4709 82.4996 65.8375V61.9485C82.4998 61.8934 82.4569 61.8478 82.4018 61.8445Z" fill="#0964AF"/>
<path d="M53.8736 68.7501H67.3734C67.3808 68.7501 67.3884 68.7494 67.3956 68.7479C69.7566 68.2728 70.0036 66.149 70.0036 66.149C70.1091 65.5503 70.0566 65.0598 70.0506 65.0085C70.0503 65.0057 70.0499 65.0034 70.0494 65.0005C69.9742 64.5671 69.154 62.6923 67.3794 62.5289C66.394 62.4382 58.1808 61.7918 57.0115 61.6999C56.9421 61.6944 56.8866 61.7576 56.9022 61.8255C57.0979 62.672 57.4955 63.1118 57.7643 63.3688C58.3945 63.9675 59.3829 64.154 59.459 64.1676C59.4622 64.1681 59.4641 64.1684 59.4673 64.1687C59.7744 64.197 66.7425 64.7675 66.7425 64.7675C66.9663 64.7792 67.3906 64.8353 67.3856 65.3846C67.3856 65.451 67.3243 65.9354 66.7849 65.9354H56.7044C56.6469 65.9354 56.6003 65.8888 56.6003 65.8313V61.7622C56.6003 61.7076 56.5581 61.6623 56.5037 61.6583L53.8811 61.4683C53.8208 61.4639 53.7695 61.5117 53.7695 61.5722V68.6462C53.7695 68.7035 53.8161 68.7501 53.8736 68.7501Z" fill="#0964AF"/>
<path d="M82.5292 66.0213C82.5293 65.964 82.5759 65.9174 82.6333 65.9174H92.6438C92.8268 65.9174 93.0943 65.814 93.1397 65.7704C93.2396 65.6745 93.3185 65.5096 93.3185 65.3507C93.3185 64.8026 92.8619 64.7788 92.6327 64.7672C92.6327 64.7672 85.5833 64.185 85.2824 64.1608C85.2794 64.1606 85.2776 64.1603 85.2747 64.1598C85.2022 64.148 84.2684 63.9857 83.637 63.3844C83.3667 63.1305 83.013 62.8545 82.7371 62.0039C82.7145 61.934 82.7685 61.8624 82.8419 61.8666C84.056 61.9376 92.2694 62.4194 93.246 62.5098C95.0281 62.6786 95.8627 64.4233 95.9379 65.0038C95.9379 65.0038 96.0143 65.5285 95.9217 66.1727C95.9217 66.1727 95.5529 68.6229 92.9435 68.7746C92.9409 68.7747 92.9381 68.7748 92.9355 68.7748H82.6275C82.57 68.7748 82.5232 68.7281 82.5234 68.6704L82.5292 66.0213Z" fill="#0964AF"/>
</svg>
