<svg width="110" height="110" viewBox="0 0 110 110" fill="none" xmlns="http://www.w3.org/2000/svg">
<circle cx="55" cy="55" r="54.5" stroke="#2F303E" stroke-opacity="0.4"/>
<path fill-rule="evenodd" clip-rule="evenodd" d="M90.0018 61.3954L93.8479 51.0005C93.8479 51.0005 91.0274 51.0005 88.2069 51.5076L84.6172 61.2687H90.0018V61.3954ZM89.3608 48.3384L88.5915 50.3667C91.412 49.7329 94.2325 49.7329 94.2325 49.7329L95.0018 47.7046C95.0018 47.7046 92.1813 47.7046 89.3608 48.3384Z" fill="black"/>
<path fill-rule="evenodd" clip-rule="evenodd" d="M69.4887 58.987C71.1553 59.2406 72.9502 59.4941 74.7451 59.4941C75.8989 59.4941 77.9502 59.3673 78.0784 57.8461C78.2066 57.2123 77.5656 56.832 76.4117 56.3249C75.2579 55.6911 74.3605 55.3108 73.3348 54.677C72.3092 54.0431 71.9246 52.9022 72.181 51.7613C73.2066 48.3386 78.2066 47.8315 81.1553 47.8315C83.2066 47.8315 85.1296 48.0851 87.0527 48.3386L86.4117 50.2401C84.6168 49.8598 78.0784 48.8457 77.822 51.381C77.6938 52.0149 78.3348 52.3952 79.3604 52.9022C80.5143 53.5361 81.5399 53.9164 82.5655 54.5502C83.5912 55.184 83.9758 56.3249 83.7194 57.4658C82.6937 60.8885 77.6938 61.3956 74.7451 61.3956C72.6938 61.3956 70.7707 61.2688 68.8477 60.8885L69.4887 58.987Z" fill="black"/>
<path fill-rule="evenodd" clip-rule="evenodd" d="M61.2791 61.3954L64.4843 52.7753C65.7663 49.3526 59.8689 50.747 58.4587 54.55L55.8946 61.3954H50.3818L53.5869 52.7753C54.8689 49.3526 48.9715 50.747 47.5613 54.55L44.9972 61.3954H39.4844L44.4844 47.7046C46.2792 47.7046 47.1766 48.0849 47.9459 48.8455C48.2023 49.099 48.4587 49.4793 48.4587 49.8596C49.4843 49.2258 50.3818 48.8455 51.0228 48.592C52.1766 48.2117 53.5869 47.7046 55.2535 47.7046C57.0484 47.7046 57.9458 48.0849 58.7151 48.8455C58.9715 49.099 59.2279 49.4793 59.2279 49.8596C60.2535 49.2258 61.1509 48.8455 61.792 48.592C62.9458 48.2117 64.3561 47.7046 66.0227 47.7046C67.8176 47.7046 68.715 48.0849 69.4842 48.8455C70.2535 49.6061 70.2535 51.0005 69.9971 51.7611L66.5355 61.3954H61.2791Z" fill="black"/>
<path fill-rule="evenodd" clip-rule="evenodd" d="M15.3846 46.1833C18.4615 44.2818 22.1795 42.6338 25.7692 42H25.8974H26.0256C29.6153 42.6338 33.3332 44.2818 36.4102 46.1833L36.6666 46.4368V46.8171C36.6666 51.3808 35.8973 56.1979 33.8461 60.3812C32.1794 63.5504 29.6153 66.3393 26.1538 67.6069L25.7692 67.4802L25.5128 67.3534C22.0512 66.2125 19.4872 63.4236 17.8205 60.1277C15.7692 56.0711 15 51.254 15 46.6904V46.3101L15.3846 46.1833Z" fill="#8A8A8B"/>
<path fill-rule="evenodd" clip-rule="evenodd" d="M15.7725 46.6903C18.9776 44.6621 22.6955 43.1409 25.9006 42.6338C29.1057 43.1409 32.8236 44.7888 36.0288 46.6903C36.0288 57.212 31.9262 64.6912 25.9006 66.8463C19.7468 64.6912 15.6442 57.212 15.7725 46.6903Z" fill="#ED1C24"/>
<path fill-rule="evenodd" clip-rule="evenodd" d="M28.7202 50.7468C27.4382 52.268 25.2587 52.5215 23.8484 52.5215C23.7202 52.5215 23.3356 52.5215 23.2074 52.6483C23.2074 52.775 23.2074 52.775 23.3356 52.9018C25.0023 54.0427 27.1817 53.1553 28.3356 52.6483C27.0535 53.7892 24.8741 54.0427 22.951 53.2821C22.6946 53.1553 22.5664 53.1553 22.4382 53.2821C22.4382 53.2821 22.31 53.4089 22.4382 53.5356C22.951 54.5498 23.3356 55.3104 24.7459 55.6907C23.2074 55.5639 22.1818 54.1695 21.9254 53.4089C21.9254 54.6765 23.0792 55.5639 23.592 56.1977C22.951 56.1977 22.31 56.3245 22.0536 56.7048C21.9254 56.9583 21.9254 57.4654 21.6689 57.8457C20.8997 56.4513 20.3869 54.6765 20.8997 53.0286C21.2843 51.7609 22.0536 50.62 23.7202 49.9861C23.2074 50.4932 22.951 50.8735 22.5664 51.5074C22.31 52.0144 22.6946 52.268 23.0792 51.5074C23.592 52.9018 27.6946 52.0144 28.7202 50.7468L29.1048 50.62L28.7202 50.7468ZM26.2843 62.2825C26.2843 62.1558 26.4125 62.1558 26.5407 62.1558C26.6689 62.1558 26.7971 62.4093 26.6689 62.5361C26.5407 62.6628 26.2843 62.7896 26.1561 63.0431C26.1561 63.1699 26.0279 63.1699 26.0279 63.2967C26.0279 63.0431 26.0279 62.6628 26.2843 62.2825ZM24.3612 61.7755C24.4895 61.6487 24.6177 61.6487 24.7459 61.7755C24.8741 61.9022 24.8741 62.029 24.7459 62.1558C24.6177 62.2825 24.4895 62.2825 24.3612 62.4093C24.1048 62.5361 23.9766 62.6628 23.8484 62.9164C23.8484 62.6628 23.8484 62.4093 23.9766 62.1558C24.1048 62.029 24.233 61.9022 24.3612 61.7755ZM28.8484 61.5219H28.9766C29.1048 61.5219 29.1048 61.6487 29.1048 61.6487C29.1048 61.7755 29.1048 62.029 29.233 62.1558C29.233 62.2825 29.3612 62.2825 29.3612 62.2825C29.233 62.2825 29.1048 62.1558 28.9766 62.029C28.8484 61.9022 28.7202 61.7755 28.7202 61.6487C28.7202 61.6487 28.7202 61.5219 28.8484 61.5219ZM22.951 60.6346C23.0792 60.6346 23.2074 60.6346 23.2074 60.7613C23.3356 60.8881 23.2074 61.0149 23.2074 61.0149C23.2074 61.1416 23.0792 61.1416 23.0792 61.1416C22.951 61.2684 22.6946 61.2684 22.4382 61.3952C22.31 61.5219 22.1818 61.5219 22.1818 61.6487C22.1818 61.5219 22.31 61.2684 22.31 61.1416C22.5664 61.0149 22.6946 60.7613 22.951 60.6346ZM30.8997 59.3669C30.8997 59.2401 30.8997 59.2401 31.0279 59.2401C31.1561 59.2401 31.2843 59.3669 31.4125 59.3669C31.5407 59.3669 31.5407 59.3669 31.6689 59.3669C31.5407 59.4937 31.2843 59.4937 31.1561 59.4937C31.0279 59.4937 30.8997 59.4937 30.8997 59.3669ZM21.7972 58.6063H21.9254C22.0536 58.6063 22.1818 58.7331 22.1818 58.8598C22.1818 58.9866 22.1818 59.1134 22.0536 59.2401C21.7972 59.3669 21.5407 59.4937 21.2843 59.6204C21.1561 59.6204 21.1561 59.7472 21.0279 59.874C21.0279 59.4937 21.1561 59.2401 21.4125 58.9866C21.5407 58.7331 21.669 58.7331 21.7972 58.6063ZM25.1305 57.3386C25.2587 57.2119 25.5151 57.2119 25.7715 57.2119C25.6433 57.2119 25.3869 57.3386 25.2587 57.4654C25.2587 57.4654 25.1305 57.5922 25.2587 57.5922C25.3869 57.5922 25.3869 57.5922 25.5151 57.5922C25.6433 57.5922 25.5151 57.7189 25.5151 57.8457C25.5151 58.0992 25.3869 58.226 25.2587 58.4795V58.6063H25.3869C25.5151 58.4795 25.7715 58.3528 25.8997 58.226C25.8997 58.0992 26.0279 58.0992 26.0279 57.9725C26.0279 57.8457 25.8997 57.8457 25.8997 57.8457C25.8997 57.7189 26.1561 57.7189 26.1561 57.5922C26.4125 57.4654 26.7971 57.4654 27.0535 57.7189C26.9253 57.7189 26.7971 57.5922 26.6689 57.5922C26.5407 57.5922 26.5407 57.5922 26.5407 57.7189C26.5407 57.8457 26.5407 57.8457 26.5407 57.9725C26.5407 58.226 26.2843 58.4795 25.8997 58.7331C25.7715 58.7331 25.6433 58.8598 25.5151 58.8598C25.5151 58.8598 25.3869 58.9866 25.3869 59.1134C25.5151 59.1134 25.5151 59.1134 25.6433 59.1134C25.7715 59.1134 26.0279 59.1134 26.1561 59.1134C26.2843 59.1134 26.4125 58.8598 26.5407 58.8598C26.9253 58.7331 27.4382 58.8598 27.5664 59.2401C27.4382 59.2401 27.31 59.1134 27.1817 59.1134C27.0535 59.1134 26.9253 59.1134 26.7971 59.1134C26.6689 59.2401 26.5407 59.3669 26.5407 59.3669C26.5407 59.3669 26.5407 59.4937 26.4125 59.4937C26.2843 59.4937 26.1561 59.3669 26.1561 59.4937C26.0279 59.4937 25.8997 59.6204 25.7715 59.6204C25.6433 59.6204 25.5151 59.6204 25.5151 59.6204C25.3869 59.6204 25.1305 59.4937 25.0023 59.4937C24.8741 59.4937 24.8741 59.4937 24.7459 59.6204C24.6177 59.7472 24.7459 59.7472 24.6177 59.874C24.6177 59.6204 24.4894 59.3669 24.4894 59.1134C24.4894 58.8598 24.3612 58.4795 24.4894 58.226C24.6177 58.3528 24.6177 58.4795 24.6177 58.6063C24.6177 58.6063 24.6177 58.7331 24.7459 58.7331C24.8741 58.7331 25.0023 58.6063 25.0023 58.6063C25.1305 58.4795 25.2587 58.3528 25.1305 58.0992C25.1305 57.9725 25.0023 57.9725 25.0023 57.9725C24.8741 57.8457 24.8741 57.7189 25.0023 57.5922C24.8741 57.4654 25.0023 57.4654 25.1305 57.3386ZM31.9253 56.9583L32.0535 56.8316C32.1817 56.8316 32.3099 56.8316 32.4381 56.8316C32.3099 56.9583 32.1817 56.9583 32.0535 57.0851C32.0535 57.0851 31.9253 57.0851 31.9253 56.9583ZM32.0535 55.4371C32.1817 55.4371 32.1817 55.3104 32.3099 55.3104C32.3099 55.4371 32.1817 55.5639 32.0535 55.5639C32.0535 55.6907 31.9253 55.4371 32.0535 55.4371ZM27.6946 53.9159C27.8228 54.423 27.951 54.8033 28.592 54.9301C29.1048 55.0568 29.874 54.9301 30.3869 54.9301C30.8997 54.9301 31.2843 54.8033 31.6689 55.0568C31.7971 55.1836 31.9253 55.3104 32.0535 55.4371C32.1817 55.5639 32.1817 55.8174 32.3099 55.9442C32.3099 56.071 32.3099 56.3245 32.3099 56.4513C32.1817 56.7048 32.0535 56.8316 32.0535 57.0851C32.0535 57.3386 31.9253 57.4654 31.9253 57.7189C31.9253 57.9725 31.7971 58.0992 31.6689 58.3528C31.5407 58.4795 31.4125 58.7331 31.2843 58.8598C31.0279 59.1134 31.0279 59.4937 30.8997 59.7472C30.7715 60.0007 30.7715 60.2543 30.7715 60.5078C30.7715 60.7613 30.6433 60.8881 30.3869 61.0149C30.0022 61.1416 29.6176 61.2684 29.233 61.3952C28.8484 61.5219 28.7202 61.7755 28.4638 61.9022C28.2074 62.029 28.0792 62.2825 27.8228 62.2825C27.31 62.4093 27.1817 61.9022 26.1561 62.2825C26.0279 62.2825 25.8997 62.2825 25.7715 62.2825C25.5151 62.1558 25.5151 61.9022 25.2587 61.6487C25.0023 61.5219 24.6177 61.5219 24.3612 61.5219C24.233 61.5219 24.1048 61.3952 24.1048 61.2684C23.4638 61.1416 23.4638 60.8881 23.3356 60.7613C23.0792 60.381 22.4382 60.2543 22.31 59.874C22.1818 59.4937 22.4382 59.2401 22.4382 58.9866C22.4382 58.6063 22.1818 58.3528 21.5407 58.3528C21.7972 57.9725 21.9254 57.5922 22.0536 57.0851C22.1818 56.9583 22.1818 56.7048 22.31 56.578C22.4382 56.4513 22.6946 56.4513 22.951 56.3245C23.2074 56.3245 23.4638 56.3245 23.592 56.3245C24.1048 56.578 23.9766 57.3386 23.7202 57.5922C23.3356 57.9725 22.4382 57.9725 22.5664 57.2119C22.6946 57.3386 22.951 57.5922 23.2074 57.3386V57.2119C23.2074 57.0851 23.0792 56.9583 22.951 56.9583C22.8228 56.9583 22.8228 56.9583 22.6946 56.9583C22.4382 57.0851 22.31 57.2119 22.1818 57.3386C21.9254 57.7189 22.4382 58.0992 22.951 57.9725C23.4638 57.8457 23.7202 57.7189 23.9766 57.4654C23.9766 57.9725 23.9766 58.3528 23.9766 58.8598C24.1048 59.2401 24.1048 59.6204 24.3612 60.0007C24.4895 60.2543 24.7459 60.6346 25.1305 60.7613C25.5151 60.8881 26.0279 60.8881 26.4125 60.8881C27.1817 60.8881 28.3356 60.5078 28.8484 60.2543C29.874 59.7472 30.0022 59.3669 30.3869 58.4795C30.6433 58.0992 30.7715 57.5922 30.8997 57.2119C31.0279 56.8316 31.1561 56.3245 31.1561 55.9442C31.1561 55.5639 31.0279 55.4371 30.8997 55.1836C30.5151 54.6765 29.6176 54.9301 28.7202 54.8033C28.592 54.9301 28.592 55.0568 28.7202 55.1836C28.9766 55.4371 29.3612 55.3104 29.7458 55.4371C28.3356 56.071 27.0535 55.4371 26.6689 54.2962C26.9253 54.6765 27.4382 55.4371 28.2074 55.1836C28.4638 55.0568 28.3356 54.9301 28.2074 54.8033C28.2074 54.8033 28.0792 54.8033 28.0792 54.6765C27.8228 55.0568 27.5664 54.423 27.6946 53.9159ZM23.0792 53.6624C23.2074 53.7892 23.2074 53.9159 23.3356 53.9159C24.3612 54.6765 25.2587 54.6765 26.5407 54.6765C25.3869 54.9301 23.9766 54.8033 23.0792 54.0427C22.951 53.9159 22.8228 53.7892 22.8228 53.6624C22.8228 53.5356 22.951 53.5356 23.0792 53.6624ZM27.8228 53.4089C28.8484 53.4089 29.874 53.7892 30.2587 54.6765C30.1304 54.5498 29.6176 54.423 29.3612 54.423C29.3612 54.423 29.233 54.423 29.233 54.5498C29.233 54.6765 29.233 54.6765 29.3612 54.8033C28.8484 54.9301 28.3356 54.6765 28.0792 54.2962C28.2074 54.2962 28.3356 54.423 28.4638 54.423C28.7202 54.423 28.9766 54.2962 29.233 54.1695C29.3612 54.0427 29.233 53.9159 29.1048 53.7892C28.7202 53.6624 28.3356 53.6624 27.8228 53.4089ZM28.9766 51.6341C29.1048 51.5074 29.233 51.3806 29.3612 51.3806C28.7202 52.268 27.3099 52.9018 26.2843 53.1553C25.7715 53.2821 24.4895 53.4089 23.9766 53.1553C23.9766 53.1553 23.8484 53.0286 23.9766 53.0286C24.1048 53.0286 24.233 53.0286 24.3612 53.0286C24.6177 53.0286 24.8741 53.0286 25.0023 53.0286C25.5151 53.0286 26.1561 52.9018 26.6689 52.9018C27.4382 52.5215 28.2074 52.1412 28.9766 51.6341ZM18.4638 48.4649C18.592 48.4649 18.8484 48.4649 18.9767 48.4649C19.1049 48.5917 19.2331 48.7185 19.3613 48.8452C19.3613 48.972 19.4895 48.972 19.3613 49.0988H19.2331V49.2255C19.2331 49.4791 19.3613 49.7326 19.4895 49.9861C19.4895 49.9861 19.4895 49.9861 19.6177 50.1129C19.6177 49.8594 19.6177 49.6058 19.7459 49.3523C19.7459 49.3523 19.7459 49.2255 19.8741 49.2255C20.0023 49.2255 20.0023 49.3523 20.1305 49.2255C20.2587 49.2255 20.2587 49.0988 20.1305 49.0988C20.1305 48.972 20.0023 48.8452 19.8741 48.7185C20.1305 48.8452 20.3869 49.0988 20.3869 49.2255C20.3869 49.3523 20.3869 49.4791 20.2587 49.6058C20.2587 49.6058 20.1305 49.6058 20.0023 49.6058C19.8741 49.7326 19.8741 49.9861 19.8741 50.2397C19.8741 50.2397 19.8741 50.3664 20.0023 50.3664C20.1305 50.3664 20.2587 50.2397 20.3869 50.1129C20.0023 50.4932 19.7459 50.7467 19.4895 51.2538C19.4895 51.1271 19.4895 51.0003 19.4895 50.8735L19.3613 50.7468C19.2331 50.62 18.9767 50.62 18.8485 50.4932C18.7202 50.3664 18.592 50.2397 18.4638 50.1129C18.3356 49.9861 18.2074 50.1129 18.2074 49.9861C18.2074 49.8594 18.2074 49.8594 18.2074 49.7326C18.2074 49.6058 18.2074 49.4791 18.0792 49.3523C17.951 49.2255 17.6946 49.2255 17.5664 49.2255C17.6946 49.2255 17.8228 49.0988 17.951 49.0988C18.2074 49.0988 18.3356 49.2255 18.4638 49.3523C18.592 49.4791 18.592 49.6058 18.592 49.7326C18.7202 49.8594 18.7202 49.8594 18.8485 49.8594C18.9767 49.8594 19.1049 49.9861 19.2331 49.9861C19.2331 49.8594 19.2331 49.7326 19.1049 49.6058C18.9767 49.4791 18.8485 49.2255 18.8485 48.972C18.8485 48.8452 18.8484 48.7185 18.9767 48.5917C18.9767 48.4649 19.1049 48.4649 18.9767 48.3382C18.8484 48.4649 18.592 48.4649 18.4638 48.4649ZM24.8741 45.9296C25.3869 46.1831 25.8997 46.5634 26.4125 46.817C26.2843 46.9437 26.1561 47.0705 26.0279 47.0705C25.6433 47.0705 25.0023 46.3099 24.8741 45.9296ZM25.5151 45.0422C26.1561 45.9296 26.9253 46.5634 27.951 47.0705C28.2074 47.0705 28.4638 47.1973 28.8484 47.1973C28.9766 47.1973 29.233 47.0705 29.3612 47.0705C29.6176 47.0705 29.7458 47.1973 29.874 47.324L30.0022 47.4508C30.0022 47.7043 30.1304 47.8311 30.2587 48.0846C30.3869 48.2114 30.5151 48.2114 30.7715 48.2114C30.7715 48.3382 30.8997 48.4649 31.0279 48.4649C31.1561 48.4649 31.2843 48.3382 31.4125 48.3382C31.4125 48.4649 31.5407 48.4649 31.5407 48.5917C31.5407 48.5917 31.6689 48.7185 31.7971 48.7185C32.0535 48.8452 32.1817 49.0988 32.3099 49.3523C32.1817 49.2255 31.9253 48.972 31.7971 48.972C31.7971 49.3523 31.7971 49.8594 31.5407 49.9861C31.5407 49.7326 31.5407 49.6058 31.4125 49.3523C31.1561 49.4791 31.0279 49.7326 30.7715 49.7326C30.8997 49.6058 31.0279 49.4791 31.0279 49.3523C30.8997 49.2255 30.7715 49.2255 30.6433 49.3523C30.3869 49.3523 30.2587 49.4791 30.0022 49.7326C29.874 49.3523 29.874 49.2255 29.874 49.0988C29.7458 49.0988 29.233 49.2255 29.3612 49.4791C29.6176 49.7326 29.874 49.6058 30.1305 49.6058C30.2587 49.6058 30.3869 49.7326 30.3869 49.8594C30.3869 49.7326 30.3869 49.7326 30.3869 49.6058C30.6433 49.8594 30.7715 50.1129 30.8997 50.3664C31.1561 50.2397 31.1561 50.1129 31.2843 49.8594C31.4125 49.9861 31.4125 50.1129 31.4125 50.2397C31.5407 50.2397 31.5407 50.1129 31.5407 50.1129C31.6689 50.4932 31.5407 51.1271 31.0279 51.2538C31.1561 51.0003 31.1561 50.7468 30.7715 50.7468C30.5151 50.7468 30.1304 50.8735 29.874 50.8735C30.0022 50.8735 30.5151 50.4932 30.3869 50.3664L30.2587 50.2397C30.1304 50.2397 29.874 50.1129 29.7458 50.1129C29.6176 50.1129 29.6176 50.1129 29.4894 50.2397C28.9766 49.9861 28.8484 50.2397 28.4638 50.3664C28.2074 50.3664 27.8228 50.2397 27.5664 49.9861C27.1817 49.3523 27.6946 49.0988 28.2074 48.972C27.5664 48.8452 27.31 49.0988 27.1817 49.7326C26.9253 49.6058 26.7971 49.6058 26.4125 49.6058C24.3612 49.3523 22.6946 49.8594 21.7972 50.8735C20.8997 51.8877 20.2587 53.2821 20.2587 54.5498C20.2587 55.8174 20.6433 56.7048 21.2843 57.8457C20.2587 57.0851 19.8741 55.9442 19.4895 55.3104C19.3613 55.4371 19.3613 55.6907 19.3613 55.8174C18.7202 55.0568 19.6177 53.0286 20.0023 52.1412C19.7459 52.268 19.4895 52.5215 19.2331 52.775C19.2331 51.6341 20.2587 50.4932 21.2843 49.6058C21.0279 49.6058 20.7715 49.7326 20.3869 49.8594C21.4125 48.8452 23.2074 48.2114 24.7459 48.2114C24.3612 48.0846 23.8484 48.0846 23.4638 47.9579C24.7459 47.7043 25.6433 47.7043 26.4125 47.0705C26.7971 47.324 27.3099 47.5776 27.4382 47.5776C27.0535 46.9437 25.7715 45.8028 25.5151 45.0422ZM29.233 47.7043C29.3612 47.8311 29.3612 47.9579 29.4894 47.9579C29.6176 48.0846 29.7458 48.2114 30.0022 48.0846C30.0022 47.9579 30.0022 47.9579 29.874 47.8311H29.7458C29.6176 47.7043 29.3612 47.7043 29.233 47.7043Z" fill="black"/>
<path fill-rule="evenodd" clip-rule="evenodd" d="M28.7202 50.6201C27.4382 52.1413 25.2587 52.3948 23.8484 52.3948C23.7202 52.3948 23.3356 52.3948 23.2074 52.5216C23.2074 52.6484 23.2074 52.6484 23.3356 52.7751C25.0023 53.916 27.1817 53.0287 28.3356 52.5216C27.0535 53.6625 24.8741 53.916 22.951 53.1554C22.6946 53.0287 22.5664 53.0287 22.4382 53.1554C22.4382 53.1554 22.31 53.2822 22.4382 53.409C22.951 54.4231 23.3356 55.1837 24.7459 55.564C23.2074 55.4372 22.1818 54.0428 21.9254 53.2822C21.9254 54.5499 23.0792 55.4372 23.592 56.0711C22.951 56.0711 22.31 56.1978 22.0536 56.5781C21.9254 56.8317 21.9254 57.3388 21.6689 57.7191C20.8997 56.3246 20.3869 54.5499 20.8997 52.9019C21.2843 51.6342 22.0536 50.4933 23.7202 49.8595C23.2074 50.3666 22.951 50.7469 22.5664 51.3807C22.31 51.8878 22.6946 52.1413 23.0792 51.3807C23.592 52.7751 27.6946 51.8878 28.7202 50.6201L29.1048 50.4933L28.7202 50.6201ZM26.1561 62.1559C26.1561 62.0291 26.2843 62.0291 26.4125 62.0291C26.5407 62.0291 26.6689 62.2827 26.5407 62.4094C26.4125 62.5362 26.1561 62.663 26.0279 62.9165C26.0279 63.0433 25.8997 63.0433 25.8997 63.17C25.8997 62.7897 25.8997 62.4094 26.1561 62.1559ZM24.3612 61.6488C24.4895 61.5221 24.6177 61.5221 24.7459 61.6488C24.8741 61.7756 24.8741 61.9024 24.7459 62.0291C24.6177 62.1559 24.4895 62.1559 24.3612 62.2827C24.1048 62.4094 23.9766 62.5362 23.8484 62.7897C23.8484 62.5362 23.8484 62.2827 23.9766 62.0291C24.1048 61.7756 24.1048 61.6488 24.3612 61.6488ZM28.7202 61.3953H28.8484C28.9766 61.3953 28.9766 61.5221 28.9766 61.5221C28.9766 61.6488 28.9766 61.9024 29.1048 62.0291C29.1048 62.1559 29.233 62.1559 29.233 62.1559C29.1048 62.1559 28.9766 62.0291 28.8484 61.9024C28.7202 61.7756 28.592 61.6488 28.592 61.5221L28.7202 61.3953ZM22.951 60.5079C23.0792 60.5079 23.2074 60.5079 23.2074 60.6347C23.3356 60.7615 23.2074 60.8882 23.2074 60.8882C23.2074 61.015 23.0792 61.015 23.0792 61.015C22.951 61.1418 22.6946 61.1418 22.4382 61.2685C22.31 61.3953 22.1818 61.3953 22.1818 61.5221C22.1818 61.3953 22.31 61.1418 22.31 61.015C22.4382 60.7615 22.6946 60.6347 22.951 60.5079ZM30.8997 59.1135C30.8997 58.9867 30.8997 58.9867 31.0279 58.9867C31.1561 58.9867 31.2843 59.1135 31.4125 59.1135C31.5407 59.1135 31.5407 59.1135 31.6689 59.1135C31.5407 59.2403 31.2843 59.2403 31.1561 59.2403C31.0279 59.367 30.8997 59.2403 30.8997 59.1135ZM21.7972 58.4797H21.9254C22.0536 58.4797 22.1818 58.6064 22.1818 58.7332C22.1818 58.86 22.1818 58.9867 22.0536 59.1135C21.7972 59.2403 21.5407 59.367 21.2843 59.4938C21.1561 59.4938 21.1561 59.6206 21.0279 59.7473C21.0279 59.367 21.1561 59.1135 21.4125 58.86C21.5407 58.6064 21.669 58.6064 21.7972 58.4797ZM25.0023 57.212C25.1305 57.0852 25.3869 57.0852 25.6433 57.0852C25.5151 57.0852 25.2587 57.212 25.1305 57.3387C25.1305 57.3387 25.0023 57.4655 25.1305 57.4655C25.2587 57.4655 25.2587 57.4655 25.3869 57.4655C25.5151 57.4655 25.3869 57.5923 25.3869 57.7191C25.3869 57.9726 25.2587 58.0994 25.1305 58.3529V58.4797H25.2587C25.3869 58.3529 25.6433 58.2261 25.7715 58.0994C25.7715 57.9726 25.8997 57.9726 25.8997 57.8458C25.8997 57.7191 25.7715 57.7191 25.7715 57.7191C25.7715 57.5923 26.0279 57.5923 26.0279 57.4655C26.2843 57.3388 26.6689 57.3388 26.9253 57.5923C26.7971 57.5923 26.6689 57.4655 26.5407 57.4655C26.4125 57.4655 26.4125 57.4655 26.4125 57.5923C26.4125 57.7191 26.4125 57.7191 26.4125 57.8458C26.4125 58.0994 26.1561 58.3529 25.7715 58.6064C25.6433 58.6064 25.5151 58.7332 25.3869 58.7332C25.3869 58.7332 25.2587 58.86 25.2587 58.9867C25.3869 58.9867 25.3869 58.9867 25.5151 58.9867C25.6433 58.9867 25.8997 58.9867 26.0279 58.9867C26.1561 58.9867 26.2843 58.7332 26.4125 58.7332C26.7971 58.6064 27.3099 58.7332 27.4382 59.1135C27.3099 59.1135 27.1817 58.9867 27.0535 58.9867C26.9253 58.9867 26.7971 58.9867 26.6689 58.9867C26.5407 59.1135 26.4125 59.2403 26.4125 59.2403C26.4125 59.2403 26.4125 59.367 26.2843 59.367C26.1561 59.367 26.0279 59.2403 26.0279 59.367C25.8997 59.367 25.7715 59.4938 25.6433 59.4938C25.5151 59.4938 25.3869 59.4938 25.3869 59.4938C25.2587 59.4938 25.0023 59.367 24.8741 59.367C24.7459 59.367 24.7459 59.367 24.6177 59.4938C24.4895 59.6206 24.6177 59.6206 24.4894 59.7473C24.4894 59.4938 24.3612 59.2403 24.3612 58.9867C24.3612 58.7332 24.233 58.3529 24.3612 58.0994C24.4895 58.2261 24.4894 58.3529 24.4894 58.4797C24.4894 58.4797 24.4895 58.6064 24.6177 58.6064C24.7459 58.6064 24.8741 58.4797 24.8741 58.4797C25.0023 58.3529 25.1305 58.2261 25.0023 57.9726C25.0023 57.8458 24.8741 57.8458 24.8741 57.8458C24.7459 57.7191 24.7459 57.5923 24.8741 57.4655C24.7459 57.3388 24.8741 57.212 25.0023 57.212ZM31.9253 56.8317L32.0535 56.7049C32.1817 56.7049 32.3099 56.7049 32.4381 56.7049C32.3099 56.8317 32.1817 56.8317 32.0535 56.9585C31.9253 56.9585 31.9253 56.8317 31.9253 56.8317ZM32.0535 55.3105C32.1817 55.3105 32.1817 55.1837 32.3099 55.1837C32.3099 55.3105 32.1817 55.4372 32.0535 55.4372C31.9253 55.4372 31.9253 55.3105 32.0535 55.3105ZM27.5664 53.7893C27.6946 54.2963 27.8228 54.6766 28.4638 54.8034C28.9766 54.9302 29.7458 54.8034 30.2587 54.8034C30.7715 54.8034 31.1561 54.6766 31.5407 54.9302C31.6689 55.0569 31.7971 55.1837 31.9253 55.3105C32.0535 55.4372 32.0535 55.6908 32.1817 55.8175C32.1817 55.9443 32.1817 56.1978 32.1817 56.3246C32.0535 56.5781 31.9253 56.7049 31.9253 56.9585C31.9253 57.212 31.7971 57.3388 31.7971 57.5923C31.7971 57.8458 31.6689 57.9726 31.5407 58.2261C31.4125 58.3529 31.2843 58.6064 31.1561 58.7332C30.8997 58.9867 30.8997 59.367 30.7715 59.6206C30.6433 59.8741 30.6433 60.1276 30.6433 60.3812C30.6433 60.6347 30.5151 60.7615 30.2587 60.8882C29.874 61.015 29.4894 61.1418 29.1048 61.2685C28.7202 61.3953 28.592 61.6488 28.3356 61.7756C28.0792 61.9024 27.951 62.1559 27.6946 62.1559C27.1817 62.2827 27.0535 61.7756 26.0279 62.1559C25.8997 62.1559 25.7715 62.1559 25.6433 62.1559C25.3869 62.0291 25.3869 61.7756 25.1305 61.5221C24.8741 61.3953 24.4894 61.3953 24.233 61.3953C24.1048 61.3953 23.9766 61.2685 23.9766 61.1418C23.8484 61.015 23.8484 60.7615 23.8484 60.6347C23.592 60.2544 22.951 60.1276 22.8228 59.7473C22.6946 59.367 22.951 59.1135 22.951 58.86C22.951 58.4797 22.6946 58.2261 22.0536 58.2261C22.31 57.8458 22.4382 57.4655 22.5664 56.9585C22.6946 56.8317 22.6946 56.5781 22.8228 56.4514C22.951 56.3246 23.2074 56.3246 23.4638 56.1978C23.7202 56.1978 23.9766 56.1978 24.1048 56.1978C24.6177 56.4514 24.4894 57.212 24.233 57.4655C23.8484 57.8458 22.951 57.8458 23.0792 57.0852C23.2074 57.212 23.4638 57.4655 23.7202 57.212V57.0852C23.7202 56.9585 23.592 56.8317 23.4638 56.8317C23.3356 56.8317 23.3356 56.8317 23.2074 56.8317C22.951 56.9584 22.8228 57.0852 22.6946 57.212C22.4382 57.5923 22.951 57.9726 23.4638 57.8458C23.9766 57.7191 24.233 57.5923 24.4894 57.3387C24.4894 57.8458 24.4894 58.2261 24.4894 58.7332C24.6177 59.1135 24.6177 59.4938 24.8741 59.8741C25.0023 60.1276 25.2587 60.5079 25.6433 60.6347C26.0279 60.7615 26.5407 60.7615 26.9253 60.7615C27.6946 60.7615 28.8484 60.3812 29.3612 60.1276C30.3869 59.6206 30.5151 59.2403 30.8997 58.3529C31.1561 57.9726 31.2843 57.4655 31.4125 57.0852C31.5407 56.7049 31.6689 56.1978 31.6689 55.8175C31.6689 55.4372 31.5407 55.3105 31.4125 55.0569C31.0279 54.5499 30.1304 54.8034 29.233 54.6766C29.1048 54.8034 29.1048 54.9302 29.233 55.0569C29.4894 55.3105 29.874 55.1837 30.2587 55.3105C28.8484 55.9443 27.5664 55.3105 27.1817 54.1696C27.4382 54.5499 27.951 55.3105 28.7202 55.0569C28.9766 54.9302 28.8484 54.8034 28.7202 54.6766C28.7202 54.6766 28.592 54.6766 28.592 54.5499C27.6946 54.8034 27.4382 54.2963 27.5664 53.7893ZM22.951 53.5357C23.0792 53.6625 23.0792 53.7893 23.2074 53.7893C24.233 54.5499 25.1305 54.5499 26.4125 54.5499C25.2587 54.8034 23.8484 54.6766 22.951 53.916C22.8228 53.7893 22.6946 53.6625 22.6946 53.5357C22.6946 53.409 22.8228 53.409 22.951 53.5357ZM27.8228 53.2822C28.8484 53.2822 29.874 53.6625 30.2587 54.5499C30.1304 54.4231 29.6176 54.2963 29.3612 54.2963C29.3612 54.2963 29.233 54.2963 29.233 54.4231C29.233 54.5499 29.233 54.5499 29.3612 54.6766C28.8484 54.8034 28.3356 54.5499 28.0792 54.1696C28.2074 54.1696 28.3356 54.2963 28.4638 54.2963C28.7202 54.2963 28.9766 54.1696 29.233 54.0428C29.3612 53.916 29.233 53.7893 29.1048 53.6625C28.592 53.5357 28.2074 53.409 27.8228 53.2822ZM28.8484 51.3807C28.9766 51.2539 29.1048 51.1272 29.233 51.1272C28.592 52.0145 27.1817 52.6484 26.1561 52.9019C25.6433 53.0287 24.3612 53.1554 23.8484 52.9019C23.8484 52.9019 23.7202 52.7751 23.8484 52.7751C23.9766 52.7751 24.1048 52.7751 24.233 52.7751C24.4894 52.7751 24.7459 52.7751 24.8741 52.7751C25.3869 52.7751 26.0279 52.6484 26.5407 52.6484C27.31 52.2681 28.2074 51.8878 28.8484 51.3807ZM18.3356 48.2115C18.4638 48.2115 18.7202 48.2115 18.8485 48.2115C18.9767 48.3383 19.1049 48.4651 19.2331 48.5918C19.2331 48.7186 19.3613 48.7186 19.2331 48.8454H19.1049V48.9721C19.1049 49.2257 19.2331 49.4792 19.3613 49.7327C19.3613 49.7327 19.3613 49.7327 19.4895 49.8595C19.4895 49.606 19.4895 49.3524 19.6177 49.0989C19.6177 49.0989 19.6177 48.9721 19.7459 48.9721C19.8741 48.9721 19.8741 49.0989 20.0023 48.9721C20.1305 48.9721 20.1305 48.8454 20.0023 48.8454C20.0023 48.7186 19.8741 48.5918 19.7459 48.4651C20.0023 48.5918 20.2587 48.8454 20.2587 48.9721C20.2587 49.0989 20.2587 49.2257 20.1305 49.3524C20.1305 49.3524 20.0023 49.3524 19.8741 49.3524C19.7459 49.4792 19.7459 49.7327 19.7459 49.9863C19.7459 49.9863 19.7459 50.113 19.8741 50.113C20.0023 50.113 20.1305 49.9863 20.2587 49.8595C20.0023 50.2398 19.6177 50.4933 19.4895 51.0004C19.4895 50.8736 19.4895 50.7469 19.4895 50.6201L19.3613 50.4933C19.2331 50.3666 18.9767 50.3666 18.8485 50.2398C18.7202 50.113 18.592 49.9863 18.4638 49.8595C18.3356 49.7327 18.2074 49.8595 18.2074 49.7327C18.2074 49.606 18.2074 49.606 18.2074 49.4792C18.2074 49.3524 18.2074 49.2257 18.0792 49.0989C17.951 48.9721 17.6946 48.9721 17.5664 48.9721C17.6946 48.9721 17.8228 48.8454 17.951 48.8454C18.2074 48.8454 18.3356 48.9721 18.4638 49.0989C18.3356 49.4792 18.3356 49.606 18.4638 49.7327C18.592 49.8595 18.592 49.8595 18.7202 49.8595C18.8484 49.8595 18.9767 49.9863 19.1049 49.9863C19.1049 49.8595 19.1049 49.7327 18.9767 49.606C18.8484 49.4792 18.7202 49.2257 18.7202 48.9721C18.7202 48.8454 18.7202 48.7186 18.8485 48.5918C18.8485 48.4651 18.9767 48.4651 18.8485 48.3383C18.7202 48.3383 18.4638 48.3383 18.3356 48.2115ZM24.7459 45.803C25.2587 46.0565 25.7715 46.4368 26.2843 46.6903C26.1561 46.8171 26.0279 46.9439 25.8997 46.9439C25.6433 46.8171 24.8741 46.0565 24.7459 45.803ZM25.5151 44.7888C26.1561 45.6762 26.9253 46.31 27.951 46.8171C28.2074 46.9439 28.4638 47.0706 28.8484 47.0706C28.9766 47.0706 29.233 46.9439 29.3612 46.9439C29.6176 46.9439 29.7458 47.0706 29.874 47.1974L30.0022 47.3242C30.0022 47.5777 30.1304 47.7045 30.2587 47.958C30.3869 48.0848 30.5151 48.0848 30.7715 48.0848C30.7715 48.2115 30.8997 48.3383 31.0279 48.3383C31.1561 48.3383 31.2843 48.2115 31.4125 48.2115C31.4125 48.3383 31.5407 48.3383 31.5407 48.4651C31.5407 48.4651 31.6689 48.5918 31.7971 48.5918C32.0535 48.7186 32.1817 48.9721 32.3099 49.2257C32.1817 49.0989 31.9253 48.8454 31.7971 48.8454C31.7971 49.2257 31.7971 49.7327 31.5407 49.8595C31.5407 49.606 31.5407 49.4792 31.4125 49.2257C31.1561 49.3524 31.0279 49.606 30.7715 49.606C30.8997 49.4792 31.0279 49.3524 31.0279 49.2257C30.8997 49.0989 30.7715 49.0989 30.6433 49.2257C30.3869 49.2257 30.2587 49.3524 30.0022 49.606C30.0022 49.4792 29.874 49.3524 29.874 49.2257C29.7458 49.2257 29.233 49.3524 29.3612 49.606C29.6176 49.8595 29.874 49.7327 30.1305 49.7327C30.2587 49.7327 30.3869 49.8595 30.3869 49.9863C30.3869 49.8595 30.3869 49.8595 30.3869 49.7327C30.6433 49.9863 30.7715 50.2398 30.8997 50.4933C31.1561 50.113 31.1561 49.9863 31.1561 49.7327C31.2843 49.8595 31.2843 49.9863 31.2843 50.113C31.4125 50.113 31.4125 49.9863 31.4125 49.9863C31.5407 50.3666 31.4125 51.0004 30.8997 51.1272C31.0279 50.8736 31.0279 50.6201 30.6433 50.6201C30.3869 50.6201 30.0022 50.7469 29.7458 50.7469C29.874 50.7469 30.3869 50.3666 30.2587 50.2398L30.1305 50.113C30.0022 50.113 29.7458 49.9863 29.6176 49.9863C29.4894 49.9863 29.4894 49.9863 29.3612 50.113C28.8484 49.8595 28.7202 50.113 28.3356 50.2398C28.0792 50.2398 27.6946 50.113 27.4382 49.8595C27.0535 49.2257 27.5664 48.9721 28.0792 48.8454C27.4382 48.7186 27.1817 48.9721 27.0535 49.606C26.7971 49.4792 26.6689 49.4792 26.2843 49.4792C24.233 49.2257 22.5664 49.7327 21.6689 50.7469C20.7715 51.761 20.1305 53.1554 20.1305 54.4231C20.1305 55.6908 20.5151 56.5781 21.1561 57.7191C20.1305 56.9585 19.7459 55.8175 19.3613 55.1837C19.2331 55.3105 19.2331 55.564 19.2331 55.6908C18.592 54.9302 19.4895 52.9019 19.8741 52.0145C19.6177 52.1413 19.3613 52.3948 19.1049 52.6484C19.1049 51.5075 20.1305 50.3666 21.1561 49.4792C20.8997 49.4792 20.6433 49.606 20.2587 49.7327C21.2843 48.7186 23.0792 48.0848 24.6177 48.0848C24.233 47.958 23.7202 47.958 23.3356 47.8312C24.6177 47.5777 25.5151 47.5777 26.2843 46.9439C26.6689 47.1974 27.1817 47.4509 27.3099 47.4509C26.9253 46.8171 25.6433 45.6762 25.5151 44.7888ZM29.233 47.4509C29.3612 47.5777 29.3612 47.7045 29.4894 47.7045C29.6176 47.8312 29.7458 47.958 30.0022 47.8312C30.0022 47.7045 30.0022 47.7045 29.874 47.5777H29.7458C29.4894 47.5777 29.3612 47.4509 29.233 47.4509Z" fill="white"/>
<path fill-rule="evenodd" clip-rule="evenodd" d="M15.771 46.6903C18.9761 44.6621 22.694 43.1409 25.8992 42.6338C29.1043 43.1409 32.8222 44.7888 36.0273 46.6903C36.0273 46.8171 36.0273 46.8171 36.0273 46.9439C32.8222 44.9156 29.2325 43.3944 26.0274 42.7606C22.8222 43.2676 19.1043 44.7888 15.8992 46.6903C15.8992 54.1696 17.9505 60.1276 21.2838 63.6771C17.8223 60.2544 15.6428 54.2964 15.771 46.6903Z" fill="black"/>
</svg>
