<svg width="110" height="110" viewBox="0 0 110 110" fill="none" xmlns="http://www.w3.org/2000/svg">
<circle cx="55" cy="55" r="54.5" stroke="#2F303E" stroke-opacity="0.4"/>
<path d="M77.2084 60.1267C77.0275 59.861 76.7333 59.6837 76.4031 59.6413C72.0591 59.1024 68.9975 55.3212 69.5649 51.1956C69.9657 48.2814 72.1144 45.8547 75.0686 44.9796C75.6685 44.7969 75.9991 44.1871 75.8068 43.6173C75.7768 43.5286 75.735 43.4439 75.6823 43.3653C73.6888 39.9486 70.1443 37.5988 66.08 36.9998C64.0319 37.0926 62.0135 37.5032 60.105 38.2152C58.7344 38.7391 57.2871 39.0599 55.8138 39.1664C54.3405 39.0599 52.8931 38.7391 51.5225 38.2152C49.614 37.5032 47.5957 37.0926 45.5476 36.9998C41.2883 36.9998 33 42.7348 33 53.2496C33 63.2422 40.6745 75.9994 46.6883 75.9994C48.9829 76.0189 51.2499 75.523 53.3043 74.5521C54.078 74.1468 54.9332 73.9017 55.8139 73.8327C56.6944 73.9017 57.5497 74.1468 58.3234 74.5521C60.3778 75.523 62.6449 76.0189 64.9395 75.9994C69.7076 75.9994 75.0893 68.2255 77.3433 61.0214C77.4376 60.7189 77.3884 60.392 77.2084 60.1267Z" fill="#37474F"/>
<path d="M54.668 36.9999C61.5947 36.9927 67.208 31.6617 67.2155 25.0834C67.2155 24.4851 66.7049 24 66.0749 24C59.1482 24.0072 53.5348 29.3382 53.5273 35.9166C53.5272 36.5149 54.038 36.9999 54.668 36.9999Z" fill="#37474F"/>
</svg>
