<svg width="110" height="110" viewBox="0 0 110 110" fill="none" xmlns="http://www.w3.org/2000/svg">
<circle cx="55" cy="55" r="54.5" stroke="#2F303E" stroke-opacity="0.4"/>
<path d="M62.6525 49.3765C61.3767 49.1223 60.2536 48.2508 59.6883 47.0765C58.8997 45.4385 59.2128 43.5247 60.4782 42.2484C62.7467 39.9606 66.6499 40.963 67.5624 44.0679C67.7264 44.626 67.7257 45.7864 67.5609 46.3408C67.006 48.209 65.323 49.4803 63.4486 49.4472C63.1824 49.4425 62.8241 49.4107 62.6524 49.3765H62.6525ZM64.3306 47.1874C65.1037 46.8381 65.5819 46.1047 65.5728 45.2823C65.5699 45.0249 65.5264 44.7025 65.476 44.5659C64.9541 43.1512 63.1831 42.6994 62.0936 43.7031C61.6478 44.1137 61.4362 44.5282 61.3852 45.0904C61.307 45.9523 61.7615 46.7545 62.5509 47.1476C63.0722 47.4073 63.8078 47.4237 64.3306 47.1874Z" fill="#47B04B"/>
<path d="M86.7931 49.3775C85.5174 49.1233 84.3942 48.2518 83.8289 47.0775C83.0403 45.4395 83.3534 43.5256 84.6189 42.2494C86.8873 39.9615 90.7905 40.964 91.703 44.0688C91.867 44.6269 91.8663 45.7874 91.7015 46.3418C91.1466 48.21 89.4636 49.4813 87.5892 49.4482C87.323 49.4435 86.9647 49.4117 86.793 49.3775H86.7931ZM88.4713 47.1884C89.2443 46.8391 89.7225 46.1056 89.7134 45.2833C89.7105 45.0259 89.667 44.7035 89.6166 44.5669C89.0947 43.1521 87.3237 42.7004 86.2342 43.7041C85.7884 44.1147 85.5768 44.5292 85.5258 45.0913C85.4476 45.9533 85.9021 46.7554 86.6916 47.1486C87.2128 47.4082 87.9484 47.4247 88.4713 47.1884Z" fill="#47B04B"/>
<path d="M22.4545 68.7228C20.8983 68.3908 19.7969 67.9747 19.81 67.7238C19.8151 67.6259 19.9748 67.1245 20.1648 66.6097C20.5618 65.5345 20.5026 65.5496 22.3624 66.046C23.9712 66.4755 26.0156 66.4907 26.9035 66.0798C27.6671 65.7265 28.2907 65.0829 28.6103 64.3182C28.9369 63.5368 29.1109 61.6193 28.8687 61.4697C28.7681 61.4076 28.0447 61.4806 27.2611 61.6319C26.0542 61.865 25.6511 61.8801 24.6238 61.7304C23.0863 61.5064 21.8135 60.8733 20.8664 59.8613C19.4976 58.3987 19 56.912 19 54.2843C19 50.359 20.4616 48.0151 23.6379 46.8472C24.4159 46.5611 24.9071 46.5057 26.7474 46.4966C28.9441 46.4857 29.9991 46.6558 31.4235 47.2506L31.9769 47.4817V55.3472C31.9769 59.9185 31.9117 63.556 31.8213 64.0323C31.4351 66.068 30.3148 67.5707 28.5979 68.3563C27.0721 69.0545 24.678 69.1973 22.4545 68.7228ZM28.3195 59.1457L28.9328 58.9335L28.974 54.0897L29.0153 49.2459L28.5057 49.0662C26.7779 48.457 24.782 48.7895 23.5915 49.8847C22.7151 50.691 22.3282 51.5589 22.1257 53.1724C21.7248 56.3682 22.9126 58.7753 25.1863 59.3745C25.8078 59.5383 27.5531 59.4108 28.3195 59.1457Z" fill="black"/>
<path d="M36.3265 62.3584C36.3147 62.2941 36.3203 58.9416 36.3392 54.9086C36.3689 48.5331 36.4046 47.5515 36.6126 47.3897C37.2004 46.9323 39.6773 46.4974 41.7337 46.4905C44.0432 46.4828 45.0119 46.7036 46.2423 47.5181L46.9984 48.0186L47.8784 47.5353C49.7389 46.5136 52.2813 46.1423 54.101 46.6264C55.5768 47.0191 56.6705 47.9313 57.2971 49.292C57.6499 50.0582 57.6572 50.1828 57.7051 56.2738L57.7538 62.4754H56.2861H54.8184L54.7153 58.7058C54.6587 56.6324 54.6112 54.0172 54.6097 52.8941C54.6066 50.4435 54.3748 49.8393 53.2127 49.253C51.8577 48.5695 49.4513 48.8967 48.7791 49.8559C48.5538 50.1773 48.5242 50.9319 48.5242 56.3475V62.4754H47.0658H45.6074L45.5052 59.7841C45.4491 58.3039 45.4029 55.6464 45.4026 53.8786C45.4017 50.8028 45.387 50.6415 45.0496 50.1342C44.8558 49.8426 44.3816 49.4408 43.9959 49.2414C43.3639 48.9144 43.1408 48.8855 41.7337 48.9486C40.8751 48.9871 39.9795 49.0959 39.7433 49.1905L39.3141 49.3623V55.9189V62.4754H37.8311C37.0154 62.4754 36.3384 62.4228 36.3265 62.3584H36.3265Z" fill="black"/>
<path d="M61.9493 57.0148V51.5542H63.4124H64.8754L64.9462 54.2455C64.9852 55.7257 64.9847 58.1829 64.9451 59.7061L64.8731 62.4754H63.4112H61.9492L61.9493 57.0148Z" fill="black"/>
<path d="M69.2106 56.6484C69.0797 50.0122 69.1781 47.5659 69.5847 47.3484C69.7287 47.2714 70.4402 47.0507 71.1658 46.858C73.0983 46.3448 76.6876 46.3325 78.2821 46.8337C79.6161 47.253 80.7696 48.2011 81.318 49.3292C81.6763 50.0662 81.6792 50.1199 81.6872 56.2347L81.6954 62.3973H80.2124H78.7294L78.6513 56.6247C78.5826 51.5411 78.541 50.7932 78.3032 50.3588C77.9684 49.7473 77.3965 49.2876 76.6739 49.0493C76.0169 48.8326 73.3173 48.9251 72.6803 49.1862L72.251 49.3622V55.9188V62.4753H70.7883H69.3255L69.2106 56.6484Z" fill="black"/>
<path d="M85.9922 57.0148V51.5542H87.4514H88.9106L89.0015 54.2406C89.0515 55.7182 89.0514 58.1755 89.0015 59.7012L88.9102 62.4754H87.4514H85.9925L85.9922 57.0148Z" fill="black"/>
</svg>
