<svg width="110" height="110" viewBox="0 0 110 110" fill="none" xmlns="http://www.w3.org/2000/svg">
<circle cx="55" cy="55" r="54.5" stroke="#2F303E" stroke-opacity="0.4"/>
<g clip-path="url(#clip0)">
<path d="M85.2801 72.9644L85.2739 72.9544L85.264 72.9407L73.8325 56.3386C72.0932 53.5283 69.0228 51.8184 65.7178 51.8184H44.278C40.973 51.8179 37.9031 53.5283 36.1638 56.3386L24.7309 72.9398L24.7204 72.9544V72.9644C23.4088 74.9284 23.9381 77.5839 25.9025 78.8951C26.6035 79.3634 27.4276 79.6136 28.2705 79.6151H81.7253C84.0871 79.6141 86.001 77.6984 86 75.3366C85.9996 74.4922 85.7493 73.6668 85.2801 72.9644Z" fill="#0F5584"/>
<path d="M70.436 38.6283L64.9683 30.4284C62.7456 27.0941 59.0035 25.0913 54.9961 25.0913C50.9886 25.0913 47.2465 27.0941 45.0233 30.4284L39.5561 38.6283C38.4701 40.2578 37.8906 42.1726 37.8906 44.1309C37.8902 45.6711 38.2487 47.19 38.9384 48.5674L45.3743 61.4407H64.6178L71.0538 48.5674C71.7434 47.19 72.102 45.6711 72.1015 44.1309C72.1015 42.1726 71.5216 40.2578 70.436 38.6283Z" fill="#3A5565"/>
<path d="M47.5117 36.8511H62.4791V49.5115C62.4791 51.9665 60.4886 53.957 58.0336 53.957H51.9572C49.5017 53.957 47.5117 51.9665 47.5117 49.5115V36.8511Z" fill="#F8C09C"/>
<path d="M53.285 45.4776C54.3232 44.786 55.6761 44.786 56.7144 45.4776C57.6382 46.0949 58.8217 46.1687 59.815 45.6711L62.4791 44.3414V36.8511H47.5117V44.3348L50.1843 45.6725C51.1776 46.1692 52.3611 46.0949 53.285 45.4776Z" fill="#77604F"/>
<path d="M62.4806 38.9895L72.0362 43.2368C71.8947 41.5907 71.3432 40.0065 70.4326 38.6281L64.965 30.4283C61.2934 24.9204 53.8518 23.4323 48.3439 27.1043C47.0275 27.9818 45.8979 29.1114 45.02 30.4278L39.5528 38.6281C38.6417 40.0065 38.0907 41.5907 37.9492 43.2368L47.5133 38.9895H62.4806Z" fill="#2276BB"/>
<path d="M37.8906 61.4404H72.1015V84.9605H37.8906V61.4404Z" fill="#D2D7D6"/>
</g>
<defs>
<clipPath id="clip0">
<rect width="62" height="62" fill="white" transform="translate(24 24)"/>
</clipPath>
</defs>
</svg>
