<svg width="110" height="110" viewBox="0 0 110 110" fill="none" xmlns="http://www.w3.org/2000/svg">
<circle cx="55" cy="55" r="54.5" stroke="#2F303E" stroke-opacity="0.4"/>
<path d="M14.9271 60.8553C13.6424 59.5928 13 57.642 13 55.0029C13 52.3566 13.6424 50.4023 14.9271 49.1398C16.2187 47.8702 18.1528 47.2353 20.7291 47.2353H23.052C24.6285 47.2353 26.0208 47.6562 27.2291 48.4979C28.4444 49.3395 29.052 50.4915 29.052 51.9536C29.052 52.3745 28.9305 52.6776 28.6875 52.8631C28.4444 53.0414 28.2083 53.1305 27.9791 53.1305H26.7395C26.1007 53.1305 25.6041 52.7383 25.2499 51.9536C24.7361 50.8267 23.8819 50.2632 22.6875 50.2632H20.8333C19.3125 50.2632 18.2812 50.5984 17.7396 51.2689C17.1979 51.9394 16.9271 53.1805 16.9271 54.9922C16.9271 56.8039 17.1979 58.0486 17.7396 58.7262C18.2812 59.3966 19.3125 59.7319 20.8333 59.7319H22.9062C24.1007 59.7319 24.9513 59.1684 25.4583 58.0414C25.8124 57.2497 26.3125 56.8538 26.9583 56.8538H28.1979C28.3229 56.8538 28.4548 56.8823 28.5937 56.9394C28.7395 56.9894 28.8854 57.1142 29.0312 57.3139C29.184 57.5065 29.2604 57.749 29.2604 58.0414C29.2604 59.5036 28.6562 60.6555 27.4479 61.4972C26.2396 62.3317 24.8472 62.749 23.2708 62.749H20.7291C18.1528 62.749 16.2187 62.1178 14.9271 60.8553ZM31.2916 61.6363V48.3159C31.2916 48.0378 31.3888 47.8024 31.5833 47.6099C31.7778 47.4173 32.0103 47.321 32.2812 47.321H44.2916C44.5624 47.321 44.7916 47.4208 44.9791 47.6205C45.1735 47.8203 45.2708 48.0592 45.2708 48.3374V49.3431C45.2708 49.6213 45.1735 49.8602 44.9791 50.0599C44.7916 50.2525 44.5624 50.3488 44.2916 50.3488H35.2187V53.4622H43.0312C43.302 53.4622 43.5312 53.5621 43.7187 53.7618C43.9131 53.9544 44.0103 54.1898 44.0103 54.4679V55.4737C44.0103 55.7518 43.9131 55.9908 43.7187 56.1905C43.5312 56.3831 43.302 56.4794 43.0312 56.4794H35.2187V59.6356H44.2707C44.5416 59.6356 44.7673 59.7319 44.9478 59.9245C45.1353 60.117 45.2291 60.3524 45.2291 60.6306V61.6577C45.2291 61.9359 45.1319 62.1748 44.9374 62.3745C44.743 62.5671 44.5103 62.6634 44.2395 62.6634H32.2812C32.0103 62.6634 31.7778 62.5671 31.5833 62.3745C31.3888 62.1748 31.2916 61.9287 31.2916 61.6363ZM47.1874 61.6577V48.3374C47.1874 48.0592 47.2812 47.8203 47.4687 47.6205C47.6562 47.4208 47.8853 47.321 48.1562 47.321H56.104C60.2985 47.321 62.3957 49.311 62.3957 53.291C62.4026 57.264 60.3054 59.2504 56.104 59.2504H51.1145V61.6577C51.1145 61.9359 51.0173 62.1748 50.8228 62.3745C50.6353 62.5671 50.4061 62.6634 50.1353 62.6634H48.177C47.9062 62.6634 47.6735 62.5671 47.4791 62.3745C47.2846 62.1748 47.1874 61.9359 47.1874 61.6577ZM51.1145 56.2226H54.9166C56.0832 56.2226 56.9687 56.0229 57.5728 55.6234C58.177 55.2169 58.4791 54.4394 58.4791 53.291C58.4791 52.1356 58.177 51.3581 57.5728 50.9587C56.9687 50.5521 56.0832 50.3488 54.9166 50.3488H51.1145V56.2226ZM65.3853 60.8553C64.1005 59.5928 63.4582 57.642 63.4582 55.0029C63.4582 52.3566 64.1005 50.4023 65.3853 49.1398C66.6769 47.8702 68.611 47.2353 71.1873 47.2353H73.5104C75.0867 47.2353 76.4791 47.6562 77.6871 48.4979C78.9025 49.3395 79.5102 50.4915 79.5102 51.9536C79.5102 52.3745 79.3885 52.6776 79.1458 52.8631C78.9025 53.0414 78.6667 53.1305 78.4372 53.1305H77.1976C76.5587 53.1305 76.0623 52.7383 75.7083 51.9536C75.1945 50.8267 74.3401 50.2632 73.1454 50.2632H71.2917C69.7707 50.2632 68.7394 50.5984 68.1977 51.2689C67.6561 51.9394 67.3853 53.1805 67.3853 54.9922C67.3853 56.8039 67.6561 58.0486 68.1977 58.7262C68.7394 59.3966 69.7707 59.7319 71.2917 59.7319H73.3645C74.5586 59.7319 75.4096 59.1684 75.9164 58.0414C76.2704 57.2497 76.7709 56.8538 77.4167 56.8538H78.6563C78.7808 56.8538 78.9129 56.8823 79.0518 56.9394C79.1977 56.9894 79.3436 57.1142 79.4894 57.3139C79.6422 57.5065 79.7183 57.749 79.7183 58.0414C79.7183 59.5036 79.1147 60.6555 77.9062 61.4972C76.6977 62.3317 75.3052 62.749 73.7289 62.749H71.1873C68.611 62.749 66.6769 62.1178 65.3853 60.8553ZM83.0308 61.08C81.6072 59.7961 80.8957 57.7668 80.8957 54.9922C80.8957 52.2176 81.6072 50.1919 83.0308 48.9151C84.4549 47.6383 86.5381 47 89.2808 47C92.0311 47 94.1143 47.6383 95.5309 48.9151C96.9545 50.1919 97.6665 52.2176 97.6665 54.9922C97.6665 57.7668 96.9545 59.7961 95.5309 61.08C94.1143 62.3567 92.0311 62.9951 89.2808 62.9951C86.5381 62.9951 84.4549 62.3567 83.0308 61.08ZM85.875 51.1726C85.1733 52.0286 84.8228 53.3053 84.8228 55.0029C84.8228 56.6933 85.1733 57.9665 85.875 58.8225C86.583 59.6712 87.7183 60.0957 89.2808 60.0957C90.8503 60.0957 91.9861 59.6712 92.6872 58.8225C93.3889 57.9665 93.7395 56.6933 93.7395 55.0029C93.7395 53.3053 93.3889 52.0286 92.6872 51.1726C91.9861 50.3167 90.8503 49.8887 89.2808 49.8887C87.7183 49.8887 86.583 50.3167 85.875 51.1726Z" fill="#0745A1"/>
</svg>
